Benne-ltd.ufo
<glyph name="period" format="1">
  <advance width="230"/>
  <unicode hex="002E"/>
  <outline>
    <contour>
      <point x="146" y="-14"/>
      <point x="170" y="10"/>
      <point x="170" y="41" type="curve" smooth="yes"/>
      <point x="170" y="72"/>
      <point x="146" y="96"/>
      <point x="115" y="96" type="curve" smooth="yes"/>
      <point x="100" y="96"/>
      <point x="87" y="91"/>
      <point x="76" y="80" type="curve" smooth="yes"/>
      <point x="65" y="69"/>
      <point x="60" y="56"/>
      <point x="60" y="41" type="curve" smooth="yes"/>
      <point x="60" y="10"/>
      <point x="84" y="-14"/>
      <point x="115" y="-14" type="curve" smooth="yes"/>
    </contour>
  </outline>
</glyph>
<glyph name="F" format="1">
  <advance width="512"/>
  <unicode hex="0046"/>
  <outline>
    <contour>
      <point x="185" y="2" type="line"/>
      <point x="196" y="2"/>
      <point x="211" y="1"/>
      <point x="228" y="-1" type="curve"/>
      <point x="245" y="-4"/>
      <point x="264" y="-5"/>
      <point x="283" y="-5" type="curve" smooth="yes"/>
      <point x="302" y="-5"/>
      <point x="312" y="-1"/>
      <point x="312" y="7" type="curve" smooth="yes"/>
      <point x="312" y="14"/>
      <point x="301" y="20"/>
      <point x="278" y="24" type="curve" smooth="yes"/>
      <point x="232" y="32"/>
      <point x="216" y="56"/>
      <point x="213" y="101" type="curve" smooth="yes"/>
      <point x="211" y="145"/>
      <point x="210" y="208"/>
      <point x="210" y="291" type="curve" smooth="yes"/>
      <point x="210" y="306"/>
      <point x="218" y="315"/>
      <point x="234" y="316" type="curve" smooth="yes"/>
      <point x="262" y="317"/>
      <point x="284" y="318"/>
      <point x="299" y="318" type="curve" smooth="yes"/>
      <point x="332" y="317"/>
      <point x="349" y="317"/>
      <point x="349" y="317" type="curve" smooth="yes"/>
      <point x="372" y="317"/>
      <point x="387" y="304"/>
      <point x="396" y="278" type="curve" smooth="yes"/>
      <point x="401" y="263"/>
      <point x="408" y="255"/>
      <point x="419" y="255" type="curve" smooth="yes"/>
      <point x="425" y="255"/>
      <point x="428" y="261"/>
      <point x="428" y="272" type="curve"/>
      <point x="426" y="301"/>
      <point x="425" y="323"/>
      <point x="425" y="338" type="curve" smooth="yes"/>
      <point x="425" y="356"/>
      <point x="427" y="373"/>
      <point x="427" y="390" type="curve" smooth="yes"/>
      <point x="427" y="398"/>
      <point x="426" y="404"/>
      <point x="424" y="406" type="curve" smooth="yes"/>
      <point x="421" y="409"/>
      <point x="418" y="411"/>
      <point x="416" y="411" type="curve" smooth="yes"/>
      <point x="411" y="411"/>
      <point x="400" y="399"/>
      <point x="397" y="394" type="curve"/>
      <point x="386" y="368"/>
      <point x="365" y="355"/>
      <point x="336" y="355" type="curve" smooth="yes"/>
      <point x="220" y="352" type="line" smooth="yes"/>
      <point x="213" y="352"/>
      <point x="210" y="360"/>
      <point x="210" y="375" type="curve"/>
      <point x="209" y="390"/>
      <point x="209" y="421"/>
      <point x="209" y="467" type="curve" smooth="yes"/>
      <point x="209" y="513"/>
      <point x="209" y="543"/>
      <point x="210" y="557" type="curve" smooth="yes"/>
      <point x="211" y="570"/>
      <point x="212" y="580"/>
      <point x="213" y="586" type="curve" smooth="yes"/>
      <point x="215" y="598"/>
      <point x="224" y="611"/>
      <point x="244" y="611" type="curve" smooth="yes"/>
      <point x="371" y="611" type="line" smooth="yes"/>
      <point x="428" y="611"/>
      <point x="445" y="583"/>
      <point x="461" y="535" type="curve"/>
      <point x="463" y="527"/>
      <point x="468" y="523"/>
      <point x="476" y="523" type="curve" smooth="yes"/>
      <point x="482" y="523"/>
      <point x="485" y="530"/>
      <point x="485" y="544" type="curve" smooth="yes"/>
      <point x="485" y="591"/>
      <point x="483" y="625"/>
      <point x="480" y="644" type="curve" smooth="yes"/>
      <point x="479" y="650"/>
      <point x="473" y="653"/>
      <point x="462" y="653" type="curve"/>
      <point x="447" y="652" type="line"/>
      <point x="408" y="652" type="line"/>
      <point x="237" y="650" type="line"/>
      <point x="65" y="653" type="line" smooth="yes"/>
      <point x="46" y="653"/>
      <point x="36" y="649"/>
      <point x="36" y="642" type="curve" smooth="yes"/>
      <point x="36" y="633"/>
      <point x="48" y="626"/>
      <point x="71" y="622" type="curve" smooth="yes"/>
      <point x="117" y="614"/>
      <point x="130" y="586"/>
      <point x="130" y="522" type="curve" smooth="yes"/>
      <point x="130" y="100" type="line" smooth="yes"/>
      <point x="130" y="52"/>
      <point x="113" y="33"/>
      <point x="66" y="25" type="curve"/>
      <point x="42" y="20"/>
      <point x="30" y="14"/>
      <point x="30" y="7" type="curve" smooth="yes"/>
      <point x="30" y="-1"/>
      <point x="40" y="-5"/>
      <point x="59" y="-5" type="curve"/>
    </contour>
  </outline>
</glyph>
<glyph name="M" format="1">
  <advance width="901"/>
  <unicode hex="004D"/>
  <outline>
    <contour>
      <point x="406" y="-10"/>
      <point x="412" y="-2"/>
      <point x="419" y="14" type="curve"/>
      <point x="641" y="464" type="line" smooth="yes"/>
      <point x="646" y="475"/>
      <point x="650" y="480"/>
      <point x="652" y="480" type="curve" smooth="yes"/>
      <point x="655" y="480"/>
      <point x="657" y="475"/>
      <point x="657" y="464" type="curve"/>
      <point x="665" y="284"/>
      <point x="669" y="161"/>
      <point x="669" y="96" type="curve" smooth="yes"/>
      <point x="669" y="48"/>
      <point x="657" y="29"/>
      <point x="616" y="24" type="curve" smooth="yes"/>
      <point x="595" y="21"/>
      <point x="585" y="15"/>
      <point x="585" y="6" type="curve" smooth="yes"/>
      <point x="585" y="-1"/>
      <point x="595" y="-5"/>
      <point x="614" y="-5" type="curve"/>
      <point x="719" y="0" type="line"/>
      <point x="836" y="-5" type="line"/>
      <point x="855" y="-5"/>
      <point x="865" y="-1"/>
      <point x="865" y="7" type="curve" smooth="yes"/>
      <point x="865" y="14"/>
      <point x="853" y="20"/>
      <point x="830" y="25" type="curve"/>
      <point x="782" y="33"/>
      <point x="759" y="52"/>
      <point x="757" y="100" type="curve" smooth="yes"/>
      <point x="756" y="124"/>
      <point x="752" y="186"/>
      <point x="745" y="285" type="curve" smooth="yes"/>
      <point x="738" y="384"/>
      <point x="735" y="478"/>
      <point x="735" y="568" type="curve" smooth="yes"/>
      <point x="735" y="588"/>
      <point x="763" y="606"/>
      <point x="780" y="611" type="curve" smooth="yes"/>
      <point x="796" y="616"/>
      <point x="844" y="627"/>
      <point x="844" y="646" type="curve" smooth="yes"/>
      <point x="844" y="653"/>
      <point x="837" y="656"/>
      <point x="823" y="656" type="curve" smooth="yes"/>
      <point x="820" y="656" type="line" smooth="yes"/>
      <point x="815" y="656"/>
      <point x="800" y="655"/>
      <point x="773" y="652" type="curve" smooth="yes"/>
      <point x="746" y="649"/>
      <point x="725" y="648"/>
      <point x="709" y="648" type="curve" smooth="yes"/>
      <point x="673" y="648" type="line" smooth="yes"/>
      <point x="667" y="648"/>
      <point x="661" y="631"/>
      <point x="655" y="596" type="curve" smooth="yes"/>
      <point x="652" y="581"/>
      <point x="649" y="569"/>
      <point x="645" y="560" type="curve" smooth="yes"/>
      <point x="448" y="150" type="line" smooth="yes"/>
      <point x="444" y="142"/>
      <point x="440" y="138"/>
      <point x="437" y="138" type="curve" smooth="yes"/>
      <point x="433" y="138"/>
      <point x="429" y="143"/>
      <point x="425" y="153" type="curve" smooth="yes"/>
      <point x="267" y="554" type="line" smooth="yes"/>
      <point x="265" y="559"/>
      <point x="262" y="571"/>
      <point x="258" y="588" type="curve" smooth="yes"/>
      <point x="249" y="627"/>
      <point x="240" y="647"/>
      <point x="231" y="647" type="curve"/>
      <point x="65" y="655" type="line"/>
      <point x="50" y="655"/>
      <point x="42" y="651"/>
      <point x="42" y="644" type="curve" smooth="yes"/>
      <point x="42" y="628"/>
      <point x="55" y="627"/>
      <point x="71" y="624" type="curve"/>
      <point x="79" y="622"/>
      <point x="85" y="620"/>
      <point x="90" y="619" type="curve"/>
      <point x="99" y="616"/>
      <point x="116" y="612"/>
      <point x="126" y="605" type="curve" smooth="yes"/>
      <point x="136" y="598"/>
      <point x="154" y="580"/>
      <point x="154" y="561" type="curve"/>
      <point x="155" y="538" type="line"/>
      <point x="155" y="452"/>
      <point x="141" y="307"/>
      <point x="114" y="102" type="curve" smooth="yes"/>
      <point x="107" y="56"/>
      <point x="86" y="30"/>
      <point x="52" y="24" type="curve" smooth="yes"/>
      <point x="30" y="20"/>
      <point x="19" y="14"/>
      <point x="19" y="7" type="curve" smooth="yes"/>
      <point x="19" y="-1"/>
      <point x="29" y="-5"/>
      <point x="48" y="-5" type="curve"/>
      <point x="139" y="0" type="line"/>
      <point x="233" y="-5" type="line"/>
      <point x="252" y="-5"/>
      <point x="262" y="-1"/>
      <point x="262" y="7" type="curve" smooth="yes"/>
      <point x="262" y="14"/>
      <point x="251" y="20"/>
      <point x="229" y="24" type="curve" smooth="yes"/>
      <point x="185" y="32"/>
      <point x="164" y="70"/>
      <point x="164" y="102" type="curve" smooth="yes"/>
      <point x="164" y="190"/>
      <point x="175" y="313"/>
      <point x="196" y="471" type="curve" smooth="yes"/>
      <point x="197" y="479"/>
      <point x="199" y="482"/>
      <point x="201" y="482" type="curve" smooth="yes"/>
      <point x="203" y="482"/>
      <point x="206" y="479"/>
      <point x="209" y="471" type="curve" smooth="yes"/>
      <point x="291" y="280"/>
      <point x="351" y="128"/>
      <point x="388" y="16" type="curve" smooth="yes"/>
      <point x="394" y="-1"/>
      <point x="399" y="-10"/>
      <point x="403" y="-10" type="curve" smooth="yes"/>
    </contour>
  </outline>
</glyph>
<glyph name="backslash" format="1">
  <advance width="399"/>
  <unicode hex="005C"/>
  <outline>
    <contour>
      <point x="371" y="-62"/>
      <point x="379" y="-58"/>
      <point x="379" y="-50" type="curve"/>
      <point x="378" y="-48" type="line"/>
      <point x="378" y="-47" type="line"/>
      <point x="81" y="648" type="line" smooth="yes"/>
      <point x="76" y="659"/>
      <point x="63" y="665"/>
      <point x="42" y="665" type="curve" smooth="yes"/>
      <point x="35" y="665"/>
      <point x="28" y="659"/>
      <point x="28" y="652" type="curve" smooth="yes"/>
      <point x="28" y="650" type="line"/>
      <point x="29" y="648" type="line"/>
      <point x="326" y="-47" type="line" smooth="yes"/>
      <point x="330" y="-57"/>
      <point x="340" y="-62"/>
      <point x="356" y="-62" type="curve" smooth="yes"/>
    </contour>
  </outline>
</glyph>
<glyph name="c" format="1">
  <advance width="377"/>
  <unicode hex="0063"/>
  <outline>
    <contour>
      <point x="290" y="-14"/>
      <point x="372" y="39"/>
      <point x="372" y="79" type="curve" smooth="yes"/>
      <point x="372" y="86"/>
      <point x="365" y="93"/>
      <point x="360" y="93" type="curve" smooth="yes"/>
      <point x="357" y="93"/>
      <point x="354" y="91"/>
      <point x="351" y="88" type="curve"/>
      <point x="323" y="52"/>
      <point x="303" y="38"/>
      <point x="263" y="38" type="curve" smooth="yes"/>
      <point x="170" y="38"/>
      <point x="104" y="129"/>
      <point x="104" y="219" type="curve" smooth="yes"/>
      <point x="104" y="309"/>
      <point x="145" y="376"/>
      <point x="214" y="376" type="curve" smooth="yes"/>
      <point x="261" y="376"/>
      <point x="272" y="368"/>
      <point x="308" y="329" type="curve"/>
      <point x="315" y="322"/>
      <point x="322" y="319"/>
      <point x="330" y="319" type="curve" smooth="yes"/>
      <point x="346" y="319"/>
      <point x="371" y="338"/>
      <point x="371" y="350" type="curve" smooth="yes"/>
      <point x="371" y="355"/>
      <point x="369" y="360"/>
      <point x="366" y="365" type="curve"/>
      <point x="340" y="397"/>
      <point x="299" y="413"/>
      <point x="242" y="413" type="curve" smooth="yes"/>
      <point x="128" y="413"/>
      <point x="35" y="304"/>
      <point x="35" y="188" type="curve" smooth="yes"/>
      <point x="35" y="72"/>
      <point x="110" y="-14"/>
      <point x="200" y="-14" type="curve" smooth="yes"/>
    </contour>
  </outline>
</glyph>
<glyph name="h" format="1">
  <advance width="515"/>
  <unicode hex="0068"/>
  <outline>
    <contour>
      <point x="120" y="2" type="line"/>
      <point x="196" y="-3" type="line"/>
      <point x="209" y="-3"/>
      <point x="216" y="0"/>
      <point x="216" y="7" type="curve" smooth="yes"/>
      <point x="216" y="13"/>
      <point x="208" y="19"/>
      <point x="193" y="24" type="curve"/>
      <point x="168" y="31"/>
      <point x="156" y="45"/>
      <point x="155" y="65" type="curve"/>
      <point x="155" y="268" type="line" smooth="yes"/>
      <point x="155" y="308"/>
      <point x="161" y="323"/>
      <point x="182" y="340" type="curve" smooth="yes"/>
      <point x="201" y="355"/>
      <point x="228" y="362"/>
      <point x="265" y="362" type="curve" smooth="yes"/>
      <point x="310" y="362"/>
      <point x="358" y="320"/>
      <point x="358" y="272" type="curve" smooth="yes"/>
      <point x="358" y="68" type="line" smooth="yes"/>
      <point x="358" y="47"/>
      <point x="345" y="32"/>
      <point x="319" y="24" type="curve" smooth="yes"/>
      <point x="304" y="19"/>
      <point x="296" y="13"/>
      <point x="296" y="7" type="curve" smooth="yes"/>
      <point x="296" y="0"/>
      <point x="303" y="-3"/>
      <point x="316" y="-3" type="curve"/>
      <point x="394" y="2" type="line"/>
      <point x="472" y="-3" type="line"/>
      <point x="485" y="-3"/>
      <point x="492" y="0"/>
      <point x="492" y="7" type="curve" smooth="yes"/>
      <point x="492" y="13"/>
      <point x="484" y="19"/>
      <point x="469" y="24" type="curve" smooth="yes"/>
      <point x="442" y="32"/>
      <point x="428" y="47"/>
      <point x="428" y="68" type="curve" smooth="yes"/>
      <point x="428" y="278" type="line" smooth="yes"/>
      <point x="428" y="355"/>
      <point x="379" y="414"/>
      <point x="314" y="414" type="curve" smooth="yes"/>
      <point x="270" y="414"/>
      <point x="220" y="393"/>
      <point x="163" y="351" type="curve"/>
      <point x="158" y="358"/>
      <point x="155" y="370"/>
      <point x="155" y="388" type="curve" smooth="yes"/>
      <point x="155" y="562" type="line" smooth="yes"/>
      <point x="155" y="614"/>
      <point x="157" y="655"/>
      <point x="162" y="684" type="curve" smooth="yes"/>
      <point x="163" y="687"/>
      <point x="163" y="690"/>
      <point x="163" y="693" type="curve" smooth="yes"/>
      <point x="163" y="702"/>
      <point x="159" y="705"/>
      <point x="157" y="705" type="curve"/>
      <point x="155" y="704" type="line"/>
      <point x="94" y="681"/>
      <point x="56" y="668"/>
      <point x="39" y="664" type="curve" smooth="yes"/>
      <point x="34" y="663"/>
      <point x="32" y="659"/>
      <point x="32" y="652" type="curve" smooth="yes"/>
      <point x="32" y="645"/>
      <point x="35" y="640"/>
      <point x="40" y="639" type="curve" smooth="yes"/>
      <point x="70" y="633"/>
      <point x="85" y="609"/>
      <point x="85" y="566" type="curve" smooth="yes"/>
      <point x="85" y="65" type="line" smooth="yes"/>
      <point x="85" y="34"/>
      <point x="61" y="30"/>
      <point x="37" y="22" type="curve" smooth="yes"/>
      <point x="25" y="18"/>
      <point x="19" y="13"/>
      <point x="19" y="7" type="curve" smooth="yes"/>
      <point x="19" y="0"/>
      <point x="26" y="-3"/>
      <point x="39" y="-3" type="curve"/>
    </contour>
  </outline>
</glyph>
<glyph name="m" format="1">
  <advance width="778"/>
  <unicode hex="006D"/>
  <outline>
    <contour>
      <point x="125" y="2" type="line"/>
      <point x="206" y="-3" type="line"/>
      <point x="219" y="-3"/>
      <point x="226" y="0"/>
      <point x="226" y="6" type="curve" smooth="yes"/>
      <point x="226" y="15"/>
      <point x="213" y="22"/>
      <point x="187" y="29" type="curve"/>
      <point x="182" y="30"/>
      <point x="160" y="37"/>
      <point x="160" y="62" type="curve" smooth="yes"/>
      <point x="160" y="268" type="line" smooth="yes"/>
      <point x="160" y="337"/>
      <point x="203" y="367"/>
      <point x="274" y="367" type="curve" smooth="yes"/>
      <point x="317" y="367"/>
      <point x="354" y="321"/>
      <point x="354" y="272" type="curve" smooth="yes"/>
      <point x="354" y="62" type="line" smooth="yes"/>
      <point x="354" y="56"/>
      <point x="352" y="50"/>
      <point x="349" y="44" type="curve"/>
      <point x="345" y="37"/>
      <point x="334" y="31"/>
      <point x="315" y="25" type="curve" smooth="yes"/>
      <point x="296" y="19"/>
      <point x="287" y="13"/>
      <point x="287" y="7" type="curve" smooth="yes"/>
      <point x="287" y="0"/>
      <point x="294" y="-3"/>
      <point x="307" y="-3" type="curve"/>
      <point x="390" y="2" type="line"/>
      <point x="472" y="-3" type="line"/>
      <point x="485" y="-3"/>
      <point x="492" y="0"/>
      <point x="492" y="7" type="curve" smooth="yes"/>
      <point x="492" y="13"/>
      <point x="484" y="19"/>
      <point x="469" y="24" type="curve"/>
      <point x="466" y="24"/>
      <point x="461" y="25"/>
      <point x="455" y="28" type="curve"/>
      <point x="454" y="29"/>
      <point x="452" y="30"/>
      <point x="449" y="31" type="curve"/>
      <point x="445" y="32"/>
      <point x="443" y="33"/>
      <point x="442" y="34" type="curve" smooth="yes"/>
      <point x="441" y="35"/>
      <point x="439" y="36"/>
      <point x="436" y="37" type="curve" smooth="yes"/>
      <point x="433" y="38"/>
      <point x="432" y="40"/>
      <point x="431" y="42" type="curve"/>
      <point x="427" y="48" type="line"/>
      <point x="425" y="50"/>
      <point x="424" y="55"/>
      <point x="424" y="62" type="curve" smooth="yes"/>
      <point x="424" y="268" type="line" smooth="yes"/>
      <point x="424" y="336"/>
      <point x="468" y="367"/>
      <point x="539" y="367" type="curve" smooth="yes"/>
      <point x="582" y="367"/>
      <point x="619" y="321"/>
      <point x="619" y="272" type="curve" smooth="yes"/>
      <point x="619" y="62" type="line" smooth="yes"/>
      <point x="619" y="59"/>
      <point x="619" y="55"/>
      <point x="618" y="52" type="curve"/>
      <point x="615" y="41"/>
      <point x="602" y="32"/>
      <point x="580" y="25" type="curve"/>
      <point x="578" y="24"/>
      <point x="577" y="24"/>
      <point x="576" y="24" type="curve"/>
      <point x="561" y="19"/>
      <point x="553" y="13"/>
      <point x="553" y="7" type="curve" smooth="yes"/>
      <point x="553" y="0"/>
      <point x="560" y="-3"/>
      <point x="573" y="-3" type="curve"/>
      <point x="656" y="2" type="line"/>
      <point x="735" y="-3" type="line"/>
      <point x="748" y="-3"/>
      <point x="755" y="0"/>
      <point x="755" y="7" type="curve" smooth="yes"/>
      <point x="755" y="13"/>
      <point x="748" y="18"/>
      <point x="735" y="23" type="curve"/>
      <point x="707" y="32"/>
      <point x="689" y="35"/>
      <point x="689" y="62" type="curve" smooth="yes"/>
      <point x="689" y="275" type="line" smooth="yes"/>
      <point x="689" y="350"/>
      <point x="650" y="414"/>
      <point x="590" y="414" type="curve" smooth="yes"/>
      <point x="529" y="414"/>
      <point x="469" y="386"/>
      <point x="448" y="362" type="curve" smooth="yes"/>
      <point x="437" y="349"/>
      <point x="430" y="343"/>
      <point x="427" y="343" type="curve" smooth="yes"/>
      <point x="423" y="343"/>
      <point x="419" y="347"/>
      <point x="416" y="354" type="curve"/>
      <point x="401" y="394"/>
      <point x="370" y="414"/>
      <point x="323" y="414" type="curve" smooth="yes"/>
      <point x="266" y="414"/>
      <point x="213" y="392"/>
      <point x="165" y="347" type="curve"/>
      <point x="164" y="348"/>
      <point x="163" y="352"/>
      <point x="163" y="359" type="curve"/>
      <point x="168" y="423" type="line"/>
      <point x="166" y="427"/>
      <point x="163" y="429"/>
      <point x="161" y="429" type="curve" smooth="yes"/>
      <point x="161" y="429"/>
      <point x="160" y="429"/>
      <point x="160" y="429" type="curve" smooth="yes"/>
      <point x="145" y="420" type="line"/>
      <point x="112" y="397"/>
      <point x="81" y="381"/>
      <point x="50" y="374" type="curve" smooth="yes"/>
      <point x="45" y="373"/>
      <point x="43" y="369"/>
      <point x="43" y="362" type="curve" smooth="yes"/>
      <point x="43" y="355"/>
      <point x="46" y="350"/>
      <point x="51" y="349" type="curve" smooth="yes"/>
      <point x="82" y="342"/>
      <point x="90" y="318"/>
      <point x="90" y="277" type="curve" smooth="yes"/>
      <point x="90" y="62" type="line" smooth="yes"/>
      <point x="90" y="54"/>
      <point x="87" y="46"/>
      <point x="80" y="39" type="curve"/>
      <point x="77" y="35"/>
      <point x="63" y="28"/>
      <point x="60" y="28" type="curve"/>
      <point x="56" y="27"/>
      <point x="24" y="19"/>
      <point x="24" y="7" type="curve" smooth="yes"/>
      <point x="24" y="0"/>
      <point x="31" y="-3"/>
      <point x="44" y="-3" type="curve"/>
    </contour>
  </outline>
</glyph>
<glyph name="braceleft" format="1">
  <advance width="373"/>
  <unicode hex="007B"/>
  <outline>
    <contour>
      <point x="332" y="-154"/>
      <point x="338" y="-149"/>
      <point x="338" y="-139" type="curve" smooth="yes"/>
      <point x="338" y="-131"/>
      <point x="329" y="-127"/>
      <point x="312" y="-127" type="curve" smooth="yes"/>
      <point x="240" y="-127"/>
      <point x="183" y="-94"/>
      <point x="183" y="-26" type="curve" smooth="yes"/>
      <point x="183" y="-3"/>
      <point x="185" y="27"/>
      <point x="190" y="64" type="curve" smooth="yes"/>
      <point x="194" y="101"/>
      <point x="196" y="128"/>
      <point x="196" y="147" type="curve" smooth="yes"/>
      <point x="196" y="206"/>
      <point x="131" y="268"/>
      <point x="90" y="279" type="curve" smooth="yes"/>
      <point x="86" y="280"/>
      <point x="85" y="282"/>
      <point x="88" y="283" type="curve"/>
      <point x="140" y="304"/>
      <point x="196" y="354"/>
      <point x="196" y="414" type="curve" smooth="yes"/>
      <point x="196" y="433"/>
      <point x="194" y="460"/>
      <point x="190" y="497" type="curve" smooth="yes"/>
      <point x="185" y="534"/>
      <point x="183" y="564"/>
      <point x="183" y="587" type="curve" smooth="yes"/>
      <point x="183" y="655"/>
      <point x="240" y="688"/>
      <point x="312" y="688" type="curve" smooth="yes"/>
      <point x="329" y="688"/>
      <point x="338" y="692"/>
      <point x="338" y="700" type="curve" smooth="yes"/>
      <point x="338" y="710"/>
      <point x="332" y="715"/>
      <point x="320" y="715" type="curve" smooth="yes"/>
      <point x="213" y="715"/>
      <point x="118" y="669"/>
      <point x="118" y="582" type="curve" smooth="yes"/>
      <point x="118" y="558"/>
      <point x="120" y="527"/>
      <point x="125" y="490" type="curve" smooth="yes"/>
      <point x="129" y="453"/>
      <point x="131" y="424"/>
      <point x="131" y="404" type="curve" smooth="yes"/>
      <point x="131" y="350"/>
      <point x="99" y="311"/>
      <point x="36" y="288" type="curve"/>
      <point x="35" y="287"/>
      <point x="33" y="287"/>
      <point x="31" y="287" type="curve" smooth="yes"/>
      <point x="27" y="287"/>
      <point x="25" y="285"/>
      <point x="25" y="282" type="curve" smooth="yes"/>
      <point x="25" y="279"/>
      <point x="29" y="276"/>
      <point x="36" y="273" type="curve"/>
      <point x="99" y="250"/>
      <point x="131" y="211"/>
      <point x="131" y="157" type="curve" smooth="yes"/>
      <point x="131" y="137"/>
      <point x="129" y="108"/>
      <point x="125" y="71" type="curve" smooth="yes"/>
      <point x="120" y="34"/>
      <point x="118" y="3"/>
      <point x="118" y="-21" type="curve" smooth="yes"/>
      <point x="118" y="-108"/>
      <point x="213" y="-154"/>
      <point x="320" y="-154" type="curve" smooth="yes"/>
    </contour>
  </outline>
</glyph>
<glyph name="ordfeminine" format="1">
  <advance width="270"/>
  <unicode hex="00AA"/>
  <outline>
    <contour>
      <point x="255" y="196" type="line" smooth="yes"/>
      <point x="262" y="196"/>
      <point x="269" y="190"/>
      <point x="269" y="187" type="curve" smooth="yes"/>
      <point x="269" y="185"/>
      <point x="269" y="183"/>
      <point x="268" y="182" type="curve"/>
      <point x="261" y="168"/>
      <point x="250" y="161"/>
      <point x="237" y="161" type="curve" smooth="yes"/>
      <point x="39" y="161" type="line" smooth="yes"/>
      <point x="32" y="161"/>
      <point x="25" y="166"/>
      <point x="25" y="174" type="curve" smooth="yes"/>
      <point x="25" y="182"/>
      <point x="37" y="196"/>
      <point x="49" y="196" type="curve" smooth="yes"/>
    </contour>
    <contour>
      <point x="80" y="321"/>
      <point x="97" y="308"/>
      <point x="115" y="308" type="curve" smooth="yes"/>
      <point x="133" y="308"/>
      <point x="160" y="327"/>
      <point x="160" y="350" type="curve" smooth="yes"/>
      <point x="160" y="379" type="line" smooth="yes"/>
      <point x="160" y="389"/>
      <point x="155" y="393"/>
      <point x="145" y="390" type="curve" smooth="yes"/>
      <point x="102" y="378"/>
      <point x="80" y="362"/>
      <point x="80" y="342" type="curve" smooth="yes"/>
    </contour>
    <contour>
      <point x="241" y="308"/>
      <point x="249" y="311"/>
      <point x="259" y="318" type="curve"/>
      <point x="263" y="318"/>
      <point x="268" y="310"/>
      <point x="268" y="304" type="curve" smooth="yes"/>
      <point x="268" y="301"/>
      <point x="266" y="297"/>
      <point x="261" y="292" type="curve" smooth="yes"/>
      <point x="246" y="276"/>
      <point x="233" y="268"/>
      <point x="221" y="268" type="curve" smooth="yes"/>
      <point x="197" y="268"/>
      <point x="180" y="282"/>
      <point x="172" y="292" type="curve"/>
      <point x="167" y="297"/>
      <point x="164" y="299"/>
      <point x="163" y="299" type="curve" smooth="yes"/>
      <point x="162" y="299"/>
      <point x="158" y="297"/>
      <point x="152" y="292" type="curve" smooth="yes"/>
      <point x="133" y="276"/>
      <point x="111" y="268"/>
      <point x="84" y="268" type="curve" smooth="yes"/>
      <point x="57" y="268"/>
      <point x="25" y="303"/>
      <point x="25" y="328" type="curve" smooth="yes"/>
      <point x="25" y="353"/>
      <point x="32" y="369"/>
      <point x="63" y="380" type="curve" smooth="yes"/>
      <point x="142" y="408" type="line"/>
      <point x="159" y="413"/>
      <point x="160" y="416"/>
      <point x="160" y="432" type="curve" smooth="yes"/>
      <point x="160" y="455" type="line" smooth="yes"/>
      <point x="160" y="476"/>
      <point x="149" y="491"/>
      <point x="114" y="491" type="curve" smooth="yes"/>
      <point x="79" y="491"/>
      <point x="78" y="482"/>
      <point x="78" y="453" type="curve" smooth="yes"/>
      <point x="78" y="446"/>
      <point x="40" y="434"/>
      <point x="33" y="434" type="curve" smooth="yes"/>
      <point x="30" y="434"/>
      <point x="28" y="436"/>
      <point x="28" y="440" type="curve" smooth="yes"/>
      <point x="28" y="448"/>
      <point x="38" y="469"/>
      <point x="57" y="485" type="curve" smooth="yes"/>
      <point x="76" y="501"/>
      <point x="123" y="524"/>
      <point x="154" y="524" type="curve" smooth="yes"/>
      <point x="185" y="524"/>
      <point x="215" y="499"/>
      <point x="215" y="471" type="curve" smooth="yes"/>
      <point x="215" y="347" type="line" smooth="yes"/>
      <point x="215" y="321"/>
      <point x="221" y="308"/>
      <point x="234" y="308" type="curve" smooth="yes"/>
    </contour>
  </outline>
</glyph>
<glyph name="paragraph" format="1">
  <advance width="586"/>
  <unicode hex="00B6"/>
  <outline>
    <contour>
      <point x="383" y="-287"/>
      <point x="433" y="-218"/>
      <point x="433" y="-166" type="curve" smooth="yes"/>
      <point x="433" y="589" type="line" smooth="yes"/>
      <point x="433" y="598"/>
      <point x="442" y="607"/>
      <point x="451" y="607" type="curve"/>
      <point x="523" y="600" type="line"/>
      <point x="531" y="600"/>
      <point x="541" y="613"/>
      <point x="541" y="622" type="curve" smooth="yes"/>
      <point x="541" y="636"/>
      <point x="536" y="643"/>
      <point x="526" y="643" type="curve" smooth="yes"/>
      <point x="494" y="644"/>
      <point x="457" y="645"/>
      <point x="415" y="645" type="curve" smooth="yes"/>
      <point x="320" y="645"/>
      <point x="236" y="621"/>
      <point x="164" y="574" type="curve" smooth="yes"/>
      <point x="93" y="527"/>
      <point x="47" y="455"/>
      <point x="47" y="360" type="curve" smooth="yes"/>
      <point x="47" y="313"/>
      <point x="64" y="270"/>
      <point x="98" y="231" type="curve" smooth="yes"/>
      <point x="165" y="154"/>
      <point x="269" y="119"/>
      <point x="381" y="119" type="curve" smooth="yes"/>
      <point x="390" y="119"/>
      <point x="394" y="111"/>
      <point x="394" y="94" type="curve" smooth="yes"/>
      <point x="394" y="-180" type="line" smooth="yes"/>
      <point x="394" y="-227"/>
      <point x="359" y="-262"/>
      <point x="323" y="-262" type="curve" smooth="yes"/>
      <point x="287" y="-262"/>
      <point x="268" y="-242"/>
      <point x="268" y="-222" type="curve" smooth="yes"/>
      <point x="268" y="-213"/>
      <point x="269" y="-208"/>
      <point x="272" y="-208" type="curve" smooth="yes"/>
      <point x="275" y="-208"/>
      <point x="282" y="-211"/>
      <point x="293" y="-217" type="curve"/>
      <point x="304" y="-224"/>
      <point x="314" y="-227"/>
      <point x="322" y="-227" type="curve" smooth="yes"/>
      <point x="338" y="-227"/>
      <point x="356" y="-207"/>
      <point x="356" y="-183" type="curve" smooth="yes"/>
      <point x="356" y="-159"/>
      <point x="331" y="-140"/>
      <point x="298" y="-140" type="curve" smooth="yes"/>
      <point x="265" y="-140"/>
      <point x="232" y="-167"/>
      <point x="232" y="-209" type="curve" smooth="yes"/>
      <point x="232" y="-251"/>
      <point x="270" y="-287"/>
      <point x="327" y="-287" type="curve" smooth="yes"/>
    </contour>
  </outline>
</glyph>
<glyph name="onequarter" format="1">
  <advance width="641"/>
  <unicode hex="00BC"/>
  <outline>
    <contour>
      <point x="533" y="638" type="line" smooth="yes"/>
      <point x="540" y="649"/>
      <point x="553" y="655"/>
      <point x="572" y="655" type="curve" smooth="yes"/>
      <point x="580" y="655"/>
      <point x="589" y="645"/>
      <point x="585" y="638" type="curve"/>
      <point x="173" y="-11" type="line" smooth="yes"/>
      <point x="167" y="-21"/>
      <point x="155" y="-26"/>
      <point x="137" y="-26" type="curve" smooth="yes"/>
      <point x="128" y="-26"/>
      <point x="116" y="-18"/>
      <point x="121" y="-11" type="curve"/>
    </contour>
    <contour>
      <point x="502" y="148" type="line" smooth="yes"/>
      <point x="507" y="148"/>
      <point x="510" y="150"/>
      <point x="510" y="153" type="curve" smooth="yes"/>
      <point x="510" y="264" type="line" smooth="yes"/>
      <point x="510" y="265"/>
      <point x="509" y="266"/>
      <point x="508" y="266" type="curve" smooth="yes"/>
      <point x="507" y="266"/>
      <point x="505" y="266"/>
      <point x="504" y="265" type="curve"/>
      <point x="478" y="236"/>
      <point x="447" y="199"/>
      <point x="411" y="153" type="curve"/>
      <point x="409" y="150"/>
      <point x="409" y="148"/>
      <point x="411" y="148" type="curve" smooth="yes"/>
    </contour>
    <contour>
      <point x="584" y="108" type="line" smooth="yes"/>
      <point x="569" y="108"/>
      <point x="562" y="106"/>
      <point x="562" y="103" type="curve" smooth="yes"/>
      <point x="562" y="19" type="line" smooth="yes"/>
      <point x="562" y="6"/>
      <point x="527" y="-10"/>
      <point x="519" y="-10" type="curve" smooth="yes"/>
      <point x="513" y="-10"/>
      <point x="510" y="-7"/>
      <point x="510" y="-2" type="curve" smooth="yes"/>
      <point x="510" y="100" type="line" smooth="yes"/>
      <point x="510" y="103"/>
      <point x="507" y="105"/>
      <point x="501" y="105" type="curve" smooth="yes"/>
      <point x="355" y="101" type="line" smooth="yes"/>
      <point x="351" y="101"/>
      <point x="346" y="106"/>
      <point x="349" y="109" type="curve"/>
      <point x="389" y="164"/>
      <point x="536" y="346"/>
      <point x="553" y="350" type="curve" smooth="yes"/>
      <point x="557" y="351"/>
      <point x="560" y="346"/>
      <point x="560" y="342" type="curve" smooth="yes"/>
      <point x="560" y="264"/>
      <point x="561" y="200"/>
      <point x="562" y="151" type="curve" smooth="yes"/>
      <point x="562" y="148"/>
      <point x="563" y="147"/>
      <point x="565" y="147" type="curve" smooth="yes"/>
      <point x="583" y="147" type="line" smooth="yes"/>
      <point x="600" y="147"/>
      <point x="612" y="147"/>
      <point x="620" y="148" type="curve"/>
      <point x="627" y="148"/>
      <point x="631" y="146"/>
      <point x="631" y="143" type="curve" smooth="yes"/>
      <point x="631" y="130"/>
      <point x="622" y="107"/>
      <point x="618" y="107" type="curve" smooth="yes"/>
    </contour>
    <contour>
      <point x="165" y="433" type="line"/>
      <point x="166" y="354" type="line" smooth="yes"/>
      <point x="167" y="317"/>
      <point x="171" y="315"/>
      <point x="216" y="308" type="curve" smooth="yes"/>
      <point x="224" y="307"/>
      <point x="228" y="302"/>
      <point x="228" y="295" type="curve" smooth="yes"/>
      <point x="228" y="287"/>
      <point x="224" y="283"/>
      <point x="216" y="283" type="curve" smooth="yes"/>
      <point x="195" y="283"/>
      <point x="178" y="284"/>
      <point x="166" y="286" type="curve"/>
      <point x="153" y="287"/>
      <point x="143" y="288"/>
      <point x="134" y="288" type="curve" smooth="yes"/>
      <point x="125" y="288"/>
      <point x="115" y="287"/>
      <point x="102" y="286" type="curve"/>
      <point x="89" y="284"/>
      <point x="72" y="283"/>
      <point x="52" y="283" type="curve" smooth="yes"/>
      <point x="45" y="283"/>
      <point x="41" y="287"/>
      <point x="41" y="296" type="curve" smooth="yes"/>
      <point x="41" y="304"/>
      <point x="46" y="308"/>
      <point x="55" y="309" type="curve"/>
      <point x="74" y="309"/>
      <point x="85" y="311"/>
      <point x="97" y="325" type="curve" smooth="yes"/>
      <point x="103" y="332"/>
      <point x="106" y="341"/>
      <point x="106" y="354" type="curve" smooth="yes"/>
      <point x="106" y="507" type="line" smooth="yes"/>
      <point x="106" y="526"/>
      <point x="88" y="541"/>
      <point x="52" y="554" type="curve"/>
      <point x="45" y="557"/>
      <point x="41" y="562"/>
      <point x="41" y="569" type="curve" smooth="yes"/>
      <point x="41" y="576"/>
      <point x="44" y="580"/>
      <point x="51" y="581" type="curve"/>
      <point x="98" y="586"/>
      <point x="125" y="607"/>
      <point x="140" y="618" type="curve"/>
      <point x="151" y="625"/>
      <point x="158" y="628"/>
      <point x="161" y="628" type="curve" smooth="yes"/>
      <point x="168" y="628"/>
      <point x="171" y="623"/>
      <point x="170" y="614" type="curve"/>
      <point x="167" y="595"/>
      <point x="166" y="572"/>
      <point x="166" y="544" type="curve" smooth="yes"/>
    </contour>
  </outline>
</glyph>
<glyph name="Ograve" format="1">
  <advance width="763"/>
  <unicode hex="00D2"/>
  <outline>
    <contour>
      <point x="421" y="699"/>
      <point x="419" y="697"/>
      <point x="415" y="697" type="curve" smooth="yes"/>
      <point x="411" y="697"/>
      <point x="405" y="700"/>
      <point x="397" y="706" type="curve" smooth="yes"/>
      <point x="340" y="749"/>
      <point x="297" y="783"/>
      <point x="267" y="808" type="curve" smooth="yes"/>
      <point x="258" y="816"/>
      <point x="254" y="823"/>
      <point x="254" y="828" type="curve" smooth="yes"/>
      <point x="254" y="839"/>
      <point x="293" y="850"/>
      <point x="314" y="850" type="curve" smooth="yes"/>
      <point x="325" y="850"/>
      <point x="333" y="846"/>
      <point x="339" y="837" type="curve" smooth="yes"/>
      <point x="394" y="758"/>
      <point x="421" y="713"/>
      <point x="421" y="703" type="curve" smooth="yes"/>
    </contour>
    <contour>
      <point x="621" y="497"/>
      <point x="530" y="625"/>
      <point x="381" y="625" type="curve" smooth="yes"/>
      <point x="232" y="625"/>
      <point x="142" y="502"/>
      <point x="142" y="340" type="curve" smooth="yes"/>
      <point x="142" y="178"/>
      <point x="251" y="25"/>
      <point x="396" y="25" type="curve" smooth="yes"/>
      <point x="541" y="25"/>
      <point x="621" y="128"/>
      <point x="621" y="313" type="curve" smooth="yes"/>
    </contour>
    <contour>
      <point x="45" y="444"/>
      <point x="95" y="550"/>
      <point x="202" y="615" type="curve" smooth="yes"/>
      <point x="255" y="648"/>
      <point x="318" y="664"/>
      <point x="390" y="664" type="curve" smooth="yes"/>
      <point x="569" y="664"/>
      <point x="718" y="527"/>
      <point x="718" y="335" type="curve" smooth="yes"/>
      <point x="718" y="241"/>
      <point x="689" y="160"/>
      <point x="632" y="93" type="curve" smooth="yes"/>
      <point x="577" y="28"/>
      <point x="487" y="-14"/>
      <point x="382" y="-14" type="curve" smooth="yes"/>
      <point x="202" y="-14"/>
      <point x="45" y="133"/>
      <point x="45" y="320" type="curve" smooth="yes"/>
    </contour>
  </outline>
</glyph>
<glyph name="Ocircumflex" format="1">
  <advance width="763"/>
  <unicode hex="00D4"/>
  <outline>
    <contour>
      <point x="342" y="739"/>
      <point x="265" y="701"/>
      <point x="249" y="701" type="curve" smooth="yes"/>
      <point x="241" y="701"/>
      <point x="237" y="704"/>
      <point x="237" y="711" type="curve" smooth="yes"/>
      <point x="237" y="715"/>
      <point x="239" y="719"/>
      <point x="244" y="723" type="curve"/>
      <point x="342" y="811" type="line" smooth="yes"/>
      <point x="359" y="826"/>
      <point x="372" y="833"/>
      <point x="383" y="833" type="curve" smooth="yes"/>
      <point x="394" y="833"/>
      <point x="407" y="826"/>
      <point x="424" y="811" type="curve" smooth="yes"/>
      <point x="522" y="723" type="line"/>
      <point x="526" y="720"/>
      <point x="528" y="716"/>
      <point x="528" y="711" type="curve" smooth="yes"/>
      <point x="528" y="704"/>
      <point x="524" y="700"/>
      <point x="517" y="700" type="curve" smooth="yes"/>
      <point x="501" y="700"/>
      <point x="423" y="739"/>
      <point x="400" y="752" type="curve"/>
      <point x="389" y="759"/>
      <point x="380" y="760"/>
      <point x="373" y="756" type="curve" smooth="yes"/>
    </contour>
    <contour>
      <point x="621" y="497"/>
      <point x="530" y="625"/>
      <point x="381" y="625" type="curve" smooth="yes"/>
      <point x="232" y="625"/>
      <point x="142" y="502"/>
      <point x="142" y="340" type="curve" smooth="yes"/>
      <point x="142" y="178"/>
      <point x="251" y="25"/>
      <point x="396" y="25" type="curve" smooth="yes"/>
      <point x="541" y="25"/>
      <point x="621" y="128"/>
      <point x="621" y="313" type="curve" smooth="yes"/>
    </contour>
    <contour>
      <point x="45" y="444"/>
      <point x="95" y="550"/>
      <point x="202" y="615" type="curve" smooth="yes"/>
      <point x="255" y="648"/>
      <point x="318" y="664"/>
      <point x="390" y="664" type="curve" smooth="yes"/>
      <point x="569" y="664"/>
      <point x="718" y="527"/>
      <point x="718" y="335" type="curve" smooth="yes"/>
      <point x="718" y="241"/>
      <point x="689" y="160"/>
      <point x="632" y="93" type="curve" smooth="yes"/>
      <point x="577" y="28"/>
      <point x="487" y="-14"/>
      <point x="382" y="-14" type="curve" smooth="yes"/>
      <point x="202" y="-14"/>
      <point x="45" y="133"/>
      <point x="45" y="320" type="curve" smooth="yes"/>
    </contour>
  </outline>
</glyph>
<glyph name="Oslash" format="1">
  <advance width="773"/>
  <unicode hex="00D8"/>
  <outline>
    <contour>
      <point x="239" y="625"/>
      <point x="147" y="498"/>
      <point x="147" y="351" type="curve" smooth="yes"/>
      <point x="147" y="277"/>
      <point x="162" y="214"/>
      <point x="191" y="161" type="curve"/>
      <point x="568" y="529" type="line"/>
      <point x="525" y="593"/>
      <point x="462" y="625"/>
      <point x="380" y="625" type="curve" smooth="yes"/>
    </contour>
    <contour>
      <point x="86" y="-11" type="line" smooth="yes"/>
      <point x="84" y="-13"/>
      <point x="80" y="-14"/>
      <point x="75" y="-14" type="curve" smooth="yes"/>
      <point x="63" y="-14"/>
      <point x="49" y="-4"/>
      <point x="49" y="8" type="curve" smooth="yes"/>
      <point x="49" y="13"/>
      <point x="52" y="19"/>
      <point x="59" y="26" type="curve" smooth="yes"/>
      <point x="134" y="100" type="line"/>
      <point x="78" y="163"/>
      <point x="50" y="236"/>
      <point x="50" y="320" type="curve" smooth="yes"/>
      <point x="50" y="444"/>
      <point x="100" y="550"/>
      <point x="207" y="615" type="curve" smooth="yes"/>
      <point x="260" y="648"/>
      <point x="323" y="664"/>
      <point x="395" y="664" type="curve" smooth="yes"/>
      <point x="482" y="664"/>
      <point x="556" y="636"/>
      <point x="619" y="579" type="curve"/>
      <point x="699" y="658" type="line" smooth="yes"/>
      <point x="706" y="665"/>
      <point x="726" y="665"/>
      <point x="726" y="644" type="curve" smooth="yes"/>
      <point x="726" y="633"/>
      <point x="724" y="626"/>
      <point x="719" y="621" type="curve" smooth="yes"/>
      <point x="647" y="549" type="line"/>
      <point x="698" y="490"/>
      <point x="723" y="418"/>
      <point x="723" y="335" type="curve" smooth="yes"/>
      <point x="723" y="241"/>
      <point x="695" y="160"/>
      <point x="638" y="93" type="curve" smooth="yes"/>
      <point x="582" y="28"/>
      <point x="492" y="-14"/>
      <point x="387" y="-14" type="curve" smooth="yes"/>
      <point x="304" y="-14"/>
      <point x="231" y="14"/>
      <point x="166" y="69" type="curve"/>
    </contour>
    <contour>
      <point x="216" y="123" type="line"/>
      <point x="266" y="58"/>
      <point x="328" y="25"/>
      <point x="401" y="25" type="curve" smooth="yes"/>
      <point x="547" y="25"/>
      <point x="626" y="134"/>
      <point x="626" y="296" type="curve" smooth="yes"/>
      <point x="626" y="377"/>
      <point x="614" y="442"/>
      <point x="589" y="492" type="curve"/>
    </contour>
  </outline>
</glyph>
<glyph name="Thorn" format="1">
  <advance width="559"/>
  <unicode hex="00DE"/>
  <outline>
    <contour>
      <point x="177" y="650" type="line"/>
      <point x="296" y="653" type="line" smooth="yes"/>
      <point x="315" y="653"/>
      <point x="325" y="649"/>
      <point x="325" y="642" type="curve" smooth="yes"/>
      <point x="325" y="633"/>
      <point x="313" y="626"/>
      <point x="289" y="622" type="curve" smooth="yes"/>
      <point x="240" y="613"/>
      <point x="214" y="594"/>
      <point x="214" y="549" type="curve" smooth="yes"/>
      <point x="214" y="532" type="line" smooth="yes"/>
      <point x="214" y="519"/>
      <point x="216" y="512"/>
      <point x="220" y="512" type="curve" smooth="yes"/>
      <point x="221" y="512"/>
      <point x="225" y="513"/>
      <point x="232" y="514" type="curve"/>
      <point x="243" y="517" type="line" smooth="yes"/>
      <point x="261" y="522"/>
      <point x="285" y="524"/>
      <point x="315" y="524" type="curve" smooth="yes"/>
      <point x="431" y="524"/>
      <point x="518" y="460"/>
      <point x="518" y="347" type="curve" smooth="yes"/>
      <point x="518" y="299"/>
      <point x="482" y="218"/>
      <point x="439" y="186" type="curve" smooth="yes"/>
      <point x="396" y="153"/>
      <point x="316" y="134"/>
      <point x="256" y="134" type="curve"/>
      <point x="222" y="137" type="line"/>
      <point x="217" y="137"/>
      <point x="214" y="134"/>
      <point x="214" y="128" type="curve" smooth="yes"/>
      <point x="214" y="96" type="line" smooth="yes"/>
      <point x="214" y="57"/>
      <point x="240" y="33"/>
      <point x="293" y="24" type="curve" smooth="yes"/>
      <point x="315" y="20"/>
      <point x="326" y="14"/>
      <point x="326" y="7" type="curve" smooth="yes"/>
      <point x="326" y="-1"/>
      <point x="316" y="-5"/>
      <point x="297" y="-5" type="curve"/>
      <point x="180" y="0" type="line"/>
      <point x="51" y="-5" type="line"/>
      <point x="32" y="-5"/>
      <point x="22" y="-1"/>
      <point x="22" y="7" type="curve" smooth="yes"/>
      <point x="22" y="14"/>
      <point x="34" y="20"/>
      <point x="59" y="25" type="curve" smooth="yes"/>
      <point x="107" y="33"/>
      <point x="134" y="54"/>
      <point x="134" y="99" type="curve" smooth="yes"/>
      <point x="134" y="549" type="line" smooth="yes"/>
      <point x="134" y="593"/>
      <point x="123" y="614"/>
      <point x="78" y="622" type="curve" smooth="yes"/>
      <point x="55" y="626"/>
      <point x="44" y="633"/>
      <point x="44" y="642" type="curve" smooth="yes"/>
      <point x="44" y="649"/>
      <point x="54" y="653"/>
      <point x="73" y="653" type="curve" smooth="yes"/>
    </contour>
    <contour>
      <point x="213" y="183" type="line" smooth="yes"/>
      <point x="213" y="179"/>
      <point x="216" y="175"/>
      <point x="222" y="172" type="curve"/>
      <point x="231" y="166"/>
      <point x="246" y="163"/>
      <point x="265" y="163" type="curve" smooth="yes"/>
      <point x="348" y="163"/>
      <point x="426" y="203"/>
      <point x="426" y="335" type="curve" smooth="yes"/>
      <point x="426" y="416"/>
      <point x="372" y="491"/>
      <point x="299" y="491" type="curve" smooth="yes"/>
      <point x="289" y="491" type="line" smooth="yes"/>
      <point x="260" y="491"/>
      <point x="245" y="491"/>
      <point x="228" y="482" type="curve" smooth="yes"/>
      <point x="219" y="477"/>
      <point x="215" y="471"/>
      <point x="214" y="462" type="curve"/>
      <point x="213" y="382"/>
      <point x="212" y="328"/>
      <point x="212" y="300" type="curve" smooth="yes"/>
    </contour>
  </outline>
</glyph>
<glyph name="atilde" format="1">
  <advance width="399"/>
  <unicode hex="00E3"/>
  <outline>
    <contour>
      <point x="136" y="507" type="line"/>
      <point x="126" y="507"/>
      <point x="114" y="501"/>
      <point x="101" y="489" type="curve"/>
      <point x="88" y="476"/>
      <point x="80" y="470"/>
      <point x="79" y="470" type="curve" smooth="yes"/>
      <point x="70" y="470"/>
      <point x="65" y="477"/>
      <point x="65" y="490" type="curve" smooth="yes"/>
      <point x="65" y="503"/>
      <point x="130" y="574"/>
      <point x="153" y="574" type="curve"/>
      <point x="260" y="566" type="line"/>
      <point x="274" y="566"/>
      <point x="287" y="572"/>
      <point x="299" y="583" type="curve"/>
      <point x="310" y="594"/>
      <point x="316" y="600"/>
      <point x="317" y="600" type="curve" smooth="yes"/>
      <point x="328" y="600"/>
      <point x="333" y="594"/>
      <point x="333" y="583" type="curve" smooth="yes"/>
      <point x="333" y="570"/>
      <point x="271" y="500"/>
      <point x="248" y="500" type="curve"/>
    </contour>
    <contour>
      <point x="115" y="52"/>
      <point x="139" y="32"/>
      <point x="170" y="32" type="curve" smooth="yes"/>
      <point x="201" y="32"/>
      <point x="235" y="58"/>
      <point x="236" y="99" type="curve" smooth="yes"/>
      <point x="238" y="148" type="line" smooth="yes"/>
      <point x="239" y="162"/>
      <point x="236" y="169"/>
      <point x="229" y="169" type="curve" smooth="yes"/>
      <point x="224" y="169"/>
      <point x="220" y="168"/>
      <point x="215" y="166" type="curve"/>
      <point x="148" y="143"/>
      <point x="115" y="117"/>
      <point x="115" y="87" type="curve" smooth="yes"/>
    </contour>
    <contour>
      <point x="117" y="300" type="line"/>
      <point x="117" y="288"/>
      <point x="63" y="265"/>
      <point x="50" y="265" type="curve" smooth="yes"/>
      <point x="43" y="265"/>
      <point x="40" y="268"/>
      <point x="40" y="274" type="curve" smooth="yes"/>
      <point x="40" y="319"/>
      <point x="95" y="362"/>
      <point x="151" y="392" type="curve" smooth="yes"/>
      <point x="179" y="407"/>
      <point x="205" y="414"/>
      <point x="229" y="414" type="curve" smooth="yes"/>
      <point x="276" y="414"/>
      <point x="312" y="374"/>
      <point x="311" y="325" type="curve" smooth="yes"/>
      <point x="306" y="109" type="line"/>
      <point x="306" y="103" type="line" smooth="yes"/>
      <point x="306" y="56"/>
      <point x="318" y="32"/>
      <point x="342" y="32" type="curve" smooth="yes"/>
      <point x="359" y="32"/>
      <point x="372" y="37"/>
      <point x="382" y="46" type="curve"/>
      <point x="387" y="51"/>
      <point x="398" y="45"/>
      <point x="398" y="37" type="curve" smooth="yes"/>
      <point x="398" y="36" type="line"/>
      <point x="390" y="19"/>
      <point x="350" y="-14"/>
      <point x="318" y="-14" type="curve" smooth="yes"/>
      <point x="285" y="-14"/>
      <point x="262" y="8"/>
      <point x="253" y="25" type="curve" smooth="yes"/>
      <point x="248" y="34"/>
      <point x="245" y="38"/>
      <point x="244" y="38" type="curve" smooth="yes"/>
      <point x="241" y="38"/>
      <point x="235" y="34"/>
      <point x="226" y="25" type="curve"/>
      <point x="207" y="8"/>
      <point x="168" y="-14"/>
      <point x="124" y="-14" type="curve" smooth="yes"/>
      <point x="79" y="-14"/>
      <point x="35" y="26"/>
      <point x="35" y="65" type="curve" smooth="yes"/>
      <point x="35" y="105"/>
      <point x="59" y="135"/>
      <point x="108" y="155" type="curve" smooth="yes"/>
      <point x="210" y="197" type="line" smooth="yes"/>
      <point x="235" y="208"/>
      <point x="237" y="210"/>
      <point x="238" y="237" type="curve" smooth="yes"/>
      <point x="240" y="299" type="line"/>
      <point x="240" y="301" type="line" smooth="yes"/>
      <point x="240" y="336"/>
      <point x="214" y="365"/>
      <point x="186" y="365" type="curve" smooth="yes"/>
      <point x="157" y="365"/>
      <point x="128" y="347"/>
      <point x="121" y="335" type="curve"/>
      <point x="118" y="329"/>
      <point x="116" y="322"/>
      <point x="116" y="314" type="curve"/>
    </contour>
  </outline>
</glyph>
<glyph name="aring" format="1">
  <advance width="399"/>
  <unicode hex="00E5"/>
  <outline>
    <contour>
      <point x="153" y="639"/>
      <point x="173" y="647"/>
      <point x="195" y="647" type="curve" smooth="yes"/>
      <point x="239" y="647"/>
      <point x="276" y="614"/>
      <point x="276" y="567" type="curve" smooth="yes"/>
      <point x="276" y="519"/>
      <point x="234" y="480"/>
      <point x="190" y="480" type="curve" smooth="yes"/>
      <point x="145" y="480"/>
      <point x="108" y="519"/>
      <point x="108" y="563" type="curve" smooth="yes"/>
      <point x="108" y="585"/>
      <point x="117" y="605"/>
      <point x="135" y="622" type="curve" smooth="yes"/>
    </contour>
    <contour>
      <point x="149" y="535"/>
      <point x="169" y="506"/>
      <point x="196" y="506" type="curve" smooth="yes"/>
      <point x="222" y="506"/>
      <point x="235" y="525"/>
      <point x="235" y="562" type="curve" smooth="yes"/>
      <point x="235" y="591"/>
      <point x="213" y="620"/>
      <point x="186" y="620" type="curve" smooth="yes"/>
      <point x="161" y="620"/>
      <point x="149" y="603"/>
      <point x="149" y="568" type="curve" smooth="yes"/>
    </contour>
    <contour>
      <point x="115" y="52"/>
      <point x="139" y="32"/>
      <point x="170" y="32" type="curve" smooth="yes"/>
      <point x="201" y="32"/>
      <point x="235" y="58"/>
      <point x="236" y="99" type="curve" smooth="yes"/>
      <point x="238" y="148" type="line" smooth="yes"/>
      <point x="239" y="162"/>
      <point x="236" y="169"/>
      <point x="229" y="169" type="curve" smooth="yes"/>
      <point x="224" y="169"/>
      <point x="220" y="168"/>
      <point x="215" y="166" type="curve"/>
      <point x="148" y="143"/>
      <point x="115" y="117"/>
      <point x="115" y="87" type="curve" smooth="yes"/>
    </contour>
    <contour>
      <point x="117" y="300" type="line"/>
      <point x="117" y="288"/>
      <point x="63" y="265"/>
      <point x="50" y="265" type="curve" smooth="yes"/>
      <point x="43" y="265"/>
      <point x="40" y="268"/>
      <point x="40" y="274" type="curve" smooth="yes"/>
      <point x="40" y="319"/>
      <point x="95" y="362"/>
      <point x="151" y="392" type="curve" smooth="yes"/>
      <point x="179" y="407"/>
      <point x="205" y="414"/>
      <point x="229" y="414" type="curve" smooth="yes"/>
      <point x="276" y="414"/>
      <point x="312" y="374"/>
      <point x="311" y="325" type="curve" smooth="yes"/>
      <point x="306" y="109" type="line"/>
      <point x="306" y="103" type="line" smooth="yes"/>
      <point x="306" y="56"/>
      <point x="318" y="32"/>
      <point x="342" y="32" type="curve" smooth="yes"/>
      <point x="359" y="32"/>
      <point x="372" y="37"/>
      <point x="382" y="46" type="curve"/>
      <point x="387" y="51"/>
      <point x="398" y="45"/>
      <point x="398" y="37" type="curve" smooth="yes"/>
      <point x="398" y="36" type="line"/>
      <point x="390" y="19"/>
      <point x="350" y="-14"/>
      <point x="318" y="-14" type="curve" smooth="yes"/>
      <point x="285" y="-14"/>
      <point x="262" y="8"/>
      <point x="253" y="25" type="curve" smooth="yes"/>
      <point x="248" y="34"/>
      <point x="245" y="38"/>
      <point x="244" y="38" type="curve" smooth="yes"/>
      <point x="241" y="38"/>
      <point x="235" y="34"/>
      <point x="226" y="25" type="curve"/>
      <point x="207" y="8"/>
      <point x="168" y="-14"/>
      <point x="124" y="-14" type="curve" smooth="yes"/>
      <point x="79" y="-14"/>
      <point x="35" y="26"/>
      <point x="35" y="65" type="curve" smooth="yes"/>
      <point x="35" y="105"/>
      <point x="59" y="135"/>
      <point x="108" y="155" type="curve" smooth="yes"/>
      <point x="210" y="197" type="line" smooth="yes"/>
      <point x="235" y="208"/>
      <point x="237" y="210"/>
      <point x="238" y="237" type="curve" smooth="yes"/>
      <point x="240" y="299" type="line"/>
      <point x="240" y="301" type="line" smooth="yes"/>
      <point x="240" y="336"/>
      <point x="214" y="365"/>
      <point x="186" y="365" type="curve" smooth="yes"/>
      <point x="157" y="365"/>
      <point x="128" y="347"/>
      <point x="121" y="335" type="curve"/>
      <point x="118" y="329"/>
      <point x="116" y="322"/>
      <point x="116" y="314" type="curve"/>
    </contour>
  </outline>
</glyph>
<glyph name="eth" format="1">
  <advance width="487"/>
  <unicode hex="00F0"/>
  <outline>
    <contour>
      <point x="378" y="319"/>
      <point x="318" y="380"/>
      <point x="236" y="380" type="curve" smooth="yes"/>
      <point x="154" y="380"/>
      <point x="108" y="302"/>
      <point x="108" y="206" type="curve" smooth="yes"/>
      <point x="108" y="110"/>
      <point x="174" y="16"/>
      <point x="251" y="16" type="curve" smooth="yes"/>
      <point x="327" y="16"/>
      <point x="378" y="120"/>
      <point x="378" y="220" type="curve" smooth="yes"/>
    </contour>
    <contour>
      <point x="456" y="167"/>
      <point x="426" y="85"/>
      <point x="355" y="29" type="curve" smooth="yes"/>
      <point x="320" y="0"/>
      <point x="276" y="-14"/>
      <point x="224" y="-14" type="curve" smooth="yes"/>
      <point x="119" y="-14"/>
      <point x="25" y="68"/>
      <point x="25" y="189" type="curve" smooth="yes"/>
      <point x="25" y="309"/>
      <point x="128" y="414"/>
      <point x="251" y="414" type="curve" smooth="yes"/>
      <point x="284" y="414"/>
      <point x="314" y="406"/>
      <point x="343" y="391" type="curve"/>
      <point x="352" y="387"/>
      <point x="354" y="389"/>
      <point x="351" y="400" type="curve" smooth="yes"/>
      <point x="332" y="469"/>
      <point x="310" y="520"/>
      <point x="283" y="552" type="curve"/>
      <point x="128" y="472" type="line" smooth="yes"/>
      <point x="120" y="468"/>
      <point x="114" y="475"/>
      <point x="114" y="480" type="curve" smooth="yes"/>
      <point x="114" y="501"/>
      <point x="117" y="512"/>
      <point x="122" y="515" type="curve"/>
      <point x="254" y="584" type="line"/>
      <point x="202" y="633"/>
      <point x="145" y="665"/>
      <point x="84" y="678" type="curve" smooth="yes"/>
      <point x="71" y="681"/>
      <point x="64" y="686"/>
      <point x="64" y="693" type="curve" smooth="yes"/>
      <point x="64" y="701"/>
      <point x="73" y="705"/>
      <point x="90" y="705" type="curve" smooth="yes"/>
      <point x="153" y="705"/>
      <point x="237" y="669"/>
      <point x="309" y="612" type="curve"/>
      <point x="410" y="665" type="line"/>
      <point x="419" y="672"/>
      <point x="434" y="673"/>
      <point x="435" y="664" type="curve"/>
      <point x="435" y="642"/>
      <point x="429" y="628"/>
      <point x="417" y="622" type="curve" smooth="yes"/>
      <point x="342" y="583" type="line"/>
      <point x="418" y="502"/>
      <point x="456" y="391"/>
      <point x="456" y="250" type="curve" smooth="yes"/>
    </contour>
  </outline>
</glyph>
<glyph name="ograve" format="1">
  <advance width="495"/>
  <unicode hex="00F2"/>
  <outline>
    <contour>
      <point x="251" y="537"/>
      <point x="278" y="484"/>
      <point x="278" y="473" type="curve" smooth="yes"/>
      <point x="278" y="462"/>
      <point x="275" y="456"/>
      <point x="269" y="456" type="curve" smooth="yes"/>
      <point x="262" y="456"/>
      <point x="251" y="465"/>
      <point x="234" y="484" type="curve" smooth="yes"/>
      <point x="200" y="520"/>
      <point x="121" y="614"/>
      <point x="121" y="626" type="curve" smooth="yes"/>
      <point x="121" y="641"/>
      <point x="137" y="649"/>
      <point x="170" y="649" type="curve" smooth="yes"/>
      <point x="181" y="649"/>
      <point x="190" y="643"/>
      <point x="197" y="631" type="curve" smooth="yes"/>
    </contour>
    <contour>
      <point x="157" y="383"/>
      <point x="117" y="325"/>
      <point x="117" y="210" type="curve" smooth="yes"/>
      <point x="117" y="107"/>
      <point x="178" y="16"/>
      <point x="255" y="16" type="curve" smooth="yes"/>
      <point x="355" y="16"/>
      <point x="378" y="84"/>
      <point x="378" y="187" type="curve" smooth="yes"/>
      <point x="378" y="290"/>
      <point x="318" y="383"/>
      <point x="237" y="383" type="curve" smooth="yes"/>
    </contour>
    <contour>
      <point x="35" y="302"/>
      <point x="135" y="414"/>
      <point x="252" y="414" type="curve" smooth="yes"/>
      <point x="369" y="414"/>
      <point x="460" y="324"/>
      <point x="460" y="207" type="curve" smooth="yes"/>
      <point x="460" y="90"/>
      <point x="377" y="-14"/>
      <point x="234" y="-14" type="curve" smooth="yes"/>
      <point x="121" y="-14"/>
      <point x="35" y="71"/>
      <point x="35" y="187" type="curve" smooth="yes"/>
    </contour>
  </outline>
</glyph>
<glyph name="odieresis" format="1">
  <advance width="495"/>
  <unicode hex="00F6"/>
  <outline>
    <contour>
      <point x="315" y="588"/>
      <point x="326" y="593"/>
      <point x="339" y="593" type="curve" smooth="yes"/>
      <point x="364" y="593"/>
      <point x="389" y="568"/>
      <point x="389" y="543" type="curve" smooth="yes"/>
      <point x="389" y="518"/>
      <point x="364" y="493"/>
      <point x="339" y="493" type="curve" smooth="yes"/>
      <point x="314" y="493"/>
      <point x="289" y="518"/>
      <point x="289" y="543" type="curve" smooth="yes"/>
      <point x="289" y="556"/>
      <point x="294" y="567"/>
      <point x="305" y="578" type="curve" smooth="yes"/>
    </contour>
    <contour>
      <point x="138" y="588"/>
      <point x="149" y="593"/>
      <point x="162" y="593" type="curve" smooth="yes"/>
      <point x="187" y="593"/>
      <point x="212" y="568"/>
      <point x="212" y="543" type="curve" smooth="yes"/>
      <point x="212" y="518"/>
      <point x="187" y="493"/>
      <point x="162" y="493" type="curve" smooth="yes"/>
      <point x="137" y="493"/>
      <point x="112" y="518"/>
      <point x="112" y="543" type="curve" smooth="yes"/>
      <point x="112" y="556"/>
      <point x="117" y="567"/>
      <point x="128" y="578" type="curve" smooth="yes"/>
    </contour>
    <contour>
      <point x="157" y="383"/>
      <point x="117" y="325"/>
      <point x="117" y="210" type="curve" smooth="yes"/>
      <point x="117" y="107"/>
      <point x="178" y="16"/>
      <point x="255" y="16" type="curve" smooth="yes"/>
      <point x="355" y="16"/>
      <point x="378" y="84"/>
      <point x="378" y="187" type="curve" smooth="yes"/>
      <point x="378" y="290"/>
      <point x="318" y="383"/>
      <point x="237" y="383" type="curve" smooth="yes"/>
    </contour>
    <contour>
      <point x="35" y="302"/>
      <point x="135" y="414"/>
      <point x="252" y="414" type="curve" smooth="yes"/>
      <point x="369" y="414"/>
      <point x="460" y="324"/>
      <point x="460" y="207" type="curve" smooth="yes"/>
      <point x="460" y="90"/>
      <point x="377" y="-14"/>
      <point x="234" y="-14" type="curve" smooth="yes"/>
      <point x="121" y="-14"/>
      <point x="35" y="71"/>
      <point x="35" y="187" type="curve" smooth="yes"/>
    </contour>
  </outline>
</glyph>
<glyph name="oslash" format="1">
  <advance width="485"/>
  <unicode hex="00F8"/>
  <outline>
    <contour>
      <point x="338" y="316" type="line"/>
      <point x="310" y="359"/>
      <point x="276" y="380"/>
      <point x="237" y="380" type="curve" smooth="yes"/>
      <point x="158" y="380"/>
      <point x="113" y="327"/>
      <point x="113" y="210" type="curve" smooth="yes"/>
      <point x="113" y="176"/>
      <point x="119" y="145"/>
      <point x="131" y="117" type="curve"/>
    </contour>
    <contour>
      <point x="56" y="-12" type="line" smooth="yes"/>
      <point x="54" y="-14"/>
      <point x="51" y="-15"/>
      <point x="47" y="-15" type="curve" smooth="yes"/>
      <point x="38" y="-15"/>
      <point x="25" y="-5"/>
      <point x="25" y="8" type="curve" smooth="yes"/>
      <point x="25" y="14"/>
      <point x="28" y="20"/>
      <point x="35" y="25" type="curve"/>
      <point x="75" y="63" type="line"/>
      <point x="45" y="102"/>
      <point x="30" y="143"/>
      <point x="30" y="186" type="curve" smooth="yes"/>
      <point x="30" y="311"/>
      <point x="130" y="414"/>
      <point x="242" y="414" type="curve" smooth="yes"/>
      <point x="298" y="414"/>
      <point x="346" y="396"/>
      <point x="385" y="361" type="curve"/>
      <point x="437" y="411" type="line" smooth="yes"/>
      <point x="440" y="414"/>
      <point x="443" y="415"/>
      <point x="448" y="415" type="curve" smooth="yes"/>
      <point x="457" y="415"/>
      <point x="462" y="410"/>
      <point x="462" y="399" type="curve" smooth="yes"/>
      <point x="462" y="388"/>
      <point x="458" y="380"/>
      <point x="451" y="374" type="curve"/>
      <point x="411" y="335" type="line"/>
      <point x="440" y="297"/>
      <point x="455" y="256"/>
      <point x="455" y="213" type="curve" smooth="yes"/>
      <point x="455" y="88"/>
      <point x="373" y="-14"/>
      <point x="230" y="-14" type="curve" smooth="yes"/>
      <point x="184" y="-14"/>
      <point x="142" y="2"/>
      <point x="103" y="34" type="curve"/>
    </contour>
    <contour>
      <point x="150" y="79" type="line"/>
      <point x="177" y="37"/>
      <point x="210" y="16"/>
      <point x="251" y="16" type="curve" smooth="yes"/>
      <point x="350" y="16"/>
      <point x="373" y="88"/>
      <point x="373" y="173" type="curve" smooth="yes"/>
      <point x="373" y="215"/>
      <point x="367" y="251"/>
      <point x="356" y="281" type="curve"/>
    </contour>
  </outline>
</glyph>
<glyph name="thorn" format="1">
  <advance width="505"/>
  <unicode hex="00FE"/>
  <outline>
    <contour>
      <point x="322" y="17"/>
      <point x="367" y="61"/>
      <point x="387" y="110" type="curve" smooth="yes"/>
      <point x="396" y="134"/>
      <point x="401" y="163"/>
      <point x="401" y="197" type="curve" smooth="yes"/>
      <point x="401" y="264"/>
      <point x="380" y="317"/>
      <point x="348" y="340" type="curve" smooth="yes"/>
      <point x="320" y="359"/>
      <point x="291" y="369"/>
      <point x="262" y="369" type="curve" smooth="yes"/>
      <point x="202" y="369"/>
      <point x="157" y="341"/>
      <point x="153" y="269" type="curve"/>
      <point x="153" y="205" type="line" smooth="yes"/>
      <point x="153" y="113"/>
      <point x="149" y="70"/>
      <point x="181" y="40" type="curve" smooth="yes"/>
      <point x="197" y="25"/>
      <point x="227" y="17"/>
      <point x="271" y="17" type="curve" smooth="yes"/>
    </contour>
    <contour>
      <point x="154" y="386" type="line" smooth="yes"/>
      <point x="154" y="361"/>
      <point x="154" y="349"/>
      <point x="155" y="348" type="curve"/>
      <point x="180" y="373"/>
      <point x="261" y="414"/>
      <point x="317" y="414" type="curve" smooth="yes"/>
      <point x="416" y="414"/>
      <point x="481" y="325"/>
      <point x="481" y="225" type="curve" smooth="yes"/>
      <point x="481" y="102"/>
      <point x="379" y="-14"/>
      <point x="256" y="-14" type="curve" smooth="yes"/>
      <point x="227" y="-14"/>
      <point x="177" y="1"/>
      <point x="158" y="18" type="curve"/>
      <point x="155" y="18"/>
      <point x="152" y="-22"/>
      <point x="152" y="-33" type="curve" smooth="yes"/>
      <point x="152" y="-219" type="line" smooth="yes"/>
      <point x="152" y="-236"/>
      <point x="166" y="-248"/>
      <point x="174" y="-251" type="curve"/>
      <point x="195" y="-258" type="line" smooth="yes"/>
      <point x="210" y="-263"/>
      <point x="218" y="-269"/>
      <point x="218" y="-275" type="curve" smooth="yes"/>
      <point x="218" y="-282"/>
      <point x="211" y="-285"/>
      <point x="198" y="-285" type="curve" smooth="yes"/>
      <point x="195" y="-285" type="line"/>
      <point x="117" y="-280" type="line"/>
      <point x="39" y="-285" type="line"/>
      <point x="36" y="-285" type="line" smooth="yes"/>
      <point x="23" y="-285"/>
      <point x="16" y="-282"/>
      <point x="16" y="-275" type="curve" smooth="yes"/>
      <point x="16" y="-263"/>
      <point x="52" y="-254"/>
      <point x="60" y="-251" type="curve" smooth="yes"/>
      <point x="68" y="-248"/>
      <point x="82" y="-236"/>
      <point x="82" y="-219" type="curve" smooth="yes"/>
      <point x="85" y="-38"/>
      <point x="86" y="117"/>
      <point x="86" y="245" type="curve" smooth="yes"/>
      <point x="86" y="372"/>
      <point x="85" y="479"/>
      <point x="83" y="566" type="curve" smooth="yes"/>
      <point x="82" y="590"/>
      <point x="64" y="632"/>
      <point x="36" y="639" type="curve"/>
      <point x="31" y="640"/>
      <point x="28" y="645"/>
      <point x="28" y="652" type="curve" smooth="yes"/>
      <point x="28" y="659"/>
      <point x="30" y="663"/>
      <point x="35" y="664" type="curve" smooth="yes"/>
      <point x="63" y="670"/>
      <point x="101" y="683"/>
      <point x="149" y="704" type="curve"/>
      <point x="151" y="705" type="line"/>
      <point x="156" y="705"/>
      <point x="159" y="701"/>
      <point x="159" y="694" type="curve" smooth="yes"/>
    </contour>
  </outline>
</glyph>
<glyph name="Ccircumflex" format="1">
  <advance width="640"/>
  <unicode hex="0108"/>
  <outline>
    <contour>
      <point x="340" y="739"/>
      <point x="263" y="701"/>
      <point x="247" y="701" type="curve" smooth="yes"/>
      <point x="239" y="701"/>
      <point x="235" y="704"/>
      <point x="235" y="711" type="curve" smooth="yes"/>
      <point x="235" y="715"/>
      <point x="237" y="719"/>
      <point x="242" y="723" type="curve"/>
      <point x="340" y="811" type="line" smooth="yes"/>
      <point x="357" y="826"/>
      <point x="370" y="833"/>
      <point x="381" y="833" type="curve" smooth="yes"/>
      <point x="392" y="833"/>
      <point x="405" y="826"/>
      <point x="422" y="811" type="curve" smooth="yes"/>
      <point x="520" y="723" type="line"/>
      <point x="524" y="720"/>
      <point x="526" y="716"/>
      <point x="526" y="711" type="curve" smooth="yes"/>
      <point x="526" y="704"/>
      <point x="522" y="700"/>
      <point x="515" y="700" type="curve" smooth="yes"/>
      <point x="499" y="700"/>
      <point x="421" y="739"/>
      <point x="398" y="752" type="curve"/>
      <point x="387" y="759"/>
      <point x="378" y="760"/>
      <point x="371" y="756" type="curve" smooth="yes"/>
    </contour>
    <contour>
      <point x="614" y="88"/>
      <point x="603" y="51"/>
      <point x="586" y="26" type="curve"/>
      <point x="583" y="21"/>
      <point x="564" y="13"/>
      <point x="528" y="2" type="curve" smooth="yes"/>
      <point x="491" y="-9"/>
      <point x="438" y="-15"/>
      <point x="369" y="-15" type="curve" smooth="yes"/>
      <point x="189" y="-15"/>
      <point x="46" y="138"/>
      <point x="46" y="326" type="curve" smooth="yes"/>
      <point x="46" y="513"/>
      <point x="213" y="663"/>
      <point x="410" y="663" type="curve" smooth="yes"/>
      <point x="457" y="663"/>
      <point x="492" y="659"/>
      <point x="516" y="651" type="curve" smooth="yes"/>
      <point x="540" y="643"/>
      <point x="565" y="637"/>
      <point x="592" y="633" type="curve"/>
      <point x="607" y="632"/>
      <point x="612" y="560"/>
      <point x="613" y="518" type="curve" smooth="yes"/>
      <point x="614" y="497"/>
      <point x="613" y="483"/>
      <point x="612" y="478" type="curve"/>
      <point x="610" y="473"/>
      <point x="607" y="470"/>
      <point x="602" y="471" type="curve"/>
      <point x="589" y="472"/>
      <point x="580" y="485"/>
      <point x="576" y="508" type="curve"/>
      <point x="572" y="539"/>
      <point x="560" y="563"/>
      <point x="541" y="581" type="curve" smooth="yes"/>
      <point x="507" y="615"/>
      <point x="456" y="632"/>
      <point x="389" y="632" type="curve" smooth="yes"/>
      <point x="253" y="632"/>
      <point x="146" y="499"/>
      <point x="146" y="347" type="curve" smooth="yes"/>
      <point x="146" y="236"/>
      <point x="186" y="130"/>
      <point x="266" y="65" type="curve" smooth="yes"/>
      <point x="305" y="32"/>
      <point x="350" y="16"/>
      <point x="400" y="16" type="curve" smooth="yes"/>
      <point x="483" y="16"/>
      <point x="545" y="56"/>
      <point x="586" y="137" type="curve"/>
      <point x="589" y="142"/>
      <point x="593" y="146"/>
      <point x="600" y="150" type="curve"/>
      <point x="607" y="153"/>
      <point x="610" y="155"/>
      <point x="611" y="156" type="curve" smooth="yes"/>
      <point x="612" y="157"/>
      <point x="612" y="157"/>
      <point x="613" y="157" type="curve" smooth="yes"/>
      <point x="618" y="157"/>
      <point x="620" y="151"/>
      <point x="620" y="138" type="curve"/>
    </contour>
  </outline>
</glyph>
<glyph name="dcaron" format="1">
  <advance width="506"/>
  <unicode hex="010F"/>
  <outline>
    <contour>
      <point x="460" y="540"/>
      <point x="461" y="552"/>
      <point x="462" y="564" type="curve" smooth="yes"/>
      <point x="463" y="576"/>
      <point x="463" y="587"/>
      <point x="461" y="598" type="curve" smooth="yes"/>
      <point x="459" y="609"/>
      <point x="458" y="628"/>
      <point x="458" y="656" type="curve" smooth="yes"/>
      <point x="458" y="681"/>
      <point x="489" y="705"/>
      <point x="511" y="705" type="curve" smooth="yes"/>
      <point x="522" y="705"/>
      <point x="527" y="695"/>
      <point x="527" y="675" type="curve" smooth="yes"/>
      <point x="527" y="669"/>
      <point x="527" y="664"/>
      <point x="526" y="661" type="curve"/>
      <point x="517" y="600"/>
      <point x="501" y="553"/>
      <point x="476" y="520" type="curve" smooth="yes"/>
      <point x="472" y="515"/>
      <point x="468" y="512"/>
      <point x="465" y="512" type="curve" smooth="yes"/>
      <point x="462" y="512"/>
      <point x="460" y="518"/>
      <point x="460" y="529" type="curve" smooth="yes"/>
    </contour>
    <contour>
      <point x="351" y="51" type="line"/>
      <point x="351" y="57" type="line"/>
      <point x="327" y="20"/>
      <point x="280" y="-14"/>
      <point x="220" y="-14" type="curve" smooth="yes"/>
      <point x="111" y="-14"/>
      <point x="35" y="82"/>
      <point x="35" y="196" type="curve" smooth="yes"/>
      <point x="35" y="310"/>
      <point x="125" y="414"/>
      <point x="260" y="414" type="curve" smooth="yes"/>
      <point x="287" y="414"/>
      <point x="331" y="402"/>
      <point x="339" y="392" type="curve" smooth="yes"/>
      <point x="343" y="387"/>
      <point x="346" y="384"/>
      <point x="349" y="384" type="curve" smooth="yes"/>
      <point x="351" y="384"/>
      <point x="352" y="392"/>
      <point x="352" y="408" type="curve" smooth="yes"/>
      <point x="352" y="566" type="line" smooth="yes"/>
      <point x="352" y="617"/>
      <point x="338" y="631"/>
      <point x="301" y="639" type="curve" smooth="yes"/>
      <point x="296" y="640"/>
      <point x="293" y="645"/>
      <point x="293" y="652" type="curve" smooth="yes"/>
      <point x="293" y="659"/>
      <point x="295" y="663"/>
      <point x="300" y="664" type="curve" smooth="yes"/>
      <point x="326" y="670"/>
      <point x="352" y="678"/>
      <point x="378" y="689" type="curve" smooth="yes"/>
      <point x="404" y="699"/>
      <point x="419" y="704"/>
      <point x="423" y="704" type="curve" smooth="yes"/>
      <point x="426" y="704"/>
      <point x="428" y="703"/>
      <point x="429" y="700" type="curve"/>
      <point x="429" y="697"/>
      <point x="429" y="690"/>
      <point x="428" y="680" type="curve" smooth="yes"/>
      <point x="424" y="642"/>
      <point x="422" y="603"/>
      <point x="422" y="562" type="curve" smooth="yes"/>
      <point x="422" y="110" type="line" smooth="yes"/>
      <point x="422" y="67"/>
      <point x="429" y="45"/>
      <point x="443" y="45" type="curve" smooth="yes"/>
      <point x="464" y="45"/>
      <point x="479" y="46"/>
      <point x="489" y="48" type="curve" smooth="yes"/>
      <point x="499" y="50"/>
      <point x="504" y="46"/>
      <point x="504" y="36" type="curve" smooth="yes"/>
      <point x="504" y="26"/>
      <point x="499" y="21"/>
      <point x="490" y="21" type="curve"/>
      <point x="455" y="16"/>
      <point x="425" y="9"/>
      <point x="400" y="-2" type="curve" smooth="yes"/>
      <point x="374" y="-13"/>
      <point x="359" y="-19"/>
      <point x="354" y="-19" type="curve" smooth="yes"/>
      <point x="349" y="-19"/>
      <point x="346" y="-18"/>
      <point x="346" y="-15" type="curve"/>
    </contour>
    <contour>
      <point x="181" y="379"/>
      <point x="139" y="342"/>
      <point x="122" y="295" type="curve" smooth="yes"/>
      <point x="113" y="272"/>
      <point x="109" y="243"/>
      <point x="109" y="210" type="curve" smooth="yes"/>
      <point x="109" y="143"/>
      <point x="134" y="89"/>
      <point x="167" y="65" type="curve" smooth="yes"/>
      <point x="198" y="42"/>
      <point x="228" y="31"/>
      <point x="256" y="31" type="curve" smooth="yes"/>
      <point x="312" y="31"/>
      <point x="352" y="71"/>
      <point x="352" y="120" type="curve" smooth="yes"/>
      <point x="352" y="255" type="line" smooth="yes"/>
      <point x="352" y="316"/>
      <point x="302" y="379"/>
      <point x="229" y="379" type="curve" smooth="yes"/>
    </contour>
  </outline>
</glyph>
<glyph name="Dcroat" format="1">
  <advance width="754"/>
  <unicode hex="0110"/>
  <outline>
    <contour>
      <point x="376" y="30" type="line" smooth="yes"/>
      <point x="473" y="30"/>
      <point x="550" y="103"/>
      <point x="584" y="197" type="curve" smooth="yes"/>
      <point x="601" y="244"/>
      <point x="609" y="293"/>
      <point x="609" y="346" type="curve" smooth="yes"/>
      <point x="609" y="506"/>
      <point x="500" y="628"/>
      <point x="345" y="628" type="curve" smooth="yes"/>
      <point x="282" y="628"/>
      <point x="245" y="623"/>
      <point x="232" y="614" type="curve" smooth="yes"/>
      <point x="217" y="604"/>
      <point x="210" y="588"/>
      <point x="210" y="567" type="curve" smooth="yes"/>
      <point x="210" y="353" type="line"/>
      <point x="377" y="353" type="line" smooth="yes"/>
      <point x="384" y="353"/>
      <point x="391" y="347"/>
      <point x="391" y="342" type="curve"/>
      <point x="390" y="341" type="line"/>
      <point x="390" y="340"/>
      <point x="390" y="340"/>
      <point x="390" y="339" type="curve"/>
      <point x="382" y="324"/>
      <point x="372" y="317"/>
      <point x="359" y="317" type="curve" smooth="yes"/>
      <point x="210" y="317" type="line"/>
      <point x="210" y="121" type="line" smooth="yes"/>
      <point x="210" y="84"/>
      <point x="219" y="70"/>
      <point x="251" y="46" type="curve" smooth="yes"/>
      <point x="266" y="34"/>
      <point x="288" y="28"/>
      <point x="317" y="28" type="curve" smooth="yes"/>
    </contour>
    <contour>
      <point x="169" y="651" type="line"/>
      <point x="340" y="659" type="line"/>
      <point x="599" y="659"/>
      <point x="704" y="539"/>
      <point x="704" y="342" type="curve" smooth="yes"/>
      <point x="704" y="145"/>
      <point x="560" y="-7"/>
      <point x="371" y="-7" type="curve" smooth="yes"/>
      <point x="369" y="-7"/>
      <point x="342" y="-6"/>
      <point x="289" y="-3" type="curve" smooth="yes"/>
      <point x="236" y="-1"/>
      <point x="194" y="0"/>
      <point x="163" y="0" type="curve"/>
      <point x="58" y="-5" type="line"/>
      <point x="39" y="-5"/>
      <point x="29" y="-1"/>
      <point x="29" y="7" type="curve" smooth="yes"/>
      <point x="29" y="14"/>
      <point x="41" y="20"/>
      <point x="65" y="25" type="curve"/>
      <point x="112" y="33"/>
      <point x="129" y="51"/>
      <point x="129" y="99" type="curve" smooth="yes"/>
      <point x="129" y="317" type="line"/>
      <point x="60" y="317" type="line" smooth="yes"/>
      <point x="52" y="317"/>
      <point x="46" y="327"/>
      <point x="46" y="336" type="curve" smooth="yes"/>
      <point x="46" y="344"/>
      <point x="58" y="353"/>
      <point x="70" y="353" type="curve" smooth="yes"/>
      <point x="129" y="353" type="line"/>
      <point x="129" y="549" type="line" smooth="yes"/>
      <point x="129" y="596"/>
      <point x="112" y="613"/>
      <point x="65" y="622" type="curve" smooth="yes"/>
      <point x="41" y="626"/>
      <point x="29" y="633"/>
      <point x="29" y="642" type="curve" smooth="yes"/>
      <point x="29" y="649"/>
      <point x="39" y="653"/>
      <point x="58" y="653" type="curve" smooth="yes"/>
      <point x="162" y="651" type="line"/>
    </contour>
  </outline>
</glyph>
<glyph name="Eogonek" format="1">
  <advance width="535"/>
  <unicode hex="0118"/>
  <outline>
    <contour>
      <point x="413" y="337" type="line"/>
      <point x="415" y="269" type="line" smooth="yes"/>
      <point x="415" y="258"/>
      <point x="412" y="252"/>
      <point x="406" y="252" type="curve" smooth="yes"/>
      <point x="395" y="252"/>
      <point x="388" y="260"/>
      <point x="383" y="275" type="curve" smooth="yes"/>
      <point x="373" y="305"/>
      <point x="358" y="320"/>
      <point x="337" y="320" type="curve" smooth="yes"/>
      <point x="244" y="320" type="line" smooth="yes"/>
      <point x="219" y="320"/>
      <point x="210" y="315"/>
      <point x="210" y="294" type="curve" smooth="yes"/>
      <point x="210" y="102" type="line" smooth="yes"/>
      <point x="210" y="53"/>
      <point x="229" y="35"/>
      <point x="276" y="35" type="curve" smooth="yes"/>
      <point x="380" y="35" type="line" smooth="yes"/>
      <point x="451" y="35"/>
      <point x="467" y="52"/>
      <point x="498" y="116" type="curve"/>
      <point x="506" y="131"/>
      <point x="525" y="127"/>
      <point x="525" y="115" type="curve" smooth="yes"/>
      <point x="525" y="88"/>
      <point x="519" y="54"/>
      <point x="508" y="12" type="curve" smooth="yes"/>
      <point x="505" y="1"/>
      <point x="501" y="-5"/>
      <point x="494" y="-5" type="curve" smooth="yes"/>
      <point x="435" y="-5" type="line"/>
      <point x="380" y="-54"/>
      <point x="352" y="-104"/>
      <point x="352" y="-155" type="curve" smooth="yes"/>
      <point x="352" y="-190"/>
      <point x="385" y="-216"/>
      <point x="411" y="-216" type="curve" smooth="yes"/>
      <point x="437" y="-216"/>
      <point x="456" y="-207"/>
      <point x="468" y="-198" type="curve" smooth="yes"/>
      <point x="486" y="-185"/>
      <point x="497" y="-178"/>
      <point x="500" y="-176" type="curve" smooth="yes"/>
      <point x="506" y="-172"/>
      <point x="512" y="-174"/>
      <point x="512" y="-182" type="curve" smooth="yes"/>
      <point x="512" y="-225"/>
      <point x="436" y="-287"/>
      <point x="378" y="-287" type="curve" smooth="yes"/>
      <point x="320" y="-287"/>
      <point x="267" y="-237"/>
      <point x="267" y="-174" type="curve" smooth="yes"/>
      <point x="267" y="-120"/>
      <point x="312" y="-63"/>
      <point x="402" y="-4" type="curve"/>
      <point x="259" y="-1"/>
      <point x="180" y="1"/>
      <point x="167" y="1" type="curve"/>
      <point x="52" y="-5" type="line"/>
      <point x="33" y="-5"/>
      <point x="23" y="-1"/>
      <point x="23" y="7" type="curve" smooth="yes"/>
      <point x="23" y="14"/>
      <point x="35" y="20"/>
      <point x="59" y="25" type="curve"/>
      <point x="107" y="33"/>
      <point x="130" y="52"/>
      <point x="130" y="99" type="curve" smooth="yes"/>
      <point x="130" y="549" type="line" smooth="yes"/>
      <point x="130" y="596"/>
      <point x="113" y="613"/>
      <point x="66" y="622" type="curve" smooth="yes"/>
      <point x="42" y="626"/>
      <point x="30" y="633"/>
      <point x="30" y="642" type="curve" smooth="yes"/>
      <point x="30" y="649"/>
      <point x="40" y="653"/>
      <point x="59" y="653" type="curve" smooth="yes"/>
      <point x="236" y="650" type="line"/>
      <point x="458" y="653" type="line" smooth="yes"/>
      <point x="469" y="653"/>
      <point x="475" y="650"/>
      <point x="476" y="644" type="curve" smooth="yes"/>
      <point x="486" y="590"/>
      <point x="491" y="557"/>
      <point x="491" y="545" type="curve" smooth="yes"/>
      <point x="491" y="532"/>
      <point x="486" y="526"/>
      <point x="477" y="526" type="curve" smooth="yes"/>
      <point x="472" y="526"/>
      <point x="468" y="529"/>
      <point x="466" y="536" type="curve" smooth="yes"/>
      <point x="446" y="599"/>
      <point x="434" y="618"/>
      <point x="377" y="618" type="curve" smooth="yes"/>
      <point x="246" y="618" type="line" smooth="yes"/>
      <point x="233" y="618"/>
      <point x="210" y="603"/>
      <point x="210" y="586" type="curve" smooth="yes"/>
      <point x="210" y="374" type="line" smooth="yes"/>
      <point x="210" y="362"/>
      <point x="219" y="352"/>
      <point x="228" y="352" type="curve" smooth="yes"/>
      <point x="324" y="352" type="line" smooth="yes"/>
      <point x="353" y="352"/>
      <point x="374" y="365"/>
      <point x="385" y="391" type="curve"/>
      <point x="388" y="396"/>
      <point x="399" y="408"/>
      <point x="404" y="408" type="curve" smooth="yes"/>
      <point x="408" y="408"/>
      <point x="416" y="401"/>
      <point x="416" y="392" type="curve"/>
    </contour>
  </outline>
</glyph>
<glyph name="Gcircumflex" format="1">
  <advance width="729"/>
  <unicode hex="011C"/>
  <outline>
    <contour>
      <point x="359" y="739"/>
      <point x="282" y="701"/>
      <point x="266" y="701" type="curve" smooth="yes"/>
      <point x="258" y="701"/>
      <point x="254" y="704"/>
      <point x="254" y="711" type="curve" smooth="yes"/>
      <point x="254" y="715"/>
      <point x="256" y="719"/>
      <point x="261" y="723" type="curve"/>
      <point x="359" y="811" type="line" smooth="yes"/>
      <point x="376" y="826"/>
      <point x="389" y="833"/>
      <point x="400" y="833" type="curve" smooth="yes"/>
      <point x="411" y="833"/>
      <point x="424" y="826"/>
      <point x="441" y="811" type="curve" smooth="yes"/>
      <point x="539" y="723" type="line"/>
      <point x="543" y="720"/>
      <point x="545" y="716"/>
      <point x="545" y="711" type="curve" smooth="yes"/>
      <point x="545" y="704"/>
      <point x="541" y="700"/>
      <point x="534" y="700" type="curve" smooth="yes"/>
      <point x="518" y="700"/>
      <point x="440" y="739"/>
      <point x="417" y="752" type="curve"/>
      <point x="406" y="759"/>
      <point x="397" y="760"/>
      <point x="390" y="756" type="curve" smooth="yes"/>
    </contour>
    <contour>
      <point x="583" y="286" type="line"/>
      <point x="672" y="290" type="line"/>
      <point x="686" y="290"/>
      <point x="693" y="285"/>
      <point x="693" y="274" type="curve" smooth="yes"/>
      <point x="693" y="266"/>
      <point x="681" y="258"/>
      <point x="664" y="254" type="curve"/>
      <point x="627" y="243"/>
      <point x="625" y="184"/>
      <point x="625" y="132" type="curve" smooth="yes"/>
      <point x="625" y="105" type="line" smooth="yes"/>
      <point x="625" y="98"/>
      <point x="628" y="91"/>
      <point x="635" y="85" type="curve"/>
      <point x="641" y="78"/>
      <point x="644" y="74"/>
      <point x="644" y="72" type="curve" smooth="yes"/>
      <point x="644" y="61"/>
      <point x="639" y="54"/>
      <point x="630" y="53" type="curve"/>
      <point x="627" y="52"/>
      <point x="614" y="46"/>
      <point x="591" y="35" type="curve" smooth="yes"/>
      <point x="544" y="12"/>
      <point x="467" y="-14"/>
      <point x="392" y="-14" type="curve" smooth="yes"/>
      <point x="204" y="-14"/>
      <point x="45" y="127"/>
      <point x="45" y="316" type="curve" smooth="yes"/>
      <point x="45" y="505"/>
      <point x="212" y="663"/>
      <point x="413" y="663" type="curve" smooth="yes"/>
      <point x="469" y="663"/>
      <point x="620" y="637"/>
      <point x="621" y="624" type="curve"/>
      <point x="628" y="573"/>
      <point x="632" y="540"/>
      <point x="632" y="526" type="curve" smooth="yes"/>
      <point x="632" y="503"/>
      <point x="627" y="492"/>
      <point x="618" y="492" type="curve" smooth="yes"/>
      <point x="608" y="492"/>
      <point x="600" y="502"/>
      <point x="593" y="521" type="curve" smooth="yes"/>
      <point x="580" y="559"/>
      <point x="563" y="584"/>
      <point x="508" y="608" type="curve"/>
      <point x="480" y="619"/>
      <point x="445" y="625"/>
      <point x="404" y="625" type="curve" smooth="yes"/>
      <point x="253" y="625"/>
      <point x="144" y="489"/>
      <point x="144" y="317" type="curve" smooth="yes"/>
      <point x="144" y="145"/>
      <point x="265" y="23"/>
      <point x="406" y="23" type="curve" smooth="yes"/>
      <point x="519" y="23"/>
      <point x="558" y="74"/>
      <point x="558" y="137" type="curve" smooth="yes"/>
      <point x="560" y="195" type="line" smooth="yes"/>
      <point x="560" y="227"/>
      <point x="555" y="237"/>
      <point x="511" y="248" type="curve" smooth="yes"/>
      <point x="489" y="253"/>
      <point x="474" y="256"/>
      <point x="465" y="256" type="curve" smooth="yes"/>
      <point x="448" y="256"/>
      <point x="437" y="264"/>
      <point x="437" y="273" type="curve" smooth="yes"/>
      <point x="437" y="282"/>
      <point x="450" y="290"/>
      <point x="457" y="290" type="curve" smooth="yes"/>
    </contour>
  </outline>
</glyph>
<glyph name="Gcommaaccent" format="1">
  <advance width="729"/>
  <unicode hex="0122"/>
  <outline>
    <contour>
      <point x="350" y="-275"/>
      <point x="346" y="-272"/>
      <point x="346" y="-266" type="curve" smooth="yes"/>
      <point x="346" y="-261"/>
      <point x="353" y="-255"/>
      <point x="367" y="-250" type="curve" smooth="yes"/>
      <point x="394" y="-240"/>
      <point x="413" y="-206"/>
      <point x="413" y="-175" type="curve" smooth="yes"/>
      <point x="413" y="-160"/>
      <point x="403" y="-150"/>
      <point x="383" y="-145" type="curve"/>
      <point x="358" y="-140"/>
      <point x="333" y="-121"/>
      <point x="333" y="-98" type="curve" smooth="yes"/>
      <point x="333" y="-75"/>
      <point x="351" y="-57"/>
      <point x="379" y="-57" type="curve" smooth="yes"/>
      <point x="427" y="-57"/>
      <point x="467" y="-97"/>
      <point x="467" y="-161" type="curve" smooth="yes"/>
      <point x="467" y="-226"/>
      <point x="398" y="-275"/>
      <point x="359" y="-275" type="curve" smooth="yes"/>
    </contour>
    <contour>
      <point x="583" y="286" type="line"/>
      <point x="672" y="290" type="line"/>
      <point x="686" y="290"/>
      <point x="693" y="285"/>
      <point x="693" y="274" type="curve" smooth="yes"/>
      <point x="693" y="266"/>
      <point x="681" y="258"/>
      <point x="664" y="254" type="curve"/>
      <point x="627" y="243"/>
      <point x="625" y="184"/>
      <point x="625" y="132" type="curve" smooth="yes"/>
      <point x="625" y="105" type="line" smooth="yes"/>
      <point x="625" y="98"/>
      <point x="628" y="91"/>
      <point x="635" y="85" type="curve"/>
      <point x="641" y="78"/>
      <point x="644" y="74"/>
      <point x="644" y="72" type="curve" smooth="yes"/>
      <point x="644" y="61"/>
      <point x="639" y="54"/>
      <point x="630" y="53" type="curve"/>
      <point x="627" y="52"/>
      <point x="614" y="46"/>
      <point x="591" y="35" type="curve" smooth="yes"/>
      <point x="544" y="12"/>
      <point x="467" y="-14"/>
      <point x="392" y="-14" type="curve" smooth="yes"/>
      <point x="204" y="-14"/>
      <point x="45" y="127"/>
      <point x="45" y="316" type="curve" smooth="yes"/>
      <point x="45" y="505"/>
      <point x="212" y="663"/>
      <point x="413" y="663" type="curve" smooth="yes"/>
      <point x="469" y="663"/>
      <point x="620" y="637"/>
      <point x="621" y="624" type="curve"/>
      <point x="628" y="573"/>
      <point x="632" y="540"/>
      <point x="632" y="526" type="curve" smooth="yes"/>
      <point x="632" y="503"/>
      <point x="627" y="492"/>
      <point x="618" y="492" type="curve" smooth="yes"/>
      <point x="608" y="492"/>
      <point x="600" y="502"/>
      <point x="593" y="521" type="curve" smooth="yes"/>
      <point x="580" y="559"/>
      <point x="563" y="584"/>
      <point x="508" y="608" type="curve"/>
      <point x="480" y="619"/>
      <point x="445" y="625"/>
      <point x="404" y="625" type="curve" smooth="yes"/>
      <point x="253" y="625"/>
      <point x="144" y="489"/>
      <point x="144" y="317" type="curve" smooth="yes"/>
      <point x="144" y="145"/>
      <point x="265" y="23"/>
      <point x="406" y="23" type="curve" smooth="yes"/>
      <point x="519" y="23"/>
      <point x="558" y="74"/>
      <point x="558" y="137" type="curve" smooth="yes"/>
      <point x="560" y="195" type="line" smooth="yes"/>
      <point x="560" y="227"/>
      <point x="555" y="237"/>
      <point x="511" y="248" type="curve" smooth="yes"/>
      <point x="489" y="253"/>
      <point x="474" y="256"/>
      <point x="465" y="256" type="curve" smooth="yes"/>
      <point x="448" y="256"/>
      <point x="437" y="264"/>
      <point x="437" y="273" type="curve" smooth="yes"/>
      <point x="437" y="282"/>
      <point x="450" y="290"/>
      <point x="457" y="290" type="curve" smooth="yes"/>
    </contour>
  </outline>
</glyph>
<glyph name="Jcircumflex" format="1">
  <advance width="300"/>
  <unicode hex="0134"/>
  <outline>
    <contour>
      <point x="132" y="739"/>
      <point x="55" y="701"/>
      <point x="39" y="701" type="curve" smooth="yes"/>
      <point x="31" y="701"/>
      <point x="27" y="704"/>
      <point x="27" y="711" type="curve" smooth="yes"/>
      <point x="27" y="715"/>
      <point x="29" y="719"/>
      <point x="34" y="723" type="curve"/>
      <point x="132" y="811" type="line" smooth="yes"/>
      <point x="149" y="826"/>
      <point x="162" y="833"/>
      <point x="173" y="833" type="curve" smooth="yes"/>
      <point x="184" y="833"/>
      <point x="197" y="826"/>
      <point x="214" y="811" type="curve" smooth="yes"/>
      <point x="312" y="723" type="line"/>
      <point x="316" y="720"/>
      <point x="318" y="716"/>
      <point x="318" y="711" type="curve" smooth="yes"/>
      <point x="318" y="704"/>
      <point x="314" y="700"/>
      <point x="307" y="700" type="curve" smooth="yes"/>
      <point x="291" y="700"/>
      <point x="213" y="739"/>
      <point x="190" y="752" type="curve"/>
      <point x="179" y="759"/>
      <point x="170" y="760"/>
      <point x="163" y="756" type="curve" smooth="yes"/>
    </contour>
    <contour>
      <point x="177" y="650" type="line"/>
      <point x="271" y="653" type="line" smooth="yes"/>
      <point x="290" y="653"/>
      <point x="300" y="649"/>
      <point x="300" y="642" type="curve" smooth="yes"/>
      <point x="300" y="633"/>
      <point x="289" y="626"/>
      <point x="266" y="622" type="curve" smooth="yes"/>
      <point x="220" y="613"/>
      <point x="210" y="599"/>
      <point x="210" y="551" type="curve" smooth="yes"/>
      <point x="210" y="142" type="line" smooth="yes"/>
      <point x="210" y="41"/>
      <point x="204" y="-27"/>
      <point x="193" y="-62" type="curve" smooth="yes"/>
      <point x="180" y="-102"/>
      <point x="177" y="-105"/>
      <point x="157" y="-134" type="curve" smooth="yes"/>
      <point x="126" y="-178"/>
      <point x="85" y="-200"/>
      <point x="34" y="-200" type="curve" smooth="yes"/>
      <point x="3" y="-200"/>
      <point x="-21" y="-196"/>
      <point x="-40" y="-187" type="curve"/>
      <point x="-59" y="-179"/>
      <point x="-69" y="-169"/>
      <point x="-69" y="-156" type="curve" smooth="yes"/>
      <point x="-69" y="-132"/>
      <point x="-50" y="-103"/>
      <point x="-33" y="-103" type="curve" smooth="yes"/>
      <point x="-11" y="-103"/>
      <point x="6" y="-112"/>
      <point x="18" y="-130" type="curve" smooth="yes"/>
      <point x="30" y="-149"/>
      <point x="45" y="-158"/>
      <point x="64" y="-158" type="curve" smooth="yes"/>
      <point x="108" y="-158"/>
      <point x="130" y="-105"/>
      <point x="130" y="0" type="curve" smooth="yes"/>
      <point x="130" y="551" type="line" smooth="yes"/>
      <point x="130" y="596"/>
      <point x="113" y="613"/>
      <point x="66" y="622" type="curve" smooth="yes"/>
      <point x="43" y="626"/>
      <point x="31" y="633"/>
      <point x="31" y="642" type="curve" smooth="yes"/>
      <point x="31" y="649"/>
      <point x="41" y="653"/>
      <point x="60" y="653" type="curve" smooth="yes"/>
    </contour>
  </outline>
</glyph>
<glyph name="lacute" format="1">
  <advance width="241"/>
  <unicode hex="013A"/>
  <outline>
    <contour>
      <point x="69" y="737"/>
      <point x="39" y="730"/>
      <point x="32" y="730" type="curve" smooth="yes"/>
      <point x="25" y="730"/>
      <point x="21" y="733"/>
      <point x="21" y="738" type="curve" smooth="yes"/>
      <point x="21" y="741"/>
      <point x="24" y="746"/>
      <point x="30" y="753" type="curve" smooth="yes"/>
      <point x="41" y="765"/>
      <point x="175" y="851"/>
      <point x="199" y="851" type="curve" smooth="yes"/>
      <point x="223" y="851"/>
      <point x="241" y="816"/>
      <point x="241" y="804" type="curve" smooth="yes"/>
      <point x="241" y="798"/>
      <point x="240" y="794"/>
      <point x="237" y="792" type="curve"/>
      <point x="214" y="779"/>
      <point x="176" y="766"/>
      <point x="123" y="752" type="curve" smooth="yes"/>
    </contour>
    <contour>
      <point x="120" y="2" type="line"/>
      <point x="39" y="-3" type="line"/>
      <point x="26" y="-3"/>
      <point x="19" y="0"/>
      <point x="19" y="7" type="curve" smooth="yes"/>
      <point x="19" y="13"/>
      <point x="28" y="19"/>
      <point x="47" y="25" type="curve" smooth="yes"/>
      <point x="66" y="31"/>
      <point x="77" y="37"/>
      <point x="80" y="44" type="curve"/>
      <point x="83" y="50"/>
      <point x="85" y="56"/>
      <point x="85" y="62" type="curve" smooth="yes"/>
      <point x="85" y="566" type="line" smooth="yes"/>
      <point x="85" y="608"/>
      <point x="70" y="632"/>
      <point x="39" y="639" type="curve" smooth="yes"/>
      <point x="34" y="640"/>
      <point x="31" y="645"/>
      <point x="31" y="652" type="curve" smooth="yes"/>
      <point x="31" y="659"/>
      <point x="33" y="663"/>
      <point x="38" y="664" type="curve" smooth="yes"/>
      <point x="55" y="668"/>
      <point x="93" y="681"/>
      <point x="154" y="704" type="curve"/>
      <point x="155" y="704" type="line"/>
      <point x="156" y="705" type="line"/>
      <point x="160" y="705"/>
      <point x="162" y="703"/>
      <point x="162" y="698" type="curve" smooth="yes"/>
      <point x="162" y="696"/>
      <point x="161" y="690"/>
      <point x="160" y="680" type="curve" smooth="yes"/>
      <point x="157" y="654"/>
      <point x="155" y="615"/>
      <point x="155" y="562" type="curve" smooth="yes"/>
      <point x="155" y="62" type="line" smooth="yes"/>
      <point x="155" y="35"/>
      <point x="173" y="32"/>
      <point x="201" y="23" type="curve"/>
      <point x="214" y="18"/>
      <point x="221" y="13"/>
      <point x="221" y="7" type="curve" smooth="yes"/>
      <point x="221" y="0"/>
      <point x="214" y="-3"/>
      <point x="201" y="-3" type="curve"/>
    </contour>
  </outline>
</glyph>
<glyph name="lcommaaccent" format="1">
  <advance width="241"/>
  <unicode hex="013C"/>
  <outline>
    <contour>
      <point x="69" y="-275"/>
      <point x="65" y="-272"/>
      <point x="65" y="-266" type="curve" smooth="yes"/>
      <point x="65" y="-261"/>
      <point x="72" y="-255"/>
      <point x="86" y="-250" type="curve" smooth="yes"/>
      <point x="113" y="-240"/>
      <point x="132" y="-206"/>
      <point x="132" y="-175" type="curve" smooth="yes"/>
      <point x="132" y="-160"/>
      <point x="122" y="-150"/>
      <point x="102" y="-145" type="curve"/>
      <point x="77" y="-140"/>
      <point x="52" y="-121"/>
      <point x="52" y="-98" type="curve" smooth="yes"/>
      <point x="52" y="-75"/>
      <point x="70" y="-57"/>
      <point x="98" y="-57" type="curve" smooth="yes"/>
      <point x="146" y="-57"/>
      <point x="186" y="-97"/>
      <point x="186" y="-161" type="curve" smooth="yes"/>
      <point x="186" y="-226"/>
      <point x="117" y="-275"/>
      <point x="78" y="-275" type="curve" smooth="yes"/>
    </contour>
    <contour>
      <point x="120" y="2" type="line"/>
      <point x="39" y="-3" type="line"/>
      <point x="26" y="-3"/>
      <point x="19" y="0"/>
      <point x="19" y="7" type="curve" smooth="yes"/>
      <point x="19" y="13"/>
      <point x="28" y="19"/>
      <point x="47" y="25" type="curve" smooth="yes"/>
      <point x="66" y="31"/>
      <point x="77" y="37"/>
      <point x="80" y="44" type="curve"/>
      <point x="83" y="50"/>
      <point x="85" y="56"/>
      <point x="85" y="62" type="curve" smooth="yes"/>
      <point x="85" y="566" type="line" smooth="yes"/>
      <point x="85" y="608"/>
      <point x="70" y="632"/>
      <point x="39" y="639" type="curve" smooth="yes"/>
      <point x="34" y="640"/>
      <point x="31" y="645"/>
      <point x="31" y="652" type="curve" smooth="yes"/>
      <point x="31" y="659"/>
      <point x="33" y="663"/>
      <point x="38" y="664" type="curve" smooth="yes"/>
      <point x="55" y="668"/>
      <point x="93" y="681"/>
      <point x="154" y="704" type="curve"/>
      <point x="155" y="704" type="line"/>
      <point x="156" y="705" type="line"/>
      <point x="160" y="705"/>
      <point x="162" y="703"/>
      <point x="162" y="698" type="curve" smooth="yes"/>
      <point x="162" y="696"/>
      <point x="161" y="690"/>
      <point x="160" y="680" type="curve" smooth="yes"/>
      <point x="157" y="654"/>
      <point x="155" y="615"/>
      <point x="155" y="562" type="curve" smooth="yes"/>
      <point x="155" y="62" type="line" smooth="yes"/>
      <point x="155" y="35"/>
      <point x="173" y="32"/>
      <point x="201" y="23" type="curve"/>
      <point x="214" y="18"/>
      <point x="221" y="13"/>
      <point x="221" y="7" type="curve" smooth="yes"/>
      <point x="221" y="0"/>
      <point x="214" y="-3"/>
      <point x="201" y="-3" type="curve"/>
    </contour>
  </outline>
</glyph>
<glyph name="Lcaron" format="1">
  <advance width="574"/>
  <unicode hex="013D"/>
  <outline>
    <contour>
      <point x="452" y="485"/>
      <point x="437" y="472"/>
      <point x="430" y="472" type="curve" smooth="yes"/>
      <point x="427" y="472"/>
      <point x="425" y="478"/>
      <point x="425" y="489" type="curve"/>
      <point x="424" y="500"/>
      <point x="425" y="512"/>
      <point x="426" y="524" type="curve" smooth="yes"/>
      <point x="427" y="536"/>
      <point x="428" y="543"/>
      <point x="428" y="546" type="curve" smooth="yes"/>
      <point x="428" y="549"/>
      <point x="427" y="558"/>
      <point x="426" y="574" type="curve" smooth="yes"/>
      <point x="423" y="606"/>
      <point x="415" y="631"/>
      <point x="442" y="650" type="curve" smooth="yes"/>
      <point x="469" y="669"/>
      <point x="496" y="675"/>
      <point x="496" y="635" type="curve" smooth="yes"/>
      <point x="496" y="629"/>
      <point x="496" y="624"/>
      <point x="495" y="621" type="curve"/>
      <point x="489" y="578"/>
      <point x="476" y="536"/>
      <point x="457" y="497" type="curve"/>
    </contour>
    <contour>
      <point x="177" y="650" type="line"/>
      <point x="303" y="653" type="line" smooth="yes"/>
      <point x="322" y="653"/>
      <point x="332" y="649"/>
      <point x="332" y="642" type="curve" smooth="yes"/>
      <point x="332" y="633"/>
      <point x="323" y="626"/>
      <point x="304" y="623" type="curve" smooth="yes"/>
      <point x="266" y="616"/>
      <point x="256" y="614"/>
      <point x="236" y="606" type="curve" smooth="yes"/>
      <point x="219" y="599"/>
      <point x="210" y="586"/>
      <point x="210" y="567" type="curve" smooth="yes"/>
      <point x="210" y="96" type="line" smooth="yes"/>
      <point x="210" y="52"/>
      <point x="224" y="35"/>
      <point x="287" y="35" type="curve" smooth="yes"/>
      <point x="433" y="35" type="line" smooth="yes"/>
      <point x="437" y="35"/>
      <point x="445" y="38"/>
      <point x="458" y="43" type="curve"/>
      <point x="493" y="58"/>
      <point x="520" y="87"/>
      <point x="541" y="132" type="curve"/>
      <point x="548" y="152"/>
      <point x="556" y="162"/>
      <point x="564" y="162" type="curve" smooth="yes"/>
      <point x="571" y="162"/>
      <point x="575" y="156"/>
      <point x="575" y="144" type="curve"/>
      <point x="574" y="143"/>
      <point x="574" y="142"/>
      <point x="574" y="141" type="curve" smooth="yes"/>
      <point x="574" y="139" type="line"/>
      <point x="559" y="82"/>
      <point x="550" y="39"/>
      <point x="547" y="12" type="curve" smooth="yes"/>
      <point x="546" y="1"/>
      <point x="541" y="-5"/>
      <point x="533" y="-5" type="curve" smooth="yes"/>
      <point x="190" y="0" type="line"/>
      <point x="55" y="-5" type="line"/>
      <point x="36" y="-5"/>
      <point x="27" y="-1"/>
      <point x="27" y="7" type="curve" smooth="yes"/>
      <point x="27" y="14"/>
      <point x="34" y="20"/>
      <point x="49" y="24" type="curve"/>
      <point x="104" y="35"/>
      <point x="130" y="53"/>
      <point x="130" y="96" type="curve" smooth="yes"/>
      <point x="130" y="560" type="line" smooth="yes"/>
      <point x="130" y="607"/>
      <point x="120" y="613"/>
      <point x="72" y="622" type="curve" smooth="yes"/>
      <point x="48" y="626"/>
      <point x="36" y="633"/>
      <point x="36" y="642" type="curve" smooth="yes"/>
      <point x="36" y="649"/>
      <point x="46" y="653"/>
      <point x="65" y="653" type="curve" smooth="yes"/>
    </contour>
  </outline>
</glyph>
<glyph name="Ldot" format="1">
  <advance width="574"/>
  <unicode hex="013F"/>
  <outline>
    <contour>
      <point x="375" y="409"/>
      <point x="387" y="414"/>
      <point x="402" y="414" type="curve" smooth="yes"/>
      <point x="431" y="414"/>
      <point x="452" y="393"/>
      <point x="452" y="364" type="curve" smooth="yes"/>
      <point x="452" y="335"/>
      <point x="431" y="314"/>
      <point x="402" y="314" type="curve" smooth="yes"/>
      <point x="373" y="314"/>
      <point x="352" y="335"/>
      <point x="352" y="364" type="curve" smooth="yes"/>
      <point x="352" y="379"/>
      <point x="357" y="391"/>
      <point x="366" y="400" type="curve" smooth="yes"/>
    </contour>
    <contour>
      <point x="177" y="650" type="line"/>
      <point x="303" y="653" type="line" smooth="yes"/>
      <point x="322" y="653"/>
      <point x="332" y="649"/>
      <point x="332" y="642" type="curve" smooth="yes"/>
      <point x="332" y="633"/>
      <point x="323" y="626"/>
      <point x="304" y="623" type="curve" smooth="yes"/>
      <point x="266" y="616"/>
      <point x="256" y="614"/>
      <point x="236" y="606" type="curve" smooth="yes"/>
      <point x="219" y="599"/>
      <point x="210" y="586"/>
      <point x="210" y="567" type="curve" smooth="yes"/>
      <point x="210" y="96" type="line" smooth="yes"/>
      <point x="210" y="52"/>
      <point x="224" y="35"/>
      <point x="287" y="35" type="curve" smooth="yes"/>
      <point x="433" y="35" type="line" smooth="yes"/>
      <point x="437" y="35"/>
      <point x="445" y="38"/>
      <point x="458" y="43" type="curve"/>
      <point x="493" y="58"/>
      <point x="520" y="87"/>
      <point x="541" y="132" type="curve"/>
      <point x="548" y="152"/>
      <point x="556" y="162"/>
      <point x="564" y="162" type="curve" smooth="yes"/>
      <point x="571" y="162"/>
      <point x="575" y="156"/>
      <point x="575" y="144" type="curve"/>
      <point x="574" y="143"/>
      <point x="574" y="142"/>
      <point x="574" y="141" type="curve" smooth="yes"/>
      <point x="574" y="139" type="line"/>
      <point x="559" y="82"/>
      <point x="550" y="39"/>
      <point x="547" y="12" type="curve" smooth="yes"/>
      <point x="546" y="1"/>
      <point x="541" y="-5"/>
      <point x="533" y="-5" type="curve" smooth="yes"/>
      <point x="190" y="0" type="line"/>
      <point x="55" y="-5" type="line"/>
      <point x="36" y="-5"/>
      <point x="27" y="-1"/>
      <point x="27" y="7" type="curve" smooth="yes"/>
      <point x="27" y="14"/>
      <point x="34" y="20"/>
      <point x="49" y="24" type="curve"/>
      <point x="104" y="35"/>
      <point x="130" y="53"/>
      <point x="130" y="96" type="curve" smooth="yes"/>
      <point x="130" y="560" type="line" smooth="yes"/>
      <point x="130" y="607"/>
      <point x="120" y="613"/>
      <point x="72" y="622" type="curve" smooth="yes"/>
      <point x="48" y="626"/>
      <point x="36" y="633"/>
      <point x="36" y="642" type="curve" smooth="yes"/>
      <point x="36" y="649"/>
      <point x="46" y="653"/>
      <point x="65" y="653" type="curve" smooth="yes"/>
    </contour>
  </outline>
</glyph>
<glyph name="Lslash" format="1">
  <advance width="586"/>
  <unicode hex="0141"/>
  <outline>
    <contour>
      <point x="172" y="650" type="line"/>
      <point x="298" y="653" type="line" smooth="yes"/>
      <point x="317" y="653"/>
      <point x="327" y="649"/>
      <point x="327" y="642" type="curve" smooth="yes"/>
      <point x="327" y="633"/>
      <point x="318" y="626"/>
      <point x="299" y="623" type="curve" smooth="yes"/>
      <point x="261" y="616"/>
      <point x="251" y="614"/>
      <point x="232" y="606" type="curve" smooth="yes"/>
      <point x="214" y="599"/>
      <point x="205" y="586"/>
      <point x="205" y="567" type="curve" smooth="yes"/>
      <point x="205" y="352" type="line"/>
      <point x="375" y="415" type="line"/>
      <point x="382" y="419"/>
      <point x="393" y="416"/>
      <point x="393" y="409" type="curve" smooth="yes"/>
      <point x="393" y="388"/>
      <point x="387" y="376"/>
      <point x="375" y="372" type="curve" smooth="yes"/>
      <point x="205" y="310" type="line"/>
      <point x="205" y="96" type="line" smooth="yes"/>
      <point x="205" y="52"/>
      <point x="219" y="35"/>
      <point x="282" y="35" type="curve" smooth="yes"/>
      <point x="428" y="35" type="line" smooth="yes"/>
      <point x="432" y="35"/>
      <point x="440" y="38"/>
      <point x="453" y="43" type="curve"/>
      <point x="488" y="58"/>
      <point x="515" y="87"/>
      <point x="536" y="132" type="curve"/>
      <point x="543" y="152"/>
      <point x="551" y="162"/>
      <point x="559" y="162" type="curve" smooth="yes"/>
      <point x="566" y="162"/>
      <point x="570" y="156"/>
      <point x="570" y="144" type="curve" smooth="yes"/>
      <point x="570" y="141" type="line"/>
      <point x="569" y="139" type="line"/>
      <point x="554" y="82"/>
      <point x="545" y="39"/>
      <point x="542" y="12" type="curve" smooth="yes"/>
      <point x="541" y="1"/>
      <point x="536" y="-5"/>
      <point x="528" y="-5" type="curve" smooth="yes"/>
      <point x="185" y="0" type="line"/>
      <point x="50" y="-5" type="line"/>
      <point x="31" y="-5"/>
      <point x="22" y="-1"/>
      <point x="22" y="7" type="curve" smooth="yes"/>
      <point x="22" y="14"/>
      <point x="29" y="20"/>
      <point x="44" y="24" type="curve"/>
      <point x="99" y="35"/>
      <point x="125" y="53"/>
      <point x="125" y="96" type="curve" smooth="yes"/>
      <point x="125" y="281" type="line"/>
      <point x="60" y="257" type="line"/>
      <point x="52" y="253"/>
      <point x="39" y="255"/>
      <point x="39" y="263" type="curve" smooth="yes"/>
      <point x="39" y="282"/>
      <point x="44" y="293"/>
      <point x="53" y="296" type="curve" smooth="yes"/>
      <point x="125" y="322" type="line"/>
      <point x="125" y="560" type="line" smooth="yes"/>
      <point x="125" y="607"/>
      <point x="115" y="613"/>
      <point x="67" y="622" type="curve" smooth="yes"/>
      <point x="43" y="626"/>
      <point x="31" y="633"/>
      <point x="31" y="642" type="curve" smooth="yes"/>
      <point x="31" y="649"/>
      <point x="41" y="653"/>
      <point x="60" y="653" type="curve" smooth="yes"/>
    </contour>
  </outline>
</glyph>
<glyph name="nacute" format="1">
  <advance width="527"/>
  <unicode hex="0144"/>
  <outline>
    <contour>
      <point x="383" y="614"/>
      <point x="305" y="520"/>
      <point x="271" y="484" type="curve" smooth="yes"/>
      <point x="254" y="465"/>
      <point x="242" y="456"/>
      <point x="236" y="456" type="curve" smooth="yes"/>
      <point x="229" y="456"/>
      <point x="226" y="462"/>
      <point x="226" y="473" type="curve" smooth="yes"/>
      <point x="226" y="484"/>
      <point x="253" y="537"/>
      <point x="307" y="631" type="curve" smooth="yes"/>
      <point x="314" y="643"/>
      <point x="323" y="649"/>
      <point x="334" y="649" type="curve" smooth="yes"/>
      <point x="367" y="649"/>
      <point x="383" y="641"/>
      <point x="383" y="626" type="curve" smooth="yes"/>
    </contour>
    <contour>
      <point x="405" y="2" type="line"/>
      <point x="323" y="-3" type="line"/>
      <point x="310" y="-3"/>
      <point x="303" y="0"/>
      <point x="303" y="7" type="curve" smooth="yes"/>
      <point x="303" y="13"/>
      <point x="311" y="19"/>
      <point x="326" y="24" type="curve"/>
      <point x="327" y="24"/>
      <point x="328" y="24"/>
      <point x="330" y="25" type="curve"/>
      <point x="352" y="32"/>
      <point x="365" y="41"/>
      <point x="368" y="52" type="curve"/>
      <point x="369" y="55"/>
      <point x="369" y="59"/>
      <point x="369" y="62" type="curve" smooth="yes"/>
      <point x="369" y="272" type="line" smooth="yes"/>
      <point x="369" y="329"/>
      <point x="335" y="365"/>
      <point x="271" y="365" type="curve" smooth="yes"/>
      <point x="206" y="365"/>
      <point x="160" y="341"/>
      <point x="160" y="268" type="curve" smooth="yes"/>
      <point x="160" y="62" type="line" smooth="yes"/>
      <point x="160" y="35"/>
      <point x="178" y="32"/>
      <point x="206" y="23" type="curve"/>
      <point x="219" y="18"/>
      <point x="226" y="13"/>
      <point x="226" y="7" type="curve" smooth="yes"/>
      <point x="226" y="0"/>
      <point x="219" y="-3"/>
      <point x="206" y="-3" type="curve"/>
      <point x="125" y="2" type="line"/>
      <point x="44" y="-3" type="line"/>
      <point x="31" y="-3"/>
      <point x="24" y="0"/>
      <point x="24" y="7" type="curve" smooth="yes"/>
      <point x="24" y="19"/>
      <point x="56" y="27"/>
      <point x="60" y="28" type="curve"/>
      <point x="63" y="28"/>
      <point x="77" y="35"/>
      <point x="80" y="39" type="curve"/>
      <point x="87" y="46"/>
      <point x="90" y="54"/>
      <point x="90" y="62" type="curve" smooth="yes"/>
      <point x="90" y="277" type="line" smooth="yes"/>
      <point x="90" y="320"/>
      <point x="76" y="344"/>
      <point x="49" y="349" type="curve" smooth="yes"/>
      <point x="44" y="350"/>
      <point x="41" y="355"/>
      <point x="41" y="362" type="curve" smooth="yes"/>
      <point x="41" y="369"/>
      <point x="43" y="373"/>
      <point x="48" y="374" type="curve" smooth="yes"/>
      <point x="83" y="382"/>
      <point x="119" y="400"/>
      <point x="158" y="429" type="curve"/>
      <point x="159" y="430"/>
      <point x="160" y="430"/>
      <point x="162" y="430" type="curve" smooth="yes"/>
      <point x="163" y="430"/>
      <point x="165" y="427"/>
      <point x="167" y="421" type="curve"/>
      <point x="160" y="356" type="line"/>
      <point x="160" y="351"/>
      <point x="160" y="349"/>
      <point x="161" y="348" type="curve"/>
      <point x="198" y="379"/>
      <point x="269" y="414"/>
      <point x="329" y="414" type="curve" smooth="yes"/>
      <point x="389" y="414"/>
      <point x="439" y="354"/>
      <point x="439" y="275" type="curve" smooth="yes"/>
      <point x="439" y="62" type="line" smooth="yes"/>
      <point x="439" y="35"/>
      <point x="457" y="32"/>
      <point x="485" y="23" type="curve"/>
      <point x="498" y="18"/>
      <point x="505" y="13"/>
      <point x="505" y="7" type="curve" smooth="yes"/>
      <point x="505" y="0"/>
      <point x="498" y="-3"/>
      <point x="485" y="-3" type="curve"/>
    </contour>
  </outline>
</glyph>
<glyph name="Ncommaaccent" format="1">
  <advance width="770"/>
  <unicode hex="0145"/>
  <outline>
    <contour>
      <point x="354" y="-275"/>
      <point x="350" y="-272"/>
      <point x="350" y="-266" type="curve" smooth="yes"/>
      <point x="350" y="-261"/>
      <point x="357" y="-255"/>
      <point x="371" y="-250" type="curve" smooth="yes"/>
      <point x="398" y="-240"/>
      <point x="417" y="-206"/>
      <point x="417" y="-175" type="curve" smooth="yes"/>
      <point x="417" y="-160"/>
      <point x="407" y="-150"/>
      <point x="387" y="-145" type="curve"/>
      <point x="362" y="-140"/>
      <point x="337" y="-121"/>
      <point x="337" y="-98" type="curve" smooth="yes"/>
      <point x="337" y="-75"/>
      <point x="355" y="-57"/>
      <point x="383" y="-57" type="curve" smooth="yes"/>
      <point x="431" y="-57"/>
      <point x="471" y="-97"/>
      <point x="471" y="-161" type="curve" smooth="yes"/>
      <point x="471" y="-226"/>
      <point x="402" y="-275"/>
      <point x="363" y="-275" type="curve" smooth="yes"/>
    </contour>
    <contour>
      <point x="179" y="653" type="line" smooth="yes"/>
      <point x="186" y="653"/>
      <point x="194" y="647"/>
      <point x="203" y="636" type="curve"/>
      <point x="220" y="612"/>
      <point x="559" y="186"/>
      <point x="583" y="158" type="curve" smooth="yes"/>
      <point x="595" y="143"/>
      <point x="604" y="136"/>
      <point x="610" y="136" type="curve" smooth="yes"/>
      <point x="615" y="136"/>
      <point x="618" y="143"/>
      <point x="619" y="157" type="curve"/>
      <point x="620" y="200"/>
      <point x="621" y="306"/>
      <point x="621" y="477" type="curve" smooth="yes"/>
      <point x="621" y="564" type="line"/>
      <point x="620" y="588"/>
      <point x="590" y="615"/>
      <point x="556" y="621" type="curve" smooth="yes"/>
      <point x="539" y="624"/>
      <point x="530" y="630"/>
      <point x="530" y="639" type="curve" smooth="yes"/>
      <point x="530" y="646"/>
      <point x="540" y="650"/>
      <point x="559" y="650" type="curve" smooth="yes"/>
      <point x="616" y="650" type="line"/>
      <point x="731" y="653" type="line" smooth="yes"/>
      <point x="750" y="653"/>
      <point x="760" y="649"/>
      <point x="760" y="642" type="curve" smooth="yes"/>
      <point x="760" y="633"/>
      <point x="748" y="626"/>
      <point x="725" y="622" type="curve" smooth="yes"/>
      <point x="678" y="613"/>
      <point x="666" y="605"/>
      <point x="664" y="557" type="curve" smooth="yes"/>
      <point x="663" y="532"/>
      <point x="662" y="349"/>
      <point x="662" y="8" type="curve" smooth="yes"/>
      <point x="662" y="-9"/>
      <point x="655" y="-17"/>
      <point x="641" y="-17" type="curve" smooth="yes"/>
      <point x="634" y="-17"/>
      <point x="622" y="-11"/>
      <point x="606" y="0" type="curve" smooth="yes"/>
      <point x="590" y="11"/>
      <point x="574" y="27"/>
      <point x="558" y="50" type="curve"/>
      <point x="541" y="72"/>
      <point x="423" y="217"/>
      <point x="204" y="484" type="curve" smooth="yes"/>
      <point x="195" y="495"/>
      <point x="188" y="500"/>
      <point x="183" y="500" type="curve" smooth="yes"/>
      <point x="177" y="500"/>
      <point x="174" y="493"/>
      <point x="174" y="479" type="curve" smooth="yes"/>
      <point x="171" y="314"/>
      <point x="169" y="189"/>
      <point x="169" y="104" type="curve" smooth="yes"/>
      <point x="169" y="59"/>
      <point x="190" y="32"/>
      <point x="233" y="24" type="curve" smooth="yes"/>
      <point x="255" y="20"/>
      <point x="266" y="14"/>
      <point x="266" y="7" type="curve" smooth="yes"/>
      <point x="266" y="-1"/>
      <point x="256" y="-5"/>
      <point x="237" y="-5" type="curve"/>
      <point x="143" y="0" type="line"/>
      <point x="52" y="-5" type="line"/>
      <point x="33" y="-5"/>
      <point x="23" y="-1"/>
      <point x="23" y="7" type="curve" smooth="yes"/>
      <point x="23" y="14"/>
      <point x="33" y="20"/>
      <point x="52" y="23" type="curve" smooth="yes"/>
      <point x="90" y="30"/>
      <point x="110" y="80"/>
      <point x="114" y="107" type="curve" smooth="yes"/>
      <point x="126" y="207"/>
      <point x="132" y="340"/>
      <point x="132" y="507" type="curve" smooth="yes"/>
      <point x="132" y="572"/>
      <point x="97" y="600"/>
      <point x="43" y="617" type="curve" smooth="yes"/>
      <point x="16" y="626"/>
      <point x="2" y="635"/>
      <point x="2" y="644" type="curve" smooth="yes"/>
      <point x="2" y="653"/>
      <point x="10" y="658"/>
      <point x="25" y="658" type="curve" smooth="yes"/>
    </contour>
  </outline>
</glyph>
<glyph name="Omacron" format="1">
  <advance width="763"/>
  <unicode hex="014C"/>
  <outline>
    <contour>
      <point x="520" y="777" type="line" smooth="yes"/>
      <point x="527" y="777"/>
      <point x="533" y="772"/>
      <point x="533" y="760" type="curve" smooth="yes"/>
      <point x="533" y="747"/>
      <point x="518" y="723"/>
      <point x="502" y="723" type="curve" smooth="yes"/>
      <point x="247" y="723" type="line" smooth="yes"/>
      <point x="240" y="723"/>
      <point x="233" y="727"/>
      <point x="233" y="739" type="curve" smooth="yes"/>
      <point x="233" y="750"/>
      <point x="241" y="777"/>
      <point x="257" y="777" type="curve" smooth="yes"/>
    </contour>
    <contour>
      <point x="621" y="497"/>
      <point x="530" y="625"/>
      <point x="381" y="625" type="curve" smooth="yes"/>
      <point x="232" y="625"/>
      <point x="142" y="502"/>
      <point x="142" y="340" type="curve" smooth="yes"/>
      <point x="142" y="178"/>
      <point x="251" y="25"/>
      <point x="396" y="25" type="curve" smooth="yes"/>
      <point x="541" y="25"/>
      <point x="621" y="128"/>
      <point x="621" y="313" type="curve" smooth="yes"/>
    </contour>
    <contour>
      <point x="45" y="444"/>
      <point x="95" y="550"/>
      <point x="202" y="615" type="curve" smooth="yes"/>
      <point x="255" y="648"/>
      <point x="318" y="664"/>
      <point x="390" y="664" type="curve" smooth="yes"/>
      <point x="569" y="664"/>
      <point x="718" y="527"/>
      <point x="718" y="335" type="curve" smooth="yes"/>
      <point x="718" y="241"/>
      <point x="689" y="160"/>
      <point x="632" y="93" type="curve" smooth="yes"/>
      <point x="577" y="28"/>
      <point x="487" y="-14"/>
      <point x="382" y="-14" type="curve" smooth="yes"/>
      <point x="202" y="-14"/>
      <point x="45" y="133"/>
      <point x="45" y="320" type="curve" smooth="yes"/>
    </contour>
  </outline>
</glyph>
<glyph name="Ohungarumlaut" format="1">
  <advance width="763"/>
  <unicode hex="0150"/>
  <outline>
    <contour>
      <point x="434" y="700"/>
      <point x="428" y="697"/>
      <point x="424" y="697" type="curve" smooth="yes"/>
      <point x="420" y="697"/>
      <point x="418" y="699"/>
      <point x="418" y="704" type="curve" smooth="yes"/>
      <point x="418" y="713"/>
      <point x="445" y="758"/>
      <point x="500" y="837" type="curve" smooth="yes"/>
      <point x="506" y="846"/>
      <point x="514" y="850"/>
      <point x="525" y="850" type="curve" smooth="yes"/>
      <point x="546" y="850"/>
      <point x="585" y="839"/>
      <point x="585" y="828" type="curve" smooth="yes"/>
      <point x="585" y="823"/>
      <point x="581" y="816"/>
      <point x="572" y="808" type="curve" smooth="yes"/>
      <point x="542" y="783"/>
      <point x="499" y="749"/>
      <point x="442" y="706" type="curve" smooth="yes"/>
    </contour>
    <contour>
      <point x="302" y="700"/>
      <point x="296" y="697"/>
      <point x="292" y="697" type="curve" smooth="yes"/>
      <point x="288" y="697"/>
      <point x="286" y="699"/>
      <point x="286" y="704" type="curve" smooth="yes"/>
      <point x="286" y="713"/>
      <point x="313" y="758"/>
      <point x="368" y="837" type="curve" smooth="yes"/>
      <point x="374" y="846"/>
      <point x="382" y="850"/>
      <point x="393" y="850" type="curve" smooth="yes"/>
      <point x="414" y="850"/>
      <point x="453" y="839"/>
      <point x="453" y="828" type="curve" smooth="yes"/>
      <point x="453" y="823"/>
      <point x="449" y="816"/>
      <point x="440" y="808" type="curve" smooth="yes"/>
      <point x="410" y="783"/>
      <point x="367" y="749"/>
      <point x="310" y="706" type="curve" smooth="yes"/>
    </contour>
    <contour>
      <point x="621" y="497"/>
      <point x="530" y="625"/>
      <point x="381" y="625" type="curve" smooth="yes"/>
      <point x="232" y="625"/>
      <point x="142" y="502"/>
      <point x="142" y="340" type="curve" smooth="yes"/>
      <point x="142" y="178"/>
      <point x="251" y="25"/>
      <point x="396" y="25" type="curve" smooth="yes"/>
      <point x="541" y="25"/>
      <point x="621" y="128"/>
      <point x="621" y="313" type="curve" smooth="yes"/>
    </contour>
    <contour>
      <point x="45" y="444"/>
      <point x="95" y="550"/>
      <point x="202" y="615" type="curve" smooth="yes"/>
      <point x="255" y="648"/>
      <point x="318" y="664"/>
      <point x="390" y="664" type="curve" smooth="yes"/>
      <point x="569" y="664"/>
      <point x="718" y="527"/>
      <point x="718" y="335" type="curve" smooth="yes"/>
      <point x="718" y="241"/>
      <point x="689" y="160"/>
      <point x="632" y="93" type="curve" smooth="yes"/>
      <point x="577" y="28"/>
      <point x="487" y="-14"/>
      <point x="382" y="-14" type="curve" smooth="yes"/>
      <point x="202" y="-14"/>
      <point x="45" y="133"/>
      <point x="45" y="320" type="curve" smooth="yes"/>
    </contour>
  </outline>
</glyph>
<glyph name="oe" format="1">
  <advance width="755"/>
  <unicode hex="0153"/>
  <outline>
    <contour>
      <point x="157" y="383"/>
      <point x="117" y="325"/>
      <point x="117" y="210" type="curve" smooth="yes"/>
      <point x="117" y="107"/>
      <point x="178" y="16"/>
      <point x="255" y="16" type="curve" smooth="yes"/>
      <point x="355" y="16"/>
      <point x="378" y="84"/>
      <point x="378" y="187" type="curve" smooth="yes"/>
      <point x="378" y="290"/>
      <point x="318" y="383"/>
      <point x="237" y="383" type="curve" smooth="yes"/>
    </contour>
    <contour>
      <point x="35" y="302"/>
      <point x="133" y="414"/>
      <point x="258" y="414" type="curve" smooth="yes"/>
      <point x="321" y="414"/>
      <point x="373" y="389"/>
      <point x="415" y="338" type="curve"/>
      <point x="420" y="331"/>
      <point x="425" y="330"/>
      <point x="429" y="335" type="curve"/>
      <point x="504" y="438"/>
      <point x="647" y="423"/>
      <point x="692" y="389" type="curve" smooth="yes"/>
      <point x="714" y="372"/>
      <point x="725" y="349"/>
      <point x="725" y="321" type="curve" smooth="yes"/>
      <point x="725" y="264"/>
      <point x="693" y="257"/>
      <point x="648" y="257" type="curve" smooth="yes"/>
      <point x="484" y="257" type="line" smooth="yes"/>
      <point x="465" y="257"/>
      <point x="459" y="252"/>
      <point x="459" y="220" type="curve" smooth="yes"/>
      <point x="459" y="123"/>
      <point x="523" y="48"/>
      <point x="607" y="48" type="curve" smooth="yes"/>
      <point x="648" y="48"/>
      <point x="679" y="61"/>
      <point x="700" y="88" type="curve"/>
      <point x="703" y="91"/>
      <point x="707" y="93"/>
      <point x="710" y="93" type="curve" smooth="yes"/>
      <point x="716" y="93"/>
      <point x="722" y="85"/>
      <point x="721" y="77" type="curve"/>
      <point x="709" y="34"/>
      <point x="645" y="-14"/>
      <point x="576" y="-14" type="curve" smooth="yes"/>
      <point x="507" y="-14"/>
      <point x="454" y="12"/>
      <point x="419" y="65" type="curve"/>
      <point x="415" y="70"/>
      <point x="411" y="70"/>
      <point x="408" y="65" type="curve"/>
      <point x="367" y="12"/>
      <point x="309" y="-14"/>
      <point x="234" y="-14" type="curve" smooth="yes"/>
      <point x="121" y="-14"/>
      <point x="35" y="71"/>
      <point x="35" y="187" type="curve" smooth="yes"/>
    </contour>
    <contour>
      <point x="479" y="313"/>
      <point x="478" y="308"/>
      <point x="478" y="303" type="curve" smooth="yes"/>
      <point x="478" y="293"/>
      <point x="484" y="288"/>
      <point x="497" y="288" type="curve" smooth="yes"/>
      <point x="579" y="288" type="line" smooth="yes"/>
      <point x="610" y="288"/>
      <point x="635" y="290"/>
      <point x="652" y="293" type="curve" smooth="yes"/>
      <point x="657" y="294"/>
      <point x="660" y="302"/>
      <point x="660" y="319" type="curve" smooth="yes"/>
      <point x="660" y="333" type="line"/>
      <point x="657" y="366"/>
      <point x="630" y="383"/>
      <point x="580" y="383" type="curve" smooth="yes"/>
      <point x="538" y="383"/>
      <point x="505" y="361"/>
      <point x="482" y="318" type="curve"/>
    </contour>
  </outline>
</glyph>
<glyph name="racute" format="1">
  <advance width="334"/>
  <unicode hex="0155"/>
  <outline>
    <contour>
      <point x="315" y="614"/>
      <point x="237" y="520"/>
      <point x="203" y="484" type="curve" smooth="yes"/>
      <point x="186" y="465"/>
      <point x="174" y="456"/>
      <point x="168" y="456" type="curve" smooth="yes"/>
      <point x="161" y="456"/>
      <point x="158" y="462"/>
      <point x="158" y="473" type="curve" smooth="yes"/>
      <point x="158" y="484"/>
      <point x="185" y="537"/>
      <point x="239" y="631" type="curve" smooth="yes"/>
      <point x="246" y="643"/>
      <point x="255" y="649"/>
      <point x="266" y="649" type="curve" smooth="yes"/>
      <point x="299" y="649"/>
      <point x="315" y="641"/>
      <point x="315" y="626" type="curve" smooth="yes"/>
    </contour>
    <contour>
      <point x="130" y="2" type="line"/>
      <point x="49" y="-3" type="line"/>
      <point x="36" y="-3"/>
      <point x="29" y="0"/>
      <point x="29" y="7" type="curve" smooth="yes"/>
      <point x="29" y="13"/>
      <point x="35" y="18"/>
      <point x="47" y="22" type="curve" smooth="yes"/>
      <point x="71" y="30"/>
      <point x="75" y="30"/>
      <point x="84" y="41" type="curve" smooth="yes"/>
      <point x="88" y="46"/>
      <point x="90" y="53"/>
      <point x="90" y="62" type="curve" smooth="yes"/>
      <point x="90" y="277" type="line" smooth="yes"/>
      <point x="90" y="319"/>
      <point x="76" y="343"/>
      <point x="49" y="349" type="curve" smooth="yes"/>
      <point x="44" y="350"/>
      <point x="41" y="355"/>
      <point x="41" y="362" type="curve" smooth="yes"/>
      <point x="41" y="369"/>
      <point x="43" y="373"/>
      <point x="48" y="374" type="curve" smooth="yes"/>
      <point x="73" y="379"/>
      <point x="92" y="386"/>
      <point x="104" y="394" type="curve" smooth="yes"/>
      <point x="127" y="409"/>
      <point x="142" y="418"/>
      <point x="149" y="423" type="curve"/>
      <point x="156" y="427"/>
      <point x="160" y="429"/>
      <point x="160" y="430" type="curve"/>
      <point x="160" y="430"/>
      <point x="161" y="430"/>
      <point x="163" y="430" type="curve" smooth="yes"/>
      <point x="164" y="430"/>
      <point x="166" y="428"/>
      <point x="167" y="423" type="curve"/>
      <point x="167" y="405"/>
      <point x="167" y="388"/>
      <point x="166" y="371" type="curve" smooth="yes"/>
      <point x="165" y="354"/>
      <point x="165" y="346"/>
      <point x="166" y="346" type="curve" smooth="yes"/>
      <point x="167" y="346"/>
      <point x="168" y="348"/>
      <point x="171" y="351" type="curve"/>
      <point x="180" y="362"/>
      <point x="186" y="369"/>
      <point x="189" y="371" type="curve"/>
      <point x="221" y="400"/>
      <point x="252" y="414"/>
      <point x="281" y="414" type="curve" smooth="yes"/>
      <point x="309" y="414"/>
      <point x="329" y="401"/>
      <point x="329" y="381" type="curve" smooth="yes"/>
      <point x="329" y="361"/>
      <point x="308" y="330"/>
      <point x="293" y="330" type="curve" smooth="yes"/>
      <point x="286" y="330"/>
      <point x="275" y="333"/>
      <point x="261" y="339" type="curve" smooth="yes"/>
      <point x="247" y="345"/>
      <point x="237" y="348"/>
      <point x="230" y="348" type="curve" smooth="yes"/>
      <point x="191" y="348"/>
      <point x="160" y="325"/>
      <point x="160" y="264" type="curve" smooth="yes"/>
      <point x="160" y="67" type="line"/>
      <point x="161" y="49"/>
      <point x="179" y="35"/>
      <point x="214" y="24" type="curve" smooth="yes"/>
      <point x="229" y="19"/>
      <point x="237" y="13"/>
      <point x="237" y="7" type="curve" smooth="yes"/>
      <point x="237" y="0"/>
      <point x="230" y="-3"/>
      <point x="217" y="-3" type="curve"/>
    </contour>
  </outline>
</glyph>
<glyph name="rcommaaccent" format="1">
  <advance width="334"/>
  <unicode hex="0157"/>
  <outline>
    <contour>
      <point x="80" y="-275"/>
      <point x="76" y="-272"/>
      <point x="76" y="-266" type="curve" smooth="yes"/>
      <point x="76" y="-261"/>
      <point x="83" y="-255"/>
      <point x="97" y="-250" type="curve" smooth="yes"/>
      <point x="124" y="-240"/>
      <point x="143" y="-206"/>
      <point x="143" y="-175" type="curve" smooth="yes"/>
      <point x="143" y="-160"/>
      <point x="133" y="-150"/>
      <point x="113" y="-145" type="curve"/>
      <point x="88" y="-140"/>
      <point x="63" y="-121"/>
      <point x="63" y="-98" type="curve" smooth="yes"/>
      <point x="63" y="-75"/>
      <point x="81" y="-57"/>
      <point x="109" y="-57" type="curve" smooth="yes"/>
      <point x="157" y="-57"/>
      <point x="197" y="-97"/>
      <point x="197" y="-161" type="curve" smooth="yes"/>
      <point x="197" y="-226"/>
      <point x="128" y="-275"/>
      <point x="89" y="-275" type="curve" smooth="yes"/>
    </contour>
    <contour>
      <point x="130" y="2" type="line"/>
      <point x="49" y="-3" type="line"/>
      <point x="36" y="-3"/>
      <point x="29" y="0"/>
      <point x="29" y="7" type="curve" smooth="yes"/>
      <point x="29" y="13"/>
      <point x="35" y="18"/>
      <point x="47" y="22" type="curve" smooth="yes"/>
      <point x="71" y="30"/>
      <point x="75" y="30"/>
      <point x="84" y="41" type="curve" smooth="yes"/>
      <point x="88" y="46"/>
      <point x="90" y="53"/>
      <point x="90" y="62" type="curve" smooth="yes"/>
      <point x="90" y="277" type="line" smooth="yes"/>
      <point x="90" y="319"/>
      <point x="76" y="343"/>
      <point x="49" y="349" type="curve" smooth="yes"/>
      <point x="44" y="350"/>
      <point x="41" y="355"/>
      <point x="41" y="362" type="curve" smooth="yes"/>
      <point x="41" y="369"/>
      <point x="43" y="373"/>
      <point x="48" y="374" type="curve" smooth="yes"/>
      <point x="73" y="379"/>
      <point x="92" y="386"/>
      <point x="104" y="394" type="curve" smooth="yes"/>
      <point x="127" y="409"/>
      <point x="142" y="418"/>
      <point x="149" y="423" type="curve"/>
      <point x="156" y="427"/>
      <point x="160" y="429"/>
      <point x="160" y="430" type="curve"/>
      <point x="160" y="430"/>
      <point x="161" y="430"/>
      <point x="163" y="430" type="curve" smooth="yes"/>
      <point x="164" y="430"/>
      <point x="166" y="428"/>
      <point x="167" y="423" type="curve"/>
      <point x="167" y="405"/>
      <point x="167" y="388"/>
      <point x="166" y="371" type="curve" smooth="yes"/>
      <point x="165" y="354"/>
      <point x="165" y="346"/>
      <point x="166" y="346" type="curve" smooth="yes"/>
      <point x="167" y="346"/>
      <point x="168" y="348"/>
      <point x="171" y="351" type="curve"/>
      <point x="180" y="362"/>
      <point x="186" y="369"/>
      <point x="189" y="371" type="curve"/>
      <point x="221" y="400"/>
      <point x="252" y="414"/>
      <point x="281" y="414" type="curve" smooth="yes"/>
      <point x="309" y="414"/>
      <point x="329" y="401"/>
      <point x="329" y="381" type="curve" smooth="yes"/>
      <point x="329" y="361"/>
      <point x="308" y="330"/>
      <point x="293" y="330" type="curve" smooth="yes"/>
      <point x="286" y="330"/>
      <point x="275" y="333"/>
      <point x="261" y="339" type="curve" smooth="yes"/>
      <point x="247" y="345"/>
      <point x="237" y="348"/>
      <point x="230" y="348" type="curve" smooth="yes"/>
      <point x="191" y="348"/>
      <point x="160" y="325"/>
      <point x="160" y="264" type="curve" smooth="yes"/>
      <point x="160" y="67" type="line"/>
      <point x="161" y="49"/>
      <point x="179" y="35"/>
      <point x="214" y="24" type="curve" smooth="yes"/>
      <point x="229" y="19"/>
      <point x="237" y="13"/>
      <point x="237" y="7" type="curve" smooth="yes"/>
      <point x="237" y="0"/>
      <point x="230" y="-3"/>
      <point x="217" y="-3" type="curve"/>
    </contour>
  </outline>
</glyph>
<glyph name="Rcaron" format="1">
  <advance width="689"/>
  <unicode hex="0158"/>
  <outline>
    <contour>
      <point x="137" y="829"/>
      <point x="141" y="832"/>
      <point x="149" y="832" type="curve" smooth="yes"/>
      <point x="165" y="832"/>
      <point x="245" y="793"/>
      <point x="267" y="781" type="curve"/>
      <point x="278" y="774"/>
      <point x="286" y="773"/>
      <point x="293" y="777" type="curve" smooth="yes"/>
      <point x="325" y="796"/>
      <point x="401" y="833"/>
      <point x="417" y="833" type="curve" smooth="yes"/>
      <point x="424" y="833"/>
      <point x="428" y="829"/>
      <point x="428" y="822" type="curve" smooth="yes"/>
      <point x="428" y="817"/>
      <point x="426" y="813"/>
      <point x="422" y="810" type="curve"/>
      <point x="324" y="722" type="line" smooth="yes"/>
      <point x="307" y="707"/>
      <point x="294" y="700"/>
      <point x="283" y="700" type="curve" smooth="yes"/>
      <point x="272" y="700"/>
      <point x="259" y="707"/>
      <point x="242" y="722" type="curve" smooth="yes"/>
      <point x="144" y="810" type="line"/>
      <point x="139" y="814"/>
      <point x="137" y="818"/>
      <point x="137" y="822" type="curve" smooth="yes"/>
    </contour>
    <contour>
      <point x="352" y="329"/>
      <point x="413" y="395"/>
      <point x="413" y="482" type="curve" smooth="yes"/>
      <point x="413" y="569"/>
      <point x="382" y="627"/>
      <point x="278" y="627" type="curve" smooth="yes"/>
      <point x="227" y="627"/>
      <point x="215" y="608"/>
      <point x="214" y="573" type="curve" smooth="yes"/>
      <point x="211" y="508"/>
      <point x="210" y="439"/>
      <point x="210" y="364" type="curve" smooth="yes"/>
      <point x="210" y="333"/>
      <point x="224" y="329"/>
      <point x="263" y="329" type="curve" smooth="yes"/>
    </contour>
    <contour>
      <point x="163" y="652" type="line"/>
      <point x="278" y="657" type="line"/>
      <point x="428" y="657"/>
      <point x="503" y="602"/>
      <point x="503" y="493" type="curve" smooth="yes"/>
      <point x="503" y="421"/>
      <point x="464" y="365"/>
      <point x="385" y="325" type="curve"/>
      <point x="380" y="323"/>
      <point x="380" y="319"/>
      <point x="385" y="312" type="curve"/>
      <point x="445" y="221"/>
      <point x="452" y="209"/>
      <point x="505" y="146" type="curve" smooth="yes"/>
      <point x="531" y="114"/>
      <point x="559" y="85"/>
      <point x="588" y="58" type="curve" smooth="yes"/>
      <point x="620" y="30"/>
      <point x="648" y="25"/>
      <point x="703" y="25" type="curve" smooth="yes"/>
      <point x="713" y="25"/>
      <point x="718" y="21"/>
      <point x="718" y="14" type="curve" smooth="yes"/>
      <point x="718" y="-11"/>
      <point x="674" y="-21"/>
      <point x="637" y="-21" type="curve" smooth="yes"/>
      <point x="512" y="-21"/>
      <point x="432" y="110"/>
      <point x="395" y="167" type="curve" smooth="yes"/>
      <point x="376" y="195"/>
      <point x="361" y="219"/>
      <point x="350" y="238" type="curve"/>
      <point x="327" y="273"/>
      <point x="286" y="295"/>
      <point x="225" y="302" type="curve" smooth="yes"/>
      <point x="215" y="303"/>
      <point x="210" y="297"/>
      <point x="210" y="282" type="curve" smooth="yes"/>
      <point x="210" y="110" type="line" smooth="yes"/>
      <point x="210" y="61"/>
      <point x="232" y="32"/>
      <point x="277" y="24" type="curve" smooth="yes"/>
      <point x="299" y="20"/>
      <point x="310" y="14"/>
      <point x="310" y="7" type="curve" smooth="yes"/>
      <point x="310" y="-1"/>
      <point x="300" y="-5"/>
      <point x="281" y="-5" type="curve" smooth="yes"/>
      <point x="262" y="-5"/>
      <point x="243" y="-4"/>
      <point x="226" y="-1" type="curve"/>
      <point x="209" y="1"/>
      <point x="194" y="2"/>
      <point x="183" y="2" type="curve"/>
      <point x="53" y="-5" type="line"/>
      <point x="34" y="-5"/>
      <point x="24" y="-1"/>
      <point x="24" y="7" type="curve" smooth="yes"/>
      <point x="24" y="14"/>
      <point x="36" y="20"/>
      <point x="60" y="25" type="curve"/>
      <point x="108" y="33"/>
      <point x="130" y="52"/>
      <point x="130" y="100" type="curve" smooth="yes"/>
      <point x="130" y="522" type="line" smooth="yes"/>
      <point x="130" y="586"/>
      <point x="117" y="614"/>
      <point x="71" y="622" type="curve" smooth="yes"/>
      <point x="48" y="626"/>
      <point x="36" y="633"/>
      <point x="36" y="642" type="curve" smooth="yes"/>
      <point x="36" y="649"/>
      <point x="46" y="653"/>
      <point x="65" y="653" type="curve" smooth="yes"/>
    </contour>
  </outline>
</glyph>
<glyph name="Sacute" format="1">
  <advance width="465"/>
  <unicode hex="015A"/>
  <outline>
    <contour>
      <point x="218" y="700"/>
      <point x="212" y="697"/>
      <point x="208" y="697" type="curve" smooth="yes"/>
      <point x="204" y="697"/>
      <point x="202" y="699"/>
      <point x="202" y="704" type="curve" smooth="yes"/>
      <point x="202" y="713"/>
      <point x="229" y="758"/>
      <point x="284" y="837" type="curve" smooth="yes"/>
      <point x="290" y="846"/>
      <point x="298" y="850"/>
      <point x="309" y="850" type="curve" smooth="yes"/>
      <point x="330" y="850"/>
      <point x="369" y="839"/>
      <point x="369" y="828" type="curve" smooth="yes"/>
      <point x="369" y="823"/>
      <point x="365" y="816"/>
      <point x="356" y="808" type="curve" smooth="yes"/>
      <point x="326" y="783"/>
      <point x="283" y="749"/>
      <point x="226" y="706" type="curve" smooth="yes"/>
    </contour>
    <contour>
      <point x="111" y="46"/>
      <point x="156" y="17"/>
      <point x="227" y="17" type="curve" smooth="yes"/>
      <point x="295" y="17"/>
      <point x="338" y="61"/>
      <point x="338" y="132" type="curve" smooth="yes"/>
      <point x="338" y="188"/>
      <point x="287" y="250"/>
      <point x="186" y="318" type="curve" smooth="yes"/>
      <point x="105" y="373"/>
      <point x="59" y="422"/>
      <point x="59" y="504" type="curve" smooth="yes"/>
      <point x="59" y="586"/>
      <point x="144" y="664"/>
      <point x="260" y="664" type="curve" smooth="yes"/>
      <point x="293" y="664"/>
      <point x="321" y="661"/>
      <point x="343" y="654" type="curve" smooth="yes"/>
      <point x="365" y="647"/>
      <point x="377" y="644"/>
      <point x="379" y="644" type="curve" smooth="yes"/>
      <point x="398" y="644"/>
      <point x="405" y="574"/>
      <point x="405" y="539" type="curve" smooth="yes"/>
      <point x="405" y="521"/>
      <point x="403" y="512"/>
      <point x="398" y="512" type="curve" smooth="yes"/>
      <point x="379" y="512"/>
      <point x="367" y="521"/>
      <point x="363" y="540" type="curve"/>
      <point x="354" y="597"/>
      <point x="309" y="631"/>
      <point x="249" y="631" type="curve" smooth="yes"/>
      <point x="188" y="631"/>
      <point x="136" y="588"/>
      <point x="136" y="523" type="curve" smooth="yes"/>
      <point x="136" y="462"/>
      <point x="214" y="410"/>
      <point x="269" y="375" type="curve" smooth="yes"/>
      <point x="371" y="309"/>
      <point x="422" y="237"/>
      <point x="422" y="160" type="curve" smooth="yes"/>
      <point x="422" y="68"/>
      <point x="353" y="-16"/>
      <point x="214" y="-16" type="curve" smooth="yes"/>
      <point x="159" y="-16"/>
      <point x="114" y="-8"/>
      <point x="80" y="8" type="curve" smooth="yes"/>
      <point x="69" y="13"/>
      <point x="62" y="19"/>
      <point x="59" y="25" type="curve" smooth="yes"/>
      <point x="47" y="50"/>
      <point x="41" y="89"/>
      <point x="41" y="140" type="curve" smooth="yes"/>
      <point x="41" y="151"/>
      <point x="51" y="169"/>
      <point x="63" y="169" type="curve" smooth="yes"/>
      <point x="68" y="169"/>
      <point x="78" y="147"/>
      <point x="92" y="103" type="curve" smooth="yes"/>
    </contour>
  </outline>
</glyph>
<glyph name="scedilla" format="1">
  <advance width="323"/>
  <unicode hex="015F"/>
  <outline>
    <contour>
      <point x="104" y="-129" type="line"/>
      <point x="96" y="-129"/>
      <point x="86" y="-121"/>
      <point x="86" y="-115" type="curve" smooth="yes"/>
      <point x="86" y="-112"/>
      <point x="88" y="-109"/>
      <point x="91" y="-104" type="curve"/>
      <point x="162" y="-14" type="line"/>
      <point x="149" y="-14" type="line" smooth="yes"/>
      <point x="100" y="-14"/>
      <point x="50" y="7"/>
      <point x="43" y="22" type="curve" smooth="yes"/>
      <point x="36" y="37"/>
      <point x="31" y="58"/>
      <point x="30" y="83" type="curve"/>
      <point x="30" y="89"/>
      <point x="35" y="92"/>
      <point x="46" y="92" type="curve" smooth="yes"/>
      <point x="56" y="92"/>
      <point x="61" y="90"/>
      <point x="62" y="85" type="curve" smooth="yes"/>
      <point x="69" y="50"/>
      <point x="114" y="13"/>
      <point x="158" y="13" type="curve" smooth="yes"/>
      <point x="201" y="13"/>
      <point x="225" y="42"/>
      <point x="225" y="79" type="curve" smooth="yes"/>
      <point x="225" y="116"/>
      <point x="203" y="136"/>
      <point x="147" y="176" type="curve" smooth="yes"/>
      <point x="90" y="216"/>
      <point x="53" y="249"/>
      <point x="53" y="304" type="curve" smooth="yes"/>
      <point x="53" y="359"/>
      <point x="99" y="414"/>
      <point x="179" y="414" type="curve" smooth="yes"/>
      <point x="219" y="414"/>
      <point x="247" y="406"/>
      <point x="262" y="391" type="curve"/>
      <point x="273" y="377"/>
      <point x="279" y="351"/>
      <point x="279" y="313" type="curve" smooth="yes"/>
      <point x="279" y="310"/>
      <point x="277" y="309"/>
      <point x="272" y="309" type="curve" smooth="yes"/>
      <point x="263" y="309"/>
      <point x="239" y="322"/>
      <point x="239" y="330" type="curve"/>
      <point x="238" y="359"/>
      <point x="209" y="388"/>
      <point x="174" y="388" type="curve" smooth="yes"/>
      <point x="138" y="388"/>
      <point x="113" y="360"/>
      <point x="113" y="328" type="curve" smooth="yes"/>
      <point x="113" y="296"/>
      <point x="143" y="267"/>
      <point x="160" y="256" type="curve"/>
      <point x="168" y="250"/>
      <point x="181" y="242"/>
      <point x="198" y="231" type="curve" smooth="yes"/>
      <point x="232" y="210"/>
      <point x="246" y="203"/>
      <point x="273" y="165" type="curve" smooth="yes"/>
      <point x="286" y="146"/>
      <point x="293" y="126"/>
      <point x="293" y="106" type="curve" smooth="yes"/>
      <point x="293" y="40"/>
      <point x="261" y="1"/>
      <point x="196" y="-10" type="curve"/>
      <point x="171" y="-43" type="line"/>
      <point x="168" y="-46"/>
      <point x="167" y="-48"/>
      <point x="167" y="-51" type="curve" smooth="yes"/>
      <point x="167" y="-57"/>
      <point x="173" y="-62"/>
      <point x="186" y="-67" type="curve" smooth="yes"/>
      <point x="210" y="-76"/>
      <point x="239" y="-107"/>
      <point x="239" y="-139" type="curve" smooth="yes"/>
      <point x="239" y="-211"/>
      <point x="159" y="-274"/>
      <point x="114" y="-274" type="curve" smooth="yes"/>
      <point x="94" y="-274"/>
      <point x="84" y="-260"/>
      <point x="84" y="-233" type="curve" smooth="yes"/>
      <point x="84" y="-221"/>
      <point x="92" y="-214"/>
      <point x="97" y="-214" type="curve"/>
      <point x="114" y="-220" type="line" smooth="yes"/>
      <point x="135" y="-228"/>
      <point x="189" y="-240"/>
      <point x="189" y="-180" type="curve" smooth="yes"/>
      <point x="189" y="-144"/>
      <point x="166" y="-123"/>
      <point x="130" y="-123" type="curve"/>
    </contour>
  </outline>
</glyph>
<glyph name="uni0162" format="1">
  <advance width="670"/>
  <unicode hex="0162"/>
  <outline>
    <contour>
      <point x="282" y="-122" type="line"/>
      <point x="266" y="-122"/>
      <point x="256" y="-112"/>
      <point x="256" y="-104" type="curve" smooth="yes"/>
      <point x="256" y="-100"/>
      <point x="258" y="-95"/>
      <point x="262" y="-90" type="curve" smooth="yes"/>
      <point x="329" y="0" type="line"/>
      <point x="214" y="-5" type="line"/>
      <point x="195" y="-5"/>
      <point x="185" y="-1"/>
      <point x="185" y="7" type="curve" smooth="yes"/>
      <point x="185" y="14"/>
      <point x="197" y="20"/>
      <point x="221" y="24" type="curve" smooth="yes"/>
      <point x="271" y="33"/>
      <point x="296" y="59"/>
      <point x="296" y="102" type="curve" smooth="yes"/>
      <point x="296" y="557" type="line" smooth="yes"/>
      <point x="296" y="610"/>
      <point x="277" y="604"/>
      <point x="204" y="604" type="curve" smooth="yes"/>
      <point x="157" y="604" type="line" smooth="yes"/>
      <point x="122" y="604"/>
      <point x="88" y="589"/>
      <point x="77" y="569" type="curve" smooth="yes"/>
      <point x="66" y="548"/>
      <point x="47" y="527"/>
      <point x="34" y="527" type="curve" smooth="yes"/>
      <point x="29" y="527"/>
      <point x="27" y="531"/>
      <point x="27" y="539" type="curve" smooth="yes"/>
      <point x="27" y="546"/>
      <point x="29" y="553"/>
      <point x="32" y="560" type="curve"/>
      <point x="47" y="591"/>
      <point x="57" y="628"/>
      <point x="63" y="671" type="curve" smooth="yes"/>
      <point x="65" y="686"/>
      <point x="71" y="694"/>
      <point x="80" y="694" type="curve" smooth="yes"/>
      <point x="85" y="694"/>
      <point x="94" y="683"/>
      <point x="105" y="662" type="curve" smooth="yes"/>
      <point x="112" y="649"/>
      <point x="136" y="642"/>
      <point x="175" y="642" type="curve" smooth="yes"/>
      <point x="556" y="642" type="line" smooth="yes"/>
      <point x="581" y="642"/>
      <point x="601" y="647"/>
      <point x="614" y="656" type="curve"/>
      <point x="619" y="659"/>
      <point x="625" y="664"/>
      <point x="632" y="671" type="curve"/>
      <point x="646" y="684"/>
      <point x="655" y="692"/>
      <point x="664" y="692" type="curve" smooth="yes"/>
      <point x="669" y="692"/>
      <point x="671" y="684"/>
      <point x="671" y="669" type="curve"/>
      <point x="670" y="660" type="line"/>
      <point x="659" y="616"/>
      <point x="654" y="583"/>
      <point x="654" y="561" type="curve" smooth="yes"/>
      <point x="654" y="549" type="line" smooth="yes"/>
      <point x="654" y="536"/>
      <point x="647" y="517"/>
      <point x="638" y="517" type="curve" smooth="yes"/>
      <point x="631" y="517"/>
      <point x="624" y="531"/>
      <point x="619" y="558" type="curve" smooth="yes"/>
      <point x="614" y="589"/>
      <point x="581" y="604"/>
      <point x="520" y="604" type="curve" smooth="yes"/>
      <point x="459" y="604"/>
      <point x="416" y="603"/>
      <point x="392" y="600" type="curve" smooth="yes"/>
      <point x="381" y="599"/>
      <point x="376" y="584"/>
      <point x="376" y="557" type="curve" smooth="yes"/>
      <point x="376" y="102" type="line" smooth="yes"/>
      <point x="376" y="59"/>
      <point x="402" y="33"/>
      <point x="455" y="24" type="curve" smooth="yes"/>
      <point x="477" y="20"/>
      <point x="488" y="14"/>
      <point x="488" y="7" type="curve" smooth="yes"/>
      <point x="488" y="-1"/>
      <point x="478" y="-5"/>
      <point x="459" y="-5" type="curve"/>
      <point x="361" y="0" type="line"/>
      <point x="332" y="-44" type="line"/>
      <point x="327" y="-50"/>
      <point x="332" y="-56"/>
      <point x="347" y="-62" type="curve" smooth="yes"/>
      <point x="375" y="-74"/>
      <point x="408" y="-106"/>
      <point x="408" y="-149" type="curve" smooth="yes"/>
      <point x="408" y="-212"/>
      <point x="332" y="-265"/>
      <point x="276" y="-265" type="curve" smooth="yes"/>
      <point x="248" y="-265"/>
      <point x="234" y="-254"/>
      <point x="234" y="-233" type="curve" smooth="yes"/>
      <point x="234" y="-210"/>
      <point x="239" y="-199"/>
      <point x="250" y="-199" type="curve" smooth="yes"/>
      <point x="251" y="-199"/>
      <point x="254" y="-200"/>
      <point x="258" y="-202" type="curve"/>
      <point x="269" y="-209"/>
      <point x="283" y="-212"/>
      <point x="302" y="-212" type="curve" smooth="yes"/>
      <point x="337" y="-212"/>
      <point x="355" y="-199"/>
      <point x="355" y="-173" type="curve" smooth="yes"/>
      <point x="355" y="-145"/>
      <point x="340" y="-119"/>
      <point x="308" y="-119" type="curve"/>
    </contour>
  </outline>
</glyph>
<glyph name="Tbar" format="1">
  <advance width="670"/>
  <unicode hex="0166"/>
  <outline>
    <contour>
      <point x="342" y="0" type="line"/>
      <point x="214" y="-5" type="line"/>
      <point x="195" y="-5"/>
      <point x="185" y="-1"/>
      <point x="185" y="7" type="curve" smooth="yes"/>
      <point x="185" y="14"/>
      <point x="197" y="20"/>
      <point x="221" y="25" type="curve"/>
      <point x="269" y="33"/>
      <point x="296" y="56"/>
      <point x="296" y="105" type="curve" smooth="yes"/>
      <point x="296" y="362" type="line"/>
      <point x="171" y="362" type="line" smooth="yes"/>
      <point x="163" y="362"/>
      <point x="157" y="372"/>
      <point x="157" y="381" type="curve" smooth="yes"/>
      <point x="157" y="389"/>
      <point x="169" y="398"/>
      <point x="181" y="398" type="curve" smooth="yes"/>
      <point x="296" y="398" type="line"/>
      <point x="296" y="557" type="line" smooth="yes"/>
      <point x="296" y="610"/>
      <point x="278" y="604"/>
      <point x="202" y="604" type="curve" smooth="yes"/>
      <point x="157" y="604" type="line" smooth="yes"/>
      <point x="122" y="604"/>
      <point x="88" y="589"/>
      <point x="77" y="569" type="curve" smooth="yes"/>
      <point x="66" y="548"/>
      <point x="47" y="527"/>
      <point x="34" y="527" type="curve" smooth="yes"/>
      <point x="29" y="527"/>
      <point x="27" y="531"/>
      <point x="27" y="539" type="curve" smooth="yes"/>
      <point x="27" y="546"/>
      <point x="29" y="553"/>
      <point x="32" y="560" type="curve"/>
      <point x="47" y="591"/>
      <point x="57" y="628"/>
      <point x="63" y="671" type="curve" smooth="yes"/>
      <point x="65" y="686"/>
      <point x="71" y="694"/>
      <point x="80" y="694" type="curve" smooth="yes"/>
      <point x="85" y="694"/>
      <point x="94" y="683"/>
      <point x="105" y="662" type="curve"/>
      <point x="112" y="650"/>
      <point x="141" y="643"/>
      <point x="192" y="642" type="curve" smooth="yes"/>
      <point x="243" y="640"/>
      <point x="295" y="639"/>
      <point x="348" y="639" type="curve" smooth="yes"/>
      <point x="401" y="639"/>
      <point x="471" y="641"/>
      <point x="558" y="645" type="curve" smooth="yes"/>
      <point x="599" y="646"/>
      <point x="624" y="654"/>
      <point x="633" y="667" type="curve" smooth="yes"/>
      <point x="642" y="680"/>
      <point x="649" y="686"/>
      <point x="654" y="686" type="curve" smooth="yes"/>
      <point x="665" y="686"/>
      <point x="670" y="681"/>
      <point x="670" y="670" type="curve" smooth="yes"/>
      <point x="670" y="659"/>
      <point x="667" y="640"/>
      <point x="662" y="614" type="curve" smooth="yes"/>
      <point x="657" y="587"/>
      <point x="654" y="568"/>
      <point x="654" y="557" type="curve" smooth="yes"/>
      <point x="654" y="552" type="line" smooth="yes"/>
      <point x="654" y="535"/>
      <point x="650" y="527"/>
      <point x="641" y="527" type="curve" smooth="yes"/>
      <point x="639" y="527" type="line"/>
      <point x="627" y="530"/>
      <point x="620" y="557"/>
      <point x="620" y="559" type="curve"/>
      <point x="619" y="561"/>
      <point x="615" y="572"/>
      <point x="612" y="576" type="curve"/>
      <point x="611" y="577"/>
      <point x="609" y="580"/>
      <point x="607" y="584" type="curve"/>
      <point x="602" y="591"/>
      <point x="595" y="594"/>
      <point x="586" y="598" type="curve"/>
      <point x="575" y="602"/>
      <point x="561" y="604"/>
      <point x="544" y="604" type="curve" smooth="yes"/>
      <point x="467" y="604"/>
      <point x="416" y="603"/>
      <point x="392" y="600" type="curve" smooth="yes"/>
      <point x="381" y="599"/>
      <point x="376" y="584"/>
      <point x="376" y="557" type="curve" smooth="yes"/>
      <point x="376" y="398" type="line"/>
      <point x="508" y="398" type="line" smooth="yes"/>
      <point x="516" y="398"/>
      <point x="524" y="391"/>
      <point x="521" y="384" type="curve"/>
      <point x="513" y="369"/>
      <point x="503" y="362"/>
      <point x="490" y="362" type="curve" smooth="yes"/>
      <point x="376" y="362" type="line"/>
      <point x="376" y="105" type="line" smooth="yes"/>
      <point x="376" y="56"/>
      <point x="403" y="33"/>
      <point x="452" y="25" type="curve"/>
      <point x="476" y="20"/>
      <point x="488" y="14"/>
      <point x="488" y="7" type="curve" smooth="yes"/>
      <point x="488" y="-1"/>
      <point x="478" y="-5"/>
      <point x="459" y="-5" type="curve"/>
    </contour>
  </outline>
</glyph>
<glyph name="Ubreve" format="1">
  <advance width="738"/>
  <unicode hex="016C"/>
  <outline>
    <contour>
      <point x="240" y="838"/>
      <point x="243" y="846"/>
      <point x="250" y="846" type="curve" smooth="yes"/>
      <point x="257" y="846"/>
      <point x="264" y="839"/>
      <point x="273" y="824" type="curve"/>
      <point x="289" y="795"/>
      <point x="329" y="762"/>
      <point x="390" y="762" type="curve" smooth="yes"/>
      <point x="451" y="762"/>
      <point x="491" y="795"/>
      <point x="508" y="824" type="curve"/>
      <point x="516" y="839"/>
      <point x="523" y="846"/>
      <point x="530" y="846" type="curve" smooth="yes"/>
      <point x="537" y="846"/>
      <point x="540" y="838"/>
      <point x="540" y="822" type="curve" smooth="yes"/>
      <point x="540" y="757"/>
      <point x="469" y="692"/>
      <point x="389" y="692" type="curve" smooth="yes"/>
      <point x="309" y="692"/>
      <point x="240" y="749"/>
      <point x="240" y="822" type="curve" smooth="yes"/>
    </contour>
    <contour>
      <point x="618" y="650" type="line"/>
      <point x="699" y="653" type="line"/>
      <point x="718" y="653"/>
      <point x="728" y="649"/>
      <point x="728" y="642" type="curve" smooth="yes"/>
      <point x="728" y="633"/>
      <point x="717" y="627"/>
      <point x="695" y="622" type="curve" smooth="yes"/>
      <point x="664" y="616"/>
      <point x="647" y="591"/>
      <point x="645" y="547" type="curve"/>
      <point x="644" y="540"/>
      <point x="641" y="441"/>
      <point x="635" y="250" type="curve" smooth="yes"/>
      <point x="630" y="95"/>
      <point x="524" y="-14"/>
      <point x="380" y="-14" type="curve" smooth="yes"/>
      <point x="191" y="-14"/>
      <point x="103" y="84"/>
      <point x="103" y="281" type="curve" smooth="yes"/>
      <point x="103" y="547" type="line" smooth="yes"/>
      <point x="103" y="587"/>
      <point x="88" y="611"/>
      <point x="57" y="620" type="curve" smooth="yes"/>
      <point x="35" y="626"/>
      <point x="24" y="633"/>
      <point x="24" y="642" type="curve" smooth="yes"/>
      <point x="24" y="649"/>
      <point x="34" y="653"/>
      <point x="53" y="653" type="curve" smooth="yes"/>
      <point x="149" y="650" type="line"/>
      <point x="229" y="652" type="line" smooth="yes"/>
      <point x="248" y="652"/>
      <point x="258" y="648"/>
      <point x="258" y="641" type="curve" smooth="yes"/>
      <point x="258" y="635"/>
      <point x="247" y="628"/>
      <point x="225" y="621" type="curve"/>
      <point x="206" y="616"/>
      <point x="183" y="585"/>
      <point x="183" y="549" type="curve" smooth="yes"/>
      <point x="183" y="253" type="line" smooth="yes"/>
      <point x="183" y="133"/>
      <point x="281" y="36"/>
      <point x="404" y="36" type="curve" smooth="yes"/>
      <point x="527" y="36"/>
      <point x="592" y="135"/>
      <point x="592" y="296" type="curve" smooth="yes"/>
      <point x="592" y="337"/>
      <point x="591" y="408"/>
      <point x="588" y="511" type="curve" smooth="yes"/>
      <point x="587" y="576"/>
      <point x="573" y="613"/>
      <point x="547" y="620" type="curve" smooth="yes"/>
      <point x="525" y="626"/>
      <point x="514" y="633"/>
      <point x="514" y="640" type="curve" smooth="yes"/>
      <point x="514" y="647"/>
      <point x="524" y="651"/>
      <point x="543" y="651" type="curve" smooth="yes"/>
    </contour>
  </outline>
</glyph>
<glyph name="Ycircumflex" format="1">
  <advance width="578"/>
  <unicode hex="0176"/>
  <outline>
    <contour>
      <point x="279" y="739"/>
      <point x="202" y="701"/>
      <point x="186" y="701" type="curve" smooth="yes"/>
      <point x="178" y="701"/>
      <point x="174" y="704"/>
      <point x="174" y="711" type="curve" smooth="yes"/>
      <point x="174" y="715"/>
      <point x="176" y="719"/>
      <point x="181" y="723" type="curve"/>
      <point x="279" y="811" type="line" smooth="yes"/>
      <point x="296" y="826"/>
      <point x="309" y="833"/>
      <point x="320" y="833" type="curve" smooth="yes"/>
      <point x="331" y="833"/>
      <point x="344" y="826"/>
      <point x="361" y="811" type="curve" smooth="yes"/>
      <point x="459" y="723" type="line"/>
      <point x="463" y="720"/>
      <point x="465" y="716"/>
      <point x="465" y="711" type="curve" smooth="yes"/>
      <point x="465" y="704"/>
      <point x="461" y="700"/>
      <point x="454" y="700" type="curve" smooth="yes"/>
      <point x="438" y="700"/>
      <point x="360" y="739"/>
      <point x="337" y="752" type="curve"/>
      <point x="326" y="759"/>
      <point x="317" y="760"/>
      <point x="310" y="756" type="curve" smooth="yes"/>
    </contour>
    <contour>
      <point x="310" y="0" type="line"/>
      <point x="182" y="-5" type="line"/>
      <point x="163" y="-5"/>
      <point x="153" y="-1"/>
      <point x="153" y="7" type="curve" smooth="yes"/>
      <point x="153" y="14"/>
      <point x="164" y="20"/>
      <point x="186" y="24" type="curve" smooth="yes"/>
      <point x="238" y="33"/>
      <point x="264" y="61"/>
      <point x="264" y="108" type="curve" smooth="yes"/>
      <point x="264" y="256" type="line" smooth="yes"/>
      <point x="264" y="275"/>
      <point x="256" y="300"/>
      <point x="239" y="330" type="curve" smooth="yes"/>
      <point x="122" y="522" type="line" smooth="yes"/>
      <point x="85" y="581"/>
      <point x="56" y="613"/>
      <point x="34" y="620" type="curve" smooth="yes"/>
      <point x="11" y="627"/>
      <point x="0" y="634"/>
      <point x="0" y="642" type="curve" smooth="yes"/>
      <point x="0" y="649"/>
      <point x="10" y="653"/>
      <point x="29" y="653" type="curve" smooth="yes"/>
      <point x="146" y="650" type="line"/>
      <point x="226" y="652" type="line" smooth="yes"/>
      <point x="245" y="652"/>
      <point x="255" y="648"/>
      <point x="255" y="641" type="curve" smooth="yes"/>
      <point x="255" y="632"/>
      <point x="244" y="626"/>
      <point x="223" y="621" type="curve" smooth="yes"/>
      <point x="201" y="616"/>
      <point x="190" y="607"/>
      <point x="190" y="596" type="curve" smooth="yes"/>
      <point x="190" y="587"/>
      <point x="194" y="575"/>
      <point x="203" y="560" type="curve" smooth="yes"/>
      <point x="295" y="395" type="line" smooth="yes"/>
      <point x="310" y="370"/>
      <point x="319" y="357"/>
      <point x="323" y="357" type="curve" smooth="yes"/>
      <point x="334" y="357"/>
      <point x="373" y="416"/>
      <point x="440" y="534" type="curve" smooth="yes"/>
      <point x="452" y="554"/>
      <point x="458" y="571"/>
      <point x="458" y="585" type="curve" smooth="yes"/>
      <point x="458" y="604"/>
      <point x="444" y="616"/>
      <point x="417" y="620" type="curve"/>
      <point x="402" y="623"/>
      <point x="384" y="632"/>
      <point x="384" y="640" type="curve" smooth="yes"/>
      <point x="384" y="647"/>
      <point x="394" y="651"/>
      <point x="413" y="651" type="curve" smooth="yes"/>
      <point x="488" y="650" type="line"/>
      <point x="592" y="653" type="line" smooth="yes"/>
      <point x="611" y="653"/>
      <point x="621" y="650"/>
      <point x="621" y="643" type="curve" smooth="yes"/>
      <point x="621" y="636"/>
      <point x="603" y="627"/>
      <point x="568" y="617" type="curve" smooth="yes"/>
      <point x="552" y="612"/>
      <point x="539" y="604"/>
      <point x="528" y="592" type="curve" smooth="yes"/>
      <point x="501" y="563"/>
      <point x="448" y="481"/>
      <point x="369" y="346" type="curve" smooth="yes"/>
      <point x="345" y="305"/>
      <point x="344" y="297"/>
      <point x="344" y="256" type="curve" smooth="yes"/>
      <point x="344" y="108" type="line" smooth="yes"/>
      <point x="344" y="63"/>
      <point x="373" y="33"/>
      <point x="421" y="25" type="curve"/>
      <point x="444" y="20"/>
      <point x="456" y="14"/>
      <point x="456" y="7" type="curve" smooth="yes"/>
      <point x="456" y="-1"/>
      <point x="446" y="-5"/>
      <point x="427" y="-5" type="curve"/>
    </contour>
  </outline>
</glyph>
<glyph name="Ydieresis" format="1">
  <advance width="578"/>
  <unicode hex="0178"/>
  <outline>
    <contour>
      <point x="391" y="796"/>
      <point x="403" y="801"/>
      <point x="417" y="801" type="curve" smooth="yes"/>
      <point x="445" y="801"/>
      <point x="467" y="779"/>
      <point x="467" y="751" type="curve" smooth="yes"/>
      <point x="467" y="723"/>
      <point x="445" y="701"/>
      <point x="417" y="701" type="curve" smooth="yes"/>
      <point x="389" y="701"/>
      <point x="367" y="723"/>
      <point x="367" y="751" type="curve" smooth="yes"/>
      <point x="367" y="765"/>
      <point x="372" y="777"/>
      <point x="382" y="787" type="curve" smooth="yes"/>
    </contour>
    <contour>
      <point x="196" y="796"/>
      <point x="208" y="801"/>
      <point x="222" y="801" type="curve" smooth="yes"/>
      <point x="250" y="801"/>
      <point x="272" y="779"/>
      <point x="272" y="751" type="curve" smooth="yes"/>
      <point x="272" y="723"/>
      <point x="250" y="701"/>
      <point x="222" y="701" type="curve" smooth="yes"/>
      <point x="194" y="701"/>
      <point x="172" y="723"/>
      <point x="172" y="751" type="curve" smooth="yes"/>
      <point x="172" y="765"/>
      <point x="177" y="777"/>
      <point x="187" y="787" type="curve" smooth="yes"/>
    </contour>
    <contour>
      <point x="310" y="0" type="line"/>
      <point x="182" y="-5" type="line"/>
      <point x="163" y="-5"/>
      <point x="153" y="-1"/>
      <point x="153" y="7" type="curve" smooth="yes"/>
      <point x="153" y="14"/>
      <point x="164" y="20"/>
      <point x="186" y="24" type="curve" smooth="yes"/>
      <point x="238" y="33"/>
      <point x="264" y="61"/>
      <point x="264" y="108" type="curve" smooth="yes"/>
      <point x="264" y="256" type="line" smooth="yes"/>
      <point x="264" y="275"/>
      <point x="256" y="300"/>
      <point x="239" y="330" type="curve" smooth="yes"/>
      <point x="122" y="522" type="line" smooth="yes"/>
      <point x="85" y="581"/>
      <point x="56" y="613"/>
      <point x="34" y="620" type="curve" smooth="yes"/>
      <point x="11" y="627"/>
      <point x="0" y="634"/>
      <point x="0" y="642" type="curve" smooth="yes"/>
      <point x="0" y="649"/>
      <point x="10" y="653"/>
      <point x="29" y="653" type="curve" smooth="yes"/>
      <point x="146" y="650" type="line"/>
      <point x="226" y="652" type="line" smooth="yes"/>
      <point x="245" y="652"/>
      <point x="255" y="648"/>
      <point x="255" y="641" type="curve" smooth="yes"/>
      <point x="255" y="632"/>
      <point x="244" y="626"/>
      <point x="223" y="621" type="curve" smooth="yes"/>
      <point x="201" y="616"/>
      <point x="190" y="607"/>
      <point x="190" y="596" type="curve" smooth="yes"/>
      <point x="190" y="587"/>
      <point x="194" y="575"/>
      <point x="203" y="560" type="curve" smooth="yes"/>
      <point x="295" y="395" type="line" smooth="yes"/>
      <point x="310" y="370"/>
      <point x="319" y="357"/>
      <point x="323" y="357" type="curve" smooth="yes"/>
      <point x="334" y="357"/>
      <point x="373" y="416"/>
      <point x="440" y="534" type="curve" smooth="yes"/>
      <point x="452" y="554"/>
      <point x="458" y="571"/>
      <point x="458" y="585" type="curve" smooth="yes"/>
      <point x="458" y="604"/>
      <point x="444" y="616"/>
      <point x="417" y="620" type="curve"/>
      <point x="402" y="623"/>
      <point x="384" y="632"/>
      <point x="384" y="640" type="curve" smooth="yes"/>
      <point x="384" y="647"/>
      <point x="394" y="651"/>
      <point x="413" y="651" type="curve" smooth="yes"/>
      <point x="488" y="650" type="line"/>
      <point x="592" y="653" type="line" smooth="yes"/>
      <point x="611" y="653"/>
      <point x="621" y="650"/>
      <point x="621" y="643" type="curve" smooth="yes"/>
      <point x="621" y="636"/>
      <point x="603" y="627"/>
      <point x="568" y="617" type="curve" smooth="yes"/>
      <point x="552" y="612"/>
      <point x="539" y="604"/>
      <point x="528" y="592" type="curve" smooth="yes"/>
      <point x="501" y="563"/>
      <point x="448" y="481"/>
      <point x="369" y="346" type="curve" smooth="yes"/>
      <point x="345" y="305"/>
      <point x="344" y="297"/>
      <point x="344" y="256" type="curve" smooth="yes"/>
      <point x="344" y="108" type="line" smooth="yes"/>
      <point x="344" y="63"/>
      <point x="373" y="33"/>
      <point x="421" y="25" type="curve"/>
      <point x="444" y="20"/>
      <point x="456" y="14"/>
      <point x="456" y="7" type="curve" smooth="yes"/>
      <point x="456" y="-1"/>
      <point x="446" y="-5"/>
      <point x="427" y="-5" type="curve"/>
    </contour>
  </outline>
</glyph>
<glyph name="anoteleia" format="1">
  <advance width="200"/>
  <unicode hex="0387"/>
  <outline>
    <contour>
      <point x="129" y="150"/>
      <point x="155" y="174"/>
      <point x="155" y="205" type="curve" smooth="yes"/>
      <point x="155" y="236"/>
      <point x="129" y="260"/>
      <point x="100" y="260" type="curve" smooth="yes"/>
      <point x="85" y="260"/>
      <point x="73" y="255"/>
      <point x="62" y="244" type="curve" smooth="yes"/>
      <point x="51" y="233"/>
      <point x="45" y="220"/>
      <point x="45" y="205" type="curve" smooth="yes"/>
      <point x="45" y="174"/>
      <point x="71" y="150"/>
      <point x="100" y="150" type="curve" smooth="yes"/>
    </contour>
  </outline>
</glyph>
<glyph name="knA" format="1">
  <advance width="752"/>
  <unicode hex="0C85"/>
  <outline>
    <contour>
      <point x="587" y="-14"/>
      <point x="707" y="104"/>
      <point x="707" y="280" type="curve" smooth="yes"/>
      <point x="707" y="414"/>
      <point x="635" y="520"/>
      <point x="535" y="520" type="curve" smooth="yes"/>
      <point x="467" y="520"/>
      <point x="440" y="471"/>
      <point x="440" y="423" type="curve" smooth="yes"/>
      <point x="440" y="392"/>
      <point x="452" y="368"/>
      <point x="464" y="354" type="curve"/>
      <point x="369" y="354" type="line"/>
      <point x="369" y="283" type="line"/>
      <point x="599" y="283" type="line"/>
      <point x="599" y="354" type="line"/>
      <point x="546" y="354" type="line" smooth="yes"/>
      <point x="501" y="354"/>
      <point x="480" y="379"/>
      <point x="480" y="406" type="curve" smooth="yes"/>
      <point x="480" y="434"/>
      <point x="504" y="454"/>
      <point x="545" y="454" type="curve" smooth="yes"/>
      <point x="624" y="454"/>
      <point x="668" y="389"/>
      <point x="668" y="300" type="curve" smooth="yes"/>
      <point x="668" y="171"/>
      <point x="566" y="71"/>
      <point x="376" y="71" type="curve" smooth="yes"/>
      <point x="185" y="71"/>
      <point x="85" y="171"/>
      <point x="85" y="302" type="curve" smooth="yes"/>
      <point x="85" y="387"/>
      <point x="127" y="454"/>
      <point x="217" y="454" type="curve" smooth="yes"/>
      <point x="258" y="454"/>
      <point x="292" y="440"/>
      <point x="292" y="401" type="curve" smooth="yes"/>
      <point x="292" y="365"/>
      <point x="264" y="344"/>
      <point x="220" y="344" type="curve" smooth="yes"/>
      <point x="175" y="344"/>
      <point x="144" y="365"/>
      <point x="144" y="409" type="curve" smooth="yes"/>
      <point x="144" y="423"/>
      <point x="147" y="439"/>
      <point x="151" y="450" type="curve"/>
      <point x="120" y="429" type="line"/>
      <point x="118" y="417"/>
      <point x="116" y="400"/>
      <point x="116" y="383" type="curve" smooth="yes"/>
      <point x="116" y="308"/>
      <point x="159" y="273"/>
      <point x="214" y="273" type="curve" smooth="yes"/>
      <point x="280" y="273"/>
      <point x="322" y="325"/>
      <point x="322" y="393" type="curve" smooth="yes"/>
      <point x="322" y="457"/>
      <point x="286" y="519"/>
      <point x="211" y="519" type="curve" smooth="yes"/>
      <point x="113" y="519"/>
      <point x="45" y="414"/>
      <point x="45" y="283" type="curve" smooth="yes"/>
      <point x="45" y="104"/>
      <point x="165" y="-14"/>
      <point x="376" y="-14" type="curve" smooth="yes"/>
    </contour>
  </outline>
</glyph>
<glyph name="knAA" format="1">
  <advance width="714"/>
  <unicode hex="0C86"/>
  <outline>
    <contour>
      <point x="559" y="355" type="line"/>
      <point x="547" y="370"/>
      <point x="539" y="385"/>
      <point x="539" y="403" type="curve" smooth="yes"/>
      <point x="539" y="432"/>
      <point x="561" y="454"/>
      <point x="600" y="454" type="curve" smooth="yes"/>
      <point x="639" y="454"/>
      <point x="663" y="431"/>
      <point x="663" y="402" type="curve" smooth="yes"/>
      <point x="663" y="373"/>
      <point x="637" y="355"/>
      <point x="586" y="355" type="curve" smooth="yes"/>
    </contour>
    <contour>
      <point x="185" y="71"/>
      <point x="85" y="171"/>
      <point x="85" y="302" type="curve" smooth="yes"/>
      <point x="85" y="387"/>
      <point x="127" y="454"/>
      <point x="217" y="454" type="curve" smooth="yes"/>
      <point x="258" y="454"/>
      <point x="292" y="440"/>
      <point x="292" y="401" type="curve" smooth="yes"/>
      <point x="292" y="365"/>
      <point x="264" y="344"/>
      <point x="220" y="344" type="curve" smooth="yes"/>
      <point x="175" y="344"/>
      <point x="144" y="365"/>
      <point x="144" y="408" type="curve" smooth="yes"/>
      <point x="144" y="426"/>
      <point x="148" y="440"/>
      <point x="151" y="450" type="curve"/>
      <point x="120" y="429" type="line"/>
      <point x="117" y="407"/>
      <point x="116" y="394"/>
      <point x="116" y="382" type="curve" smooth="yes"/>
      <point x="116" y="308"/>
      <point x="159" y="273"/>
      <point x="213" y="273" type="curve" smooth="yes"/>
      <point x="280" y="273"/>
      <point x="322" y="325"/>
      <point x="322" y="394" type="curve" smooth="yes"/>
      <point x="322" y="457"/>
      <point x="286" y="519"/>
      <point x="211" y="519" type="curve" smooth="yes"/>
      <point x="113" y="519"/>
      <point x="45" y="414"/>
      <point x="45" y="280" type="curve" smooth="yes"/>
      <point x="45" y="104"/>
      <point x="165" y="-14"/>
      <point x="366" y="-14" type="curve" smooth="yes"/>
      <point x="560" y="-14"/>
      <point x="650" y="90"/>
      <point x="650" y="193" type="curve" smooth="yes"/>
      <point x="650" y="236"/>
      <point x="634" y="268"/>
      <point x="615" y="293" type="curve"/>
      <point x="665" y="310"/>
      <point x="694" y="351"/>
      <point x="694" y="402" type="curve" smooth="yes"/>
      <point x="694" y="463"/>
      <point x="653" y="519"/>
      <point x="588" y="519" type="curve" smooth="yes"/>
      <point x="537" y="519"/>
      <point x="500" y="485"/>
      <point x="500" y="422" type="curve" smooth="yes"/>
      <point x="500" y="395"/>
      <point x="507" y="373"/>
      <point x="517" y="355" type="curve"/>
      <point x="381" y="355" type="line"/>
      <point x="381" y="283" type="line"/>
      <point x="553" y="283" type="line" smooth="yes"/>
      <point x="560" y="283"/>
      <point x="567" y="283"/>
      <point x="574" y="284" type="curve"/>
      <point x="592" y="262"/>
      <point x="606" y="241"/>
      <point x="606" y="211" type="curve" smooth="yes"/>
      <point x="606" y="136"/>
      <point x="520" y="71"/>
      <point x="367" y="71" type="curve" smooth="yes"/>
    </contour>
  </outline>
</glyph>
<glyph name="knUU" format="1">
  <advance width="1384"/>
  <unicode hex="0C8A"/>
  <outline>
    <contour>
      <point x="864" y="-14"/>
      <point x="907" y="73"/>
      <point x="907" y="231" type="curve" smooth="yes"/>
      <point x="907" y="371"/>
      <point x="983" y="441"/>
      <point x="1090" y="441" type="curve" smooth="yes"/>
      <point x="1205" y="441"/>
      <point x="1304" y="363"/>
      <point x="1304" y="235" type="curve" smooth="yes"/>
      <point x="1304" y="129"/>
      <point x="1242" y="68"/>
      <point x="1152" y="68" type="curve" smooth="yes"/>
      <point x="1078" y="68"/>
      <point x="1034" y="113"/>
      <point x="1034" y="172" type="curve" smooth="yes"/>
      <point x="1034" y="212"/>
      <point x="1055" y="237"/>
      <point x="1067" y="237" type="curve" smooth="yes"/>
      <point x="1072" y="237"/>
      <point x="1073" y="233"/>
      <point x="1073" y="227" type="curve" smooth="yes"/>
      <point x="1074" y="191"/>
      <point x="1095" y="165"/>
      <point x="1128" y="165" type="curve" smooth="yes"/>
      <point x="1163" y="165"/>
      <point x="1189" y="194"/>
      <point x="1188" y="230" type="curve"/>
      <point x="1189" y="262"/>
      <point x="1164" y="299"/>
      <point x="1109" y="299" type="curve" smooth="yes"/>
      <point x="1037" y="299"/>
      <point x="997" y="235"/>
      <point x="996" y="157" type="curve" smooth="yes"/>
      <point x="997" y="58"/>
      <point x="1057" y="-14"/>
      <point x="1153" y="-14" type="curve" smooth="yes"/>
      <point x="1265" y="-14"/>
      <point x="1339" y="92"/>
      <point x="1339" y="238" type="curve" smooth="yes"/>
      <point x="1339" y="402"/>
      <point x="1229" y="519"/>
      <point x="1081" y="519" type="curve" smooth="yes"/>
      <point x="959" y="519"/>
      <point x="870" y="423"/>
      <point x="870" y="248" type="curve" smooth="yes"/>
      <point x="870" y="116"/>
      <point x="834" y="71"/>
      <point x="761" y="71" type="curve" smooth="yes"/>
      <point x="692" y="71"/>
      <point x="658" y="138"/>
      <point x="658" y="207" type="curve" smooth="yes"/>
      <point x="658" y="256"/>
      <point x="666" y="312"/>
      <point x="666" y="375" type="curve" smooth="yes"/>
      <point x="666" y="453"/>
      <point x="622" y="519"/>
      <point x="538" y="519" type="curve" smooth="yes"/>
      <point x="454" y="519"/>
      <point x="404" y="453"/>
      <point x="404" y="364" type="curve" smooth="yes"/>
      <point x="404" y="312"/>
      <point x="421" y="256"/>
      <point x="421" y="189" type="curve" smooth="yes"/>
      <point x="421" y="118"/>
      <point x="364" y="71"/>
      <point x="287" y="71" type="curve" smooth="yes"/>
      <point x="175" y="71"/>
      <point x="85" y="171"/>
      <point x="85" y="301" type="curve" smooth="yes"/>
      <point x="85" y="387"/>
      <point x="127" y="454"/>
      <point x="217" y="454" type="curve" smooth="yes"/>
      <point x="258" y="454"/>
      <point x="292" y="440"/>
      <point x="292" y="401" type="curve" smooth="yes"/>
      <point x="292" y="365"/>
      <point x="264" y="344"/>
      <point x="220" y="344" type="curve" smooth="yes"/>
      <point x="175" y="344"/>
      <point x="144" y="365"/>
      <point x="144" y="409" type="curve" smooth="yes"/>
      <point x="144" y="423"/>
      <point x="147" y="439"/>
      <point x="151" y="450" type="curve"/>
      <point x="120" y="429" type="line"/>
      <point x="118" y="417"/>
      <point x="116" y="400"/>
      <point x="116" y="383" type="curve" smooth="yes"/>
      <point x="116" y="308"/>
      <point x="159" y="273"/>
      <point x="214" y="273" type="curve" smooth="yes"/>
      <point x="280" y="273"/>
      <point x="322" y="325"/>
      <point x="322" y="394" type="curve" smooth="yes"/>
      <point x="322" y="457"/>
      <point x="286" y="519"/>
      <point x="210" y="519" type="curve" smooth="yes"/>
      <point x="113" y="519"/>
      <point x="45" y="414"/>
      <point x="45" y="276" type="curve" smooth="yes"/>
      <point x="45" y="104"/>
      <point x="153" y="-14"/>
      <point x="290" y="-14" type="curve" smooth="yes"/>
      <point x="392" y="-14"/>
      <point x="458" y="42"/>
      <point x="458" y="150" type="curve" smooth="yes"/>
      <point x="458" y="229"/>
      <point x="446" y="284"/>
      <point x="446" y="339" type="curve" smooth="yes"/>
      <point x="446" y="396"/>
      <point x="477" y="441"/>
      <point x="536" y="441" type="curve" smooth="yes"/>
      <point x="590" y="441"/>
      <point x="624" y="406"/>
      <point x="624" y="339" type="curve" smooth="yes"/>
      <point x="624" y="276"/>
      <point x="619" y="220"/>
      <point x="619" y="150" type="curve" smooth="yes"/>
      <point x="619" y="65"/>
      <point x="660" y="-14"/>
      <point x="764" y="-14" type="curve" smooth="yes"/>
    </contour>
  </outline>
</glyph>
<glyph name="knvR" format="1">
  <advance width="1127"/>
  <unicode hex="0C8B"/>
  <outline>
    <contour>
      <point x="987" y="-14"/>
      <point x="1067" y="95"/>
      <point x="1067" y="242" type="curve" smooth="yes"/>
      <point x="1067" y="415"/>
      <point x="971" y="514"/>
      <point x="901" y="514" type="curve" smooth="yes"/>
      <point x="869" y="514"/>
      <point x="852" y="494"/>
      <point x="852" y="471" type="curve" smooth="yes"/>
      <point x="852" y="452"/>
      <point x="864" y="436"/>
      <point x="880" y="431" type="curve" smooth="yes"/>
      <point x="891" y="428"/>
      <point x="902" y="427"/>
      <point x="913" y="427" type="curve" smooth="yes"/>
      <point x="924" y="426"/>
      <point x="934" y="426"/>
      <point x="945" y="422" type="curve" smooth="yes"/>
      <point x="985" y="408"/>
      <point x="1032" y="344"/>
      <point x="1032" y="255" type="curve" smooth="yes"/>
      <point x="1032" y="137"/>
      <point x="962" y="71"/>
      <point x="871" y="71" type="curve" smooth="yes"/>
      <point x="805" y="71"/>
      <point x="752" y="105"/>
      <point x="715" y="207" type="curve"/>
      <point x="695" y="188" type="line"/>
      <point x="713" y="61"/>
      <point x="788" y="-14"/>
      <point x="878" y="-14" type="curve" smooth="yes"/>
    </contour>
    <contour>
      <point x="628" y="434" type="line" smooth="yes"/>
      <point x="709" y="434"/>
      <point x="763" y="480"/>
      <point x="763" y="552" type="curve" smooth="yes"/>
      <point x="763" y="607"/>
      <point x="732" y="648"/>
      <point x="689" y="664" type="curve"/>
      <point x="674" y="644" type="line"/>
      <point x="698" y="635"/>
      <point x="720" y="610"/>
      <point x="720" y="576" type="curve" smooth="yes"/>
      <point x="720" y="536"/>
      <point x="689" y="509"/>
      <point x="628" y="509" type="curve" smooth="yes"/>
      <point x="436" y="509" type="line"/>
      <point x="436" y="434" type="line"/>
    </contour>
    <contour>
      <point x="323" y="-14"/>
      <point x="400" y="121"/>
      <point x="400" y="253" type="curve" smooth="yes"/>
      <point x="400" y="383"/>
      <point x="325" y="519"/>
      <point x="191" y="519" type="curve" smooth="yes"/>
      <point x="111" y="519"/>
      <point x="58" y="471"/>
      <point x="58" y="407" type="curve" smooth="yes"/>
      <point x="58" y="339"/>
      <point x="117" y="289"/>
      <point x="175" y="289" type="curve" smooth="yes"/>
      <point x="228" y="289"/>
      <point x="272" y="332"/>
      <point x="272" y="409" type="curve" smooth="yes"/>
      <point x="272" y="422"/>
      <point x="271" y="436"/>
      <point x="268" y="453" type="curve"/>
      <point x="237" y="470" type="line"/>
      <point x="241" y="459"/>
      <point x="244" y="444"/>
      <point x="244" y="429" type="curve" smooth="yes"/>
      <point x="244" y="382"/>
      <point x="214" y="355"/>
      <point x="168" y="355" type="curve" smooth="yes"/>
      <point x="126" y="355"/>
      <point x="95" y="377"/>
      <point x="95" y="405" type="curve" smooth="yes"/>
      <point x="95" y="432"/>
      <point x="124" y="449"/>
      <point x="173" y="449" type="curve" smooth="yes"/>
      <point x="281" y="449"/>
      <point x="365" y="375"/>
      <point x="365" y="246" type="curve" smooth="yes"/>
      <point x="365" y="129"/>
      <point x="296" y="57"/>
      <point x="188" y="57" type="curve" smooth="yes"/>
      <point x="123" y="57"/>
      <point x="93" y="83"/>
      <point x="93" y="112" type="curve" smooth="yes"/>
      <point x="93" y="140"/>
      <point x="122" y="161"/>
      <point x="160" y="161" type="curve" smooth="yes"/>
      <point x="211" y="161"/>
      <point x="241" y="122"/>
      <point x="241" y="71" type="curve" smooth="yes"/>
      <point x="241" y="62"/>
      <point x="240" y="50"/>
      <point x="237" y="34" type="curve"/>
      <point x="265" y="54" type="line"/>
      <point x="268" y="70"/>
      <point x="269" y="87"/>
      <point x="269" y="99" type="curve" smooth="yes"/>
      <point x="269" y="175"/>
      <point x="225" y="227"/>
      <point x="164" y="227" type="curve" smooth="yes"/>
      <point x="104" y="227"/>
      <point x="55" y="176"/>
      <point x="55" y="111" type="curve" smooth="yes"/>
      <point x="55" y="42"/>
      <point x="111" y="-14"/>
      <point x="194" y="-14" type="curve" smooth="yes"/>
    </contour>
    <contour>
      <point x="651" y="-14"/>
      <point x="731" y="95"/>
      <point x="731" y="242" type="curve" smooth="yes"/>
      <point x="731" y="415"/>
      <point x="635" y="509"/>
      <point x="564" y="509" type="curve"/>
      <point x="584" y="434" type="line"/>
      <point x="637" y="415"/>
      <point x="696" y="354"/>
      <point x="696" y="244" type="curve" smooth="yes"/>
      <point x="696" y="137"/>
      <point x="621" y="71"/>
      <point x="533" y="71" type="curve" smooth="yes"/>
      <point x="469" y="71"/>
      <point x="416" y="105"/>
      <point x="379" y="207" type="curve"/>
      <point x="369" y="141" type="line"/>
      <point x="397" y="43"/>
      <point x="464" y="-14"/>
      <point x="542" y="-14" type="curve" smooth="yes"/>
    </contour>
  </outline>
</glyph>
<glyph name="knvL" format="1">
  <advance width="956"/>
  <unicode hex="0C8C"/>
  <outline>
    <contour>
      <point x="823" y="-14"/>
      <point x="916" y="120"/>
      <point x="916" y="265" type="curve" smooth="yes"/>
      <point x="916" y="419"/>
      <point x="818" y="514"/>
      <point x="733" y="514" type="curve" smooth="yes"/>
      <point x="699" y="514"/>
      <point x="682" y="494"/>
      <point x="682" y="471" type="curve" smooth="yes"/>
      <point x="682" y="452"/>
      <point x="694" y="436"/>
      <point x="711" y="431" type="curve" smooth="yes"/>
      <point x="717" y="429"/>
      <point x="722" y="428"/>
      <point x="728" y="428" type="curve" smooth="yes"/>
      <point x="731" y="428"/>
      <point x="735" y="429"/>
      <point x="738" y="429" type="curve" smooth="yes"/>
      <point x="750" y="429"/>
      <point x="762" y="429"/>
      <point x="778" y="424" type="curve" smooth="yes"/>
      <point x="829" y="408"/>
      <point x="882" y="353"/>
      <point x="882" y="262" type="curve" smooth="yes"/>
      <point x="882" y="137"/>
      <point x="776" y="71"/>
      <point x="624" y="71" type="curve" smooth="yes"/>
      <point x="519" y="71"/>
      <point x="464" y="100"/>
      <point x="464" y="152" type="curve" smooth="yes"/>
      <point x="464" y="190"/>
      <point x="493" y="218"/>
      <point x="525" y="248" type="curve" smooth="yes"/>
      <point x="564" y="284"/>
      <point x="607" y="325"/>
      <point x="607" y="393" type="curve" smooth="yes"/>
      <point x="607" y="464"/>
      <point x="558" y="519"/>
      <point x="486" y="519" type="curve" smooth="yes"/>
      <point x="413" y="519"/>
      <point x="341" y="461"/>
      <point x="318" y="377" type="curve"/>
      <point x="316" y="377" type="line"/>
      <point x="293" y="461"/>
      <point x="228" y="519"/>
      <point x="151" y="519" type="curve" smooth="yes"/>
      <point x="79" y="519"/>
      <point x="30" y="467"/>
      <point x="30" y="393" type="curve" smooth="yes"/>
      <point x="30" y="346"/>
      <point x="49" y="308"/>
      <point x="87" y="269" type="curve"/>
      <point x="109" y="286" type="line"/>
      <point x="92" y="305"/>
      <point x="77" y="329"/>
      <point x="77" y="359" type="curve" smooth="yes"/>
      <point x="77" y="402"/>
      <point x="108" y="442"/>
      <point x="166" y="442" type="curve" smooth="yes"/>
      <point x="249" y="442"/>
      <point x="298" y="358"/>
      <point x="312" y="283" type="curve"/>
      <point x="321" y="283" type="line"/>
      <point x="334" y="358"/>
      <point x="396" y="442"/>
      <point x="484" y="442" type="curve" smooth="yes"/>
      <point x="533" y="442"/>
      <point x="561" y="415"/>
      <point x="561" y="373" type="curve" smooth="yes"/>
      <point x="561" y="328"/>
      <point x="529" y="299"/>
      <point x="495" y="269" type="curve" smooth="yes"/>
      <point x="457" y="235"/>
      <point x="417" y="199"/>
      <point x="417" y="131" type="curve" smooth="yes"/>
      <point x="417" y="56"/>
      <point x="465" y="-14"/>
      <point x="619" y="-14" type="curve" smooth="yes"/>
    </contour>
  </outline>
</glyph>
<glyph name="knEE" format="1">
  <advance width="724"/>
  <unicode hex="0C8F"/>
  <outline>
    <contour>
      <point x="417" y="71"/>
      <point x="351" y="146"/>
      <point x="338" y="221" type="curve"/>
      <point x="329" y="221" type="line"/>
      <point x="315" y="145"/>
      <point x="250" y="71"/>
      <point x="176" y="71" type="curve" smooth="yes"/>
      <point x="126" y="71"/>
      <point x="90" y="104"/>
      <point x="90" y="156" type="curve" smooth="yes"/>
      <point x="90" y="204"/>
      <point x="122" y="227"/>
      <point x="163" y="227" type="curve" smooth="yes"/>
      <point x="189" y="227"/>
      <point x="212" y="217"/>
      <point x="221" y="193" type="curve"/>
      <point x="237" y="208" type="line"/>
      <point x="226" y="250"/>
      <point x="202" y="287"/>
      <point x="153" y="287" type="curve" smooth="yes"/>
      <point x="94" y="287"/>
      <point x="50" y="232"/>
      <point x="50" y="146" type="curve" smooth="yes"/>
      <point x="50" y="56"/>
      <point x="100" y="-14"/>
      <point x="175" y="-14" type="curve" smooth="yes"/>
      <point x="242" y="-14"/>
      <point x="310" y="43"/>
      <point x="333" y="126" type="curve"/>
      <point x="335" y="126" type="line"/>
      <point x="358" y="43"/>
      <point x="426" y="-14"/>
      <point x="504" y="-14" type="curve" smooth="yes"/>
      <point x="607" y="-14"/>
      <point x="669" y="68"/>
      <point x="669" y="252" type="curve" smooth="yes"/>
      <point x="669" y="488"/>
      <point x="536" y="633"/>
      <point x="372" y="632" type="curve"/>
      <point x="348" y="580"/>
      <point x="317" y="557"/>
      <point x="275" y="557" type="curve" smooth="yes"/>
      <point x="224" y="557"/>
      <point x="185" y="592"/>
      <point x="185" y="645" type="curve" smooth="yes"/>
      <point x="185" y="657"/>
      <point x="187" y="670"/>
      <point x="189" y="681" type="curve"/>
      <point x="168" y="692" type="line"/>
      <point x="159" y="666"/>
      <point x="152" y="637"/>
      <point x="152" y="609" type="curve" smooth="yes"/>
      <point x="152" y="541"/>
      <point x="194" y="484"/>
      <point x="263" y="484" type="curve" smooth="yes"/>
      <point x="319" y="484"/>
      <point x="355" y="521"/>
      <point x="382" y="576" type="curve"/>
      <point x="500" y="570"/>
      <point x="634" y="460"/>
      <point x="634" y="265" type="curve" smooth="yes"/>
      <point x="634" y="118"/>
      <point x="578" y="71"/>
      <point x="500" y="71" type="curve" smooth="yes"/>
    </contour>
  </outline>
</glyph>
<glyph name="knGA" format="1">
  <advance width="585"/>
  <unicode hex="0C97"/>
  <outline>
    <contour>
      <point x="133" y="0" type="line"/>
      <point x="133" y="78" type="line" smooth="yes"/>
      <point x="133" y="247"/>
      <point x="187" y="438"/>
      <point x="292" y="438" type="curve" smooth="yes"/>
      <point x="397" y="438"/>
      <point x="451" y="247"/>
      <point x="451" y="78" type="curve" smooth="yes"/>
      <point x="451" y="0" type="line"/>
      <point x="529" y="0" type="line"/>
      <point x="529" y="51" type="line" smooth="yes"/>
      <point x="529" y="186"/>
      <point x="466" y="388"/>
      <point x="363" y="449" type="curve"/>
      <point x="292" y="465" type="line"/>
      <point x="221" y="449" type="line"/>
      <point x="118" y="388"/>
      <point x="55" y="186"/>
      <point x="55" y="51" type="curve" smooth="yes"/>
      <point x="55" y="0" type="line"/>
    </contour>
    <contour>
      <point x="227" y="434" type="line"/>
      <point x="292" y="444" type="line"/>
      <point x="358" y="434" type="line"/>
      <point x="388" y="434" type="line" smooth="yes"/>
      <point x="469" y="434"/>
      <point x="523" y="480"/>
      <point x="523" y="552" type="curve" smooth="yes"/>
      <point x="523" y="607"/>
      <point x="492" y="648"/>
      <point x="449" y="664" type="curve"/>
      <point x="434" y="644" type="line"/>
      <point x="458" y="635"/>
      <point x="480" y="610"/>
      <point x="480" y="576" type="curve" smooth="yes"/>
      <point x="480" y="536"/>
      <point x="449" y="509"/>
      <point x="388" y="509" type="curve" smooth="yes"/>
      <point x="60" y="509" type="line"/>
      <point x="60" y="434" type="line"/>
    </contour>
  </outline>
</glyph>
